%TF.GenerationSoftware,KiCad,Pcbnew,9.0.7*%
%TF.CreationDate,2026-05-05T18:13:39-07:00*%
%TF.ProjectId,Flappy Bird,466c6170-7079-4204-9269-72642e6b6963,rev?*%
%TF.SameCoordinates,Original*%
%TF.FileFunction,Paste,Top*%
%TF.FilePolarity,Positive*%
%FSLAX46Y46*%
G04 Gerber Fmt 4.6, Leading zero omitted, Abs format (unit mm)*
G04 Created by KiCad (PCBNEW 9.0.7) date 2026-05-05 18:13:39*
%MOMM*%
%LPD*%
G01*
G04 APERTURE LIST*
G04 Aperture macros list*
%AMRoundRect*
0 Rectangle with rounded corners*
0 $1 Rounding radius*
0 $2 $3 $4 $5 $6 $7 $8 $9 X,Y pos of 4 corners*
0 Add a 4 corners polygon primitive as box body*
4,1,4,$2,$3,$4,$5,$6,$7,$8,$9,$2,$3,0*
0 Add four circle primitives for the rounded corners*
1,1,$1+$1,$2,$3*
1,1,$1+$1,$4,$5*
1,1,$1+$1,$6,$7*
1,1,$1+$1,$8,$9*
0 Add four rect primitives between the rounded corners*
20,1,$1+$1,$2,$3,$4,$5,0*
20,1,$1+$1,$4,$5,$6,$7,0*
20,1,$1+$1,$6,$7,$8,$9,0*
20,1,$1+$1,$8,$9,$2,$3,0*%
%AMFreePoly0*
4,1,14,0.334644,0.085355,0.385355,0.034644,0.400000,-0.000711,0.400000,-0.050000,0.385355,-0.085355,0.350000,-0.100000,-0.350000,-0.100000,-0.385355,-0.085355,-0.400000,-0.050000,-0.400000,0.050000,-0.385355,0.085355,-0.350000,0.100000,0.299289,0.100000,0.334644,0.085355,0.334644,0.085355,$1*%
%AMFreePoly1*
4,1,14,0.385355,0.085355,0.400000,0.050000,0.400000,0.000711,0.385355,-0.034644,0.334644,-0.085355,0.299289,-0.100000,-0.350000,-0.100000,-0.385355,-0.085355,-0.400000,-0.050000,-0.400000,0.050000,-0.385355,0.085355,-0.350000,0.100000,0.350000,0.100000,0.385355,0.085355,0.385355,0.085355,$1*%
%AMFreePoly2*
4,1,14,0.085355,0.385355,0.100000,0.350000,0.100000,-0.350000,0.085355,-0.385355,0.050000,-0.400000,-0.050000,-0.400000,-0.085355,-0.385355,-0.100000,-0.350000,-0.100000,0.299289,-0.085355,0.334644,-0.034644,0.385355,0.000711,0.400000,0.050000,0.400000,0.085355,0.385355,0.085355,0.385355,$1*%
%AMFreePoly3*
4,1,14,0.034644,0.385355,0.085355,0.334644,0.100000,0.299289,0.100000,-0.350000,0.085355,-0.385355,0.050000,-0.400000,-0.050000,-0.400000,-0.085355,-0.385355,-0.100000,-0.350000,-0.100000,0.350000,-0.085355,0.385355,-0.050000,0.400000,-0.000711,0.400000,0.034644,0.385355,0.034644,0.385355,$1*%
%AMFreePoly4*
4,1,14,0.385355,0.085355,0.400000,0.050000,0.400000,-0.050000,0.385355,-0.085355,0.350000,-0.100000,-0.299289,-0.100000,-0.334644,-0.085355,-0.385355,-0.034644,-0.400000,0.000711,-0.400000,0.050000,-0.385355,0.085355,-0.350000,0.100000,0.350000,0.100000,0.385355,0.085355,0.385355,0.085355,$1*%
%AMFreePoly5*
4,1,14,0.385355,0.085355,0.400000,0.050000,0.400000,-0.050000,0.385355,-0.085355,0.350000,-0.100000,-0.350000,-0.100000,-0.385355,-0.085355,-0.400000,-0.050000,-0.400000,-0.000711,-0.385355,0.034644,-0.334644,0.085355,-0.299289,0.100000,0.350000,0.100000,0.385355,0.085355,0.385355,0.085355,$1*%
%AMFreePoly6*
4,1,14,0.085355,0.385355,0.100000,0.350000,0.100000,-0.299289,0.085355,-0.334644,0.034644,-0.385355,-0.000711,-0.400000,-0.050000,-0.400000,-0.085355,-0.385355,-0.100000,-0.350000,-0.100000,0.350000,-0.085355,0.385355,-0.050000,0.400000,0.050000,0.400000,0.085355,0.385355,0.085355,0.385355,$1*%
%AMFreePoly7*
4,1,14,0.085355,0.385355,0.100000,0.350000,0.100000,-0.350000,0.085355,-0.385355,0.050000,-0.400000,0.000711,-0.400000,-0.034644,-0.385355,-0.085355,-0.334644,-0.100000,-0.299289,-0.100000,0.350000,-0.085355,0.385355,-0.050000,0.400000,0.050000,0.400000,0.085355,0.385355,0.085355,0.385355,$1*%
%AMFreePoly8*
4,1,30,0.200000,1.710000,0.236753,1.697426,0.376386,1.589219,0.526381,1.504463,0.606724,1.473357,0.606723,1.473356,0.687059,1.442253,0.771046,1.423078,0.855035,1.403901,1.028740,1.390056,1.444035,1.390057,1.486461,1.372484,1.504035,1.330057,1.504034,-1.539942,1.486460,-1.582368,1.444038,-1.599942,1.046227,-1.599966,0.870517,-1.612848,0.700699,-1.650739,0.538235,-1.712988,
0.386579,-1.798267,0.245504,-1.907443,0.208783,-1.919992,-1.650000,-1.919992,-1.692426,-1.902418,-1.710000,-1.859992,-1.710000,1.650007,-1.692426,1.692433,-1.650000,1.710007,0.200000,1.710000,0.200000,1.710000,$1*%
G04 Aperture macros list end*
%ADD10RoundRect,0.218750X0.256250X-0.218750X0.256250X0.218750X-0.256250X0.218750X-0.256250X-0.218750X0*%
%ADD11RoundRect,0.200000X0.200000X0.275000X-0.200000X0.275000X-0.200000X-0.275000X0.200000X-0.275000X0*%
%ADD12RoundRect,0.200000X-0.275000X0.200000X-0.275000X-0.200000X0.275000X-0.200000X0.275000X0.200000X0*%
%ADD13R,1.000000X1.700000*%
%ADD14RoundRect,0.172500X-0.172500X-0.172500X0.172500X-0.172500X0.172500X0.172500X-0.172500X0.172500X0*%
%ADD15FreePoly0,0.000000*%
%ADD16RoundRect,0.050000X-0.350000X-0.050000X0.350000X-0.050000X0.350000X0.050000X-0.350000X0.050000X0*%
%ADD17FreePoly1,0.000000*%
%ADD18FreePoly2,0.000000*%
%ADD19RoundRect,0.050000X-0.050000X-0.350000X0.050000X-0.350000X0.050000X0.350000X-0.050000X0.350000X0*%
%ADD20FreePoly3,0.000000*%
%ADD21FreePoly4,0.000000*%
%ADD22FreePoly5,0.000000*%
%ADD23FreePoly6,0.000000*%
%ADD24FreePoly7,0.000000*%
%ADD25FreePoly8,90.000000*%
%ADD26FreePoly8,270.000000*%
G04 APERTURE END LIST*
D10*
%TO.C,D6*%
X190500000Y-90100000D03*
X190500000Y-88524998D03*
%TD*%
%TO.C,D26*%
X183400000Y-75775002D03*
X183400000Y-74200000D03*
%TD*%
D11*
%TO.C,R4*%
X172600000Y-82900000D03*
X170950000Y-82900000D03*
%TD*%
D12*
%TO.C,R16*%
X181000000Y-67050000D03*
X181000000Y-68700000D03*
%TD*%
D10*
%TO.C,D5*%
X190500000Y-86500000D03*
X190500000Y-84924998D03*
%TD*%
%TO.C,D18*%
X185600000Y-75687501D03*
X185600000Y-74112499D03*
%TD*%
%TO.C,D4*%
X190500000Y-82975002D03*
X190500000Y-81400000D03*
%TD*%
D11*
%TO.C,R5*%
X172700000Y-86300000D03*
X171050000Y-86300000D03*
%TD*%
D10*
%TO.C,D1*%
X190500000Y-72400000D03*
X190500000Y-70824998D03*
%TD*%
D12*
%TO.C,R17*%
X183300000Y-67050000D03*
X183300000Y-68700000D03*
%TD*%
D10*
%TO.C,D62*%
X174700000Y-89787501D03*
X174700000Y-88212499D03*
%TD*%
%TO.C,D40*%
X181300000Y-97300000D03*
X181300000Y-95724998D03*
%TD*%
%TO.C,D36*%
X181100000Y-82800000D03*
X181100000Y-81224998D03*
%TD*%
D11*
%TO.C,R2*%
X172500000Y-75700000D03*
X170850000Y-75700000D03*
%TD*%
D10*
%TO.C,D3*%
X190500000Y-79500000D03*
X190500000Y-77924998D03*
%TD*%
D13*
%TO.C,SW1*%
X149300000Y-87299998D03*
X149300000Y-81000000D03*
X153100000Y-87299998D03*
X153100000Y-81000000D03*
%TD*%
D10*
%TO.C,D51*%
X176800000Y-79200000D03*
X176800000Y-77624998D03*
%TD*%
D12*
%TO.C,R20*%
X190500000Y-67100000D03*
X190500000Y-68750000D03*
%TD*%
D10*
%TO.C,D61*%
X174600000Y-86200000D03*
X174600000Y-84624998D03*
%TD*%
%TO.C,D42*%
X179000000Y-75675002D03*
X179000000Y-74100000D03*
%TD*%
%TO.C,D15*%
X188200000Y-93800000D03*
X188200000Y-92224998D03*
%TD*%
%TO.C,D17*%
X185600000Y-72300000D03*
X185600000Y-70724998D03*
%TD*%
%TO.C,D23*%
X185900000Y-93700000D03*
X185900000Y-92124998D03*
%TD*%
%TO.C,D48*%
X179300000Y-97300000D03*
X179300000Y-95724998D03*
%TD*%
%TO.C,D22*%
X185800000Y-89975002D03*
X185800000Y-88400000D03*
%TD*%
%TO.C,D45*%
X179200000Y-86375002D03*
X179200000Y-84800000D03*
%TD*%
%TO.C,D44*%
X179100000Y-82800000D03*
X179100000Y-81224998D03*
%TD*%
%TO.C,D20*%
X185700000Y-82800000D03*
X185700000Y-81224998D03*
%TD*%
%TO.C,D19*%
X185600000Y-79300000D03*
X185600000Y-77724998D03*
%TD*%
%TO.C,D33*%
X181000000Y-72300000D03*
X181000000Y-70724998D03*
%TD*%
%TO.C,D57*%
X174500000Y-72375002D03*
X174500000Y-70800000D03*
%TD*%
D12*
%TO.C,R19*%
X188100000Y-67075000D03*
X188100000Y-68725000D03*
%TD*%
D10*
%TO.C,D54*%
X176800000Y-89900000D03*
X176800000Y-88324998D03*
%TD*%
%TO.C,D35*%
X181100000Y-79300000D03*
X181100000Y-77724998D03*
%TD*%
%TO.C,D30*%
X183800000Y-90000000D03*
X183800000Y-88424998D03*
%TD*%
%TO.C,D29*%
X183700000Y-86400000D03*
X183700000Y-84824998D03*
%TD*%
D11*
%TO.C,R1*%
X172450000Y-72400000D03*
X170800000Y-72400000D03*
%TD*%
D10*
%TO.C,D43*%
X179100000Y-79200000D03*
X179100000Y-77624998D03*
%TD*%
D12*
%TO.C,R18*%
X185600000Y-67100000D03*
X185600000Y-68750000D03*
%TD*%
D10*
%TO.C,D64*%
X174800000Y-97300000D03*
X174800000Y-95724998D03*
%TD*%
%TO.C,D27*%
X183500000Y-79300000D03*
X183500000Y-77724998D03*
%TD*%
D12*
%TO.C,R14*%
X176700000Y-67150000D03*
X176700000Y-68800000D03*
%TD*%
D10*
%TO.C,D47*%
X179200000Y-93600000D03*
X179200000Y-92024998D03*
%TD*%
%TO.C,D34*%
X181000000Y-75687501D03*
X181000000Y-74112499D03*
%TD*%
D12*
%TO.C,R15*%
X179100000Y-67075000D03*
X179100000Y-68725000D03*
%TD*%
D10*
%TO.C,D11*%
X188100000Y-79375002D03*
X188100000Y-77800000D03*
%TD*%
%TO.C,D16*%
X188200000Y-97487501D03*
X188200000Y-95912499D03*
%TD*%
%TO.C,D14*%
X188200000Y-90000000D03*
X188200000Y-88424998D03*
%TD*%
%TO.C,D8*%
X190500000Y-97500000D03*
X190500000Y-95924998D03*
%TD*%
%TO.C,D9*%
X188000000Y-72400000D03*
X188000000Y-70824998D03*
%TD*%
%TO.C,D2*%
X190500000Y-75887501D03*
X190500000Y-74312499D03*
%TD*%
%TO.C,D52*%
X176800000Y-82800000D03*
X176800000Y-81224998D03*
%TD*%
%TO.C,D38*%
X181200000Y-90000000D03*
X181200000Y-88424998D03*
%TD*%
%TO.C,D56*%
X176800000Y-97275002D03*
X176800000Y-95700000D03*
%TD*%
%TO.C,D41*%
X178900000Y-72400000D03*
X178900000Y-70824998D03*
%TD*%
%TO.C,D53*%
X176800000Y-86275002D03*
X176800000Y-84700000D03*
%TD*%
D11*
%TO.C,R3*%
X172500000Y-79300000D03*
X170850000Y-79300000D03*
%TD*%
D10*
%TO.C,D39*%
X181300000Y-93700000D03*
X181300000Y-92124998D03*
%TD*%
D12*
%TO.C,R13*%
X174400000Y-67200000D03*
X174400000Y-68850000D03*
%TD*%
D10*
%TO.C,D37*%
X181200000Y-86400000D03*
X181200000Y-84824998D03*
%TD*%
%TO.C,D31*%
X183900000Y-93800000D03*
X183900000Y-92224998D03*
%TD*%
%TO.C,D46*%
X179200000Y-89975002D03*
X179200000Y-88400000D03*
%TD*%
%TO.C,D10*%
X188100000Y-75875002D03*
X188100000Y-74300000D03*
%TD*%
%TO.C,D12*%
X188100000Y-82875002D03*
X188100000Y-81300000D03*
%TD*%
%TO.C,D13*%
X188100000Y-86500000D03*
X188100000Y-84924998D03*
%TD*%
%TO.C,D49*%
X176700000Y-72400000D03*
X176700000Y-70824998D03*
%TD*%
%TO.C,D21*%
X185700000Y-86400000D03*
X185700000Y-84824998D03*
%TD*%
%TO.C,D58*%
X174500000Y-75700000D03*
X174500000Y-74124998D03*
%TD*%
D11*
%TO.C,R6*%
X172700000Y-89900000D03*
X171050000Y-89900000D03*
%TD*%
%TO.C,R7*%
X172800000Y-93400000D03*
X171150000Y-93400000D03*
%TD*%
D10*
%TO.C,D59*%
X174500000Y-79200000D03*
X174500000Y-77624998D03*
%TD*%
D14*
%TO.C,U1*%
X150650000Y-70350000D03*
X150650000Y-71200000D03*
X151500000Y-70350000D03*
X151500000Y-71200000D03*
D15*
X149625000Y-69975000D03*
D16*
X149625000Y-70375000D03*
X149625000Y-70775000D03*
X149625000Y-71175000D03*
D17*
X149625000Y-71575000D03*
D18*
X150275000Y-72225000D03*
D19*
X150675000Y-72225000D03*
X151075000Y-72225000D03*
X151475000Y-72225000D03*
D20*
X151875000Y-72225000D03*
D21*
X152525000Y-71575000D03*
D16*
X152525000Y-71175000D03*
X152525000Y-70775000D03*
X152525000Y-70375000D03*
D22*
X152525000Y-69975000D03*
D23*
X151875000Y-69325000D03*
D19*
X151475000Y-69325000D03*
X151075000Y-69325000D03*
X150675000Y-69325000D03*
D24*
X150275000Y-69325000D03*
%TD*%
D11*
%TO.C,R8*%
X172700000Y-97400000D03*
X171050000Y-97400000D03*
%TD*%
D10*
%TO.C,D63*%
X174700000Y-93487501D03*
X174700000Y-91912499D03*
%TD*%
%TO.C,D55*%
X176800000Y-93500000D03*
X176800000Y-91924998D03*
%TD*%
%TO.C,D24*%
X185900000Y-97387501D03*
X185900000Y-95812499D03*
%TD*%
%TO.C,D25*%
X183300000Y-72300000D03*
X183300000Y-70724998D03*
%TD*%
%TO.C,D7*%
X190500000Y-93800000D03*
X190500000Y-92224998D03*
%TD*%
%TO.C,D50*%
X176700000Y-75700000D03*
X176700000Y-74124998D03*
%TD*%
%TO.C,D60*%
X174600000Y-82800000D03*
X174600000Y-81224998D03*
%TD*%
%TO.C,D32*%
X183900000Y-97300000D03*
X183900000Y-95724998D03*
%TD*%
%TO.C,D28*%
X183600000Y-82775002D03*
X183600000Y-81200000D03*
%TD*%
D25*
%TO.C,BT1*%
X131900000Y-97350000D03*
D26*
X132100000Y-67050000D03*
%TD*%
M02*
