%TF.GenerationSoftware,KiCad,Pcbnew,9.0.7*%
%TF.CreationDate,2026-05-05T18:13:39-07:00*%
%TF.ProjectId,Flappy Bird,466c6170-7079-4204-9269-72642e6b6963,rev?*%
%TF.SameCoordinates,Original*%
%TF.FileFunction,Legend,Top*%
%TF.FilePolarity,Positive*%
%FSLAX46Y46*%
G04 Gerber Fmt 4.6, Leading zero omitted, Abs format (unit mm)*
G04 Created by KiCad (PCBNEW 9.0.7) date 2026-05-05 18:13:39*
%MOMM*%
%LPD*%
G01*
G04 APERTURE LIST*
%ADD10C,0.150000*%
%ADD11C,0.120000*%
G04 APERTURE END LIST*
D10*
X189524819Y-90050593D02*
X188524819Y-90050593D01*
X188524819Y-90050593D02*
X188524819Y-89812498D01*
X188524819Y-89812498D02*
X188572438Y-89669641D01*
X188572438Y-89669641D02*
X188667676Y-89574403D01*
X188667676Y-89574403D02*
X188762914Y-89526784D01*
X188762914Y-89526784D02*
X188953390Y-89479165D01*
X188953390Y-89479165D02*
X189096247Y-89479165D01*
X189096247Y-89479165D02*
X189286723Y-89526784D01*
X189286723Y-89526784D02*
X189381961Y-89574403D01*
X189381961Y-89574403D02*
X189477200Y-89669641D01*
X189477200Y-89669641D02*
X189524819Y-89812498D01*
X189524819Y-89812498D02*
X189524819Y-90050593D01*
X188524819Y-88622022D02*
X188524819Y-88812498D01*
X188524819Y-88812498D02*
X188572438Y-88907736D01*
X188572438Y-88907736D02*
X188620057Y-88955355D01*
X188620057Y-88955355D02*
X188762914Y-89050593D01*
X188762914Y-89050593D02*
X188953390Y-89098212D01*
X188953390Y-89098212D02*
X189334342Y-89098212D01*
X189334342Y-89098212D02*
X189429580Y-89050593D01*
X189429580Y-89050593D02*
X189477200Y-89002974D01*
X189477200Y-89002974D02*
X189524819Y-88907736D01*
X189524819Y-88907736D02*
X189524819Y-88717260D01*
X189524819Y-88717260D02*
X189477200Y-88622022D01*
X189477200Y-88622022D02*
X189429580Y-88574403D01*
X189429580Y-88574403D02*
X189334342Y-88526784D01*
X189334342Y-88526784D02*
X189096247Y-88526784D01*
X189096247Y-88526784D02*
X189001009Y-88574403D01*
X189001009Y-88574403D02*
X188953390Y-88622022D01*
X188953390Y-88622022D02*
X188905771Y-88717260D01*
X188905771Y-88717260D02*
X188905771Y-88907736D01*
X188905771Y-88907736D02*
X188953390Y-89002974D01*
X188953390Y-89002974D02*
X189001009Y-89050593D01*
X189001009Y-89050593D02*
X189096247Y-89098212D01*
X182424819Y-76201786D02*
X181424819Y-76201786D01*
X181424819Y-76201786D02*
X181424819Y-75963691D01*
X181424819Y-75963691D02*
X181472438Y-75820834D01*
X181472438Y-75820834D02*
X181567676Y-75725596D01*
X181567676Y-75725596D02*
X181662914Y-75677977D01*
X181662914Y-75677977D02*
X181853390Y-75630358D01*
X181853390Y-75630358D02*
X181996247Y-75630358D01*
X181996247Y-75630358D02*
X182186723Y-75677977D01*
X182186723Y-75677977D02*
X182281961Y-75725596D01*
X182281961Y-75725596D02*
X182377200Y-75820834D01*
X182377200Y-75820834D02*
X182424819Y-75963691D01*
X182424819Y-75963691D02*
X182424819Y-76201786D01*
X181520057Y-75249405D02*
X181472438Y-75201786D01*
X181472438Y-75201786D02*
X181424819Y-75106548D01*
X181424819Y-75106548D02*
X181424819Y-74868453D01*
X181424819Y-74868453D02*
X181472438Y-74773215D01*
X181472438Y-74773215D02*
X181520057Y-74725596D01*
X181520057Y-74725596D02*
X181615295Y-74677977D01*
X181615295Y-74677977D02*
X181710533Y-74677977D01*
X181710533Y-74677977D02*
X181853390Y-74725596D01*
X181853390Y-74725596D02*
X182424819Y-75297024D01*
X182424819Y-75297024D02*
X182424819Y-74677977D01*
X181424819Y-73820834D02*
X181424819Y-74011310D01*
X181424819Y-74011310D02*
X181472438Y-74106548D01*
X181472438Y-74106548D02*
X181520057Y-74154167D01*
X181520057Y-74154167D02*
X181662914Y-74249405D01*
X181662914Y-74249405D02*
X181853390Y-74297024D01*
X181853390Y-74297024D02*
X182234342Y-74297024D01*
X182234342Y-74297024D02*
X182329580Y-74249405D01*
X182329580Y-74249405D02*
X182377200Y-74201786D01*
X182377200Y-74201786D02*
X182424819Y-74106548D01*
X182424819Y-74106548D02*
X182424819Y-73916072D01*
X182424819Y-73916072D02*
X182377200Y-73820834D01*
X182377200Y-73820834D02*
X182329580Y-73773215D01*
X182329580Y-73773215D02*
X182234342Y-73725596D01*
X182234342Y-73725596D02*
X181996247Y-73725596D01*
X181996247Y-73725596D02*
X181901009Y-73773215D01*
X181901009Y-73773215D02*
X181853390Y-73820834D01*
X181853390Y-73820834D02*
X181805771Y-73916072D01*
X181805771Y-73916072D02*
X181805771Y-74106548D01*
X181805771Y-74106548D02*
X181853390Y-74201786D01*
X181853390Y-74201786D02*
X181901009Y-74249405D01*
X181901009Y-74249405D02*
X181996247Y-74297024D01*
X171608333Y-84784819D02*
X171275000Y-84308628D01*
X171036905Y-84784819D02*
X171036905Y-83784819D01*
X171036905Y-83784819D02*
X171417857Y-83784819D01*
X171417857Y-83784819D02*
X171513095Y-83832438D01*
X171513095Y-83832438D02*
X171560714Y-83880057D01*
X171560714Y-83880057D02*
X171608333Y-83975295D01*
X171608333Y-83975295D02*
X171608333Y-84118152D01*
X171608333Y-84118152D02*
X171560714Y-84213390D01*
X171560714Y-84213390D02*
X171513095Y-84261009D01*
X171513095Y-84261009D02*
X171417857Y-84308628D01*
X171417857Y-84308628D02*
X171036905Y-84308628D01*
X172465476Y-84118152D02*
X172465476Y-84784819D01*
X172227381Y-83737200D02*
X171989286Y-84451485D01*
X171989286Y-84451485D02*
X172608333Y-84451485D01*
X182884819Y-68517857D02*
X182408628Y-68851190D01*
X182884819Y-69089285D02*
X181884819Y-69089285D01*
X181884819Y-69089285D02*
X181884819Y-68708333D01*
X181884819Y-68708333D02*
X181932438Y-68613095D01*
X181932438Y-68613095D02*
X181980057Y-68565476D01*
X181980057Y-68565476D02*
X182075295Y-68517857D01*
X182075295Y-68517857D02*
X182218152Y-68517857D01*
X182218152Y-68517857D02*
X182313390Y-68565476D01*
X182313390Y-68565476D02*
X182361009Y-68613095D01*
X182361009Y-68613095D02*
X182408628Y-68708333D01*
X182408628Y-68708333D02*
X182408628Y-69089285D01*
X182884819Y-67565476D02*
X182884819Y-68136904D01*
X182884819Y-67851190D02*
X181884819Y-67851190D01*
X181884819Y-67851190D02*
X182027676Y-67946428D01*
X182027676Y-67946428D02*
X182122914Y-68041666D01*
X182122914Y-68041666D02*
X182170533Y-68136904D01*
X181884819Y-66708333D02*
X181884819Y-66898809D01*
X181884819Y-66898809D02*
X181932438Y-66994047D01*
X181932438Y-66994047D02*
X181980057Y-67041666D01*
X181980057Y-67041666D02*
X182122914Y-67136904D01*
X182122914Y-67136904D02*
X182313390Y-67184523D01*
X182313390Y-67184523D02*
X182694342Y-67184523D01*
X182694342Y-67184523D02*
X182789580Y-67136904D01*
X182789580Y-67136904D02*
X182837200Y-67089285D01*
X182837200Y-67089285D02*
X182884819Y-66994047D01*
X182884819Y-66994047D02*
X182884819Y-66803571D01*
X182884819Y-66803571D02*
X182837200Y-66708333D01*
X182837200Y-66708333D02*
X182789580Y-66660714D01*
X182789580Y-66660714D02*
X182694342Y-66613095D01*
X182694342Y-66613095D02*
X182456247Y-66613095D01*
X182456247Y-66613095D02*
X182361009Y-66660714D01*
X182361009Y-66660714D02*
X182313390Y-66708333D01*
X182313390Y-66708333D02*
X182265771Y-66803571D01*
X182265771Y-66803571D02*
X182265771Y-66994047D01*
X182265771Y-66994047D02*
X182313390Y-67089285D01*
X182313390Y-67089285D02*
X182361009Y-67136904D01*
X182361009Y-67136904D02*
X182456247Y-67184523D01*
X189524819Y-86450593D02*
X188524819Y-86450593D01*
X188524819Y-86450593D02*
X188524819Y-86212498D01*
X188524819Y-86212498D02*
X188572438Y-86069641D01*
X188572438Y-86069641D02*
X188667676Y-85974403D01*
X188667676Y-85974403D02*
X188762914Y-85926784D01*
X188762914Y-85926784D02*
X188953390Y-85879165D01*
X188953390Y-85879165D02*
X189096247Y-85879165D01*
X189096247Y-85879165D02*
X189286723Y-85926784D01*
X189286723Y-85926784D02*
X189381961Y-85974403D01*
X189381961Y-85974403D02*
X189477200Y-86069641D01*
X189477200Y-86069641D02*
X189524819Y-86212498D01*
X189524819Y-86212498D02*
X189524819Y-86450593D01*
X188524819Y-84974403D02*
X188524819Y-85450593D01*
X188524819Y-85450593D02*
X189001009Y-85498212D01*
X189001009Y-85498212D02*
X188953390Y-85450593D01*
X188953390Y-85450593D02*
X188905771Y-85355355D01*
X188905771Y-85355355D02*
X188905771Y-85117260D01*
X188905771Y-85117260D02*
X188953390Y-85022022D01*
X188953390Y-85022022D02*
X189001009Y-84974403D01*
X189001009Y-84974403D02*
X189096247Y-84926784D01*
X189096247Y-84926784D02*
X189334342Y-84926784D01*
X189334342Y-84926784D02*
X189429580Y-84974403D01*
X189429580Y-84974403D02*
X189477200Y-85022022D01*
X189477200Y-85022022D02*
X189524819Y-85117260D01*
X189524819Y-85117260D02*
X189524819Y-85355355D01*
X189524819Y-85355355D02*
X189477200Y-85450593D01*
X189477200Y-85450593D02*
X189429580Y-85498212D01*
X184624819Y-76114285D02*
X183624819Y-76114285D01*
X183624819Y-76114285D02*
X183624819Y-75876190D01*
X183624819Y-75876190D02*
X183672438Y-75733333D01*
X183672438Y-75733333D02*
X183767676Y-75638095D01*
X183767676Y-75638095D02*
X183862914Y-75590476D01*
X183862914Y-75590476D02*
X184053390Y-75542857D01*
X184053390Y-75542857D02*
X184196247Y-75542857D01*
X184196247Y-75542857D02*
X184386723Y-75590476D01*
X184386723Y-75590476D02*
X184481961Y-75638095D01*
X184481961Y-75638095D02*
X184577200Y-75733333D01*
X184577200Y-75733333D02*
X184624819Y-75876190D01*
X184624819Y-75876190D02*
X184624819Y-76114285D01*
X184624819Y-74590476D02*
X184624819Y-75161904D01*
X184624819Y-74876190D02*
X183624819Y-74876190D01*
X183624819Y-74876190D02*
X183767676Y-74971428D01*
X183767676Y-74971428D02*
X183862914Y-75066666D01*
X183862914Y-75066666D02*
X183910533Y-75161904D01*
X184053390Y-74019047D02*
X184005771Y-74114285D01*
X184005771Y-74114285D02*
X183958152Y-74161904D01*
X183958152Y-74161904D02*
X183862914Y-74209523D01*
X183862914Y-74209523D02*
X183815295Y-74209523D01*
X183815295Y-74209523D02*
X183720057Y-74161904D01*
X183720057Y-74161904D02*
X183672438Y-74114285D01*
X183672438Y-74114285D02*
X183624819Y-74019047D01*
X183624819Y-74019047D02*
X183624819Y-73828571D01*
X183624819Y-73828571D02*
X183672438Y-73733333D01*
X183672438Y-73733333D02*
X183720057Y-73685714D01*
X183720057Y-73685714D02*
X183815295Y-73638095D01*
X183815295Y-73638095D02*
X183862914Y-73638095D01*
X183862914Y-73638095D02*
X183958152Y-73685714D01*
X183958152Y-73685714D02*
X184005771Y-73733333D01*
X184005771Y-73733333D02*
X184053390Y-73828571D01*
X184053390Y-73828571D02*
X184053390Y-74019047D01*
X184053390Y-74019047D02*
X184101009Y-74114285D01*
X184101009Y-74114285D02*
X184148628Y-74161904D01*
X184148628Y-74161904D02*
X184243866Y-74209523D01*
X184243866Y-74209523D02*
X184434342Y-74209523D01*
X184434342Y-74209523D02*
X184529580Y-74161904D01*
X184529580Y-74161904D02*
X184577200Y-74114285D01*
X184577200Y-74114285D02*
X184624819Y-74019047D01*
X184624819Y-74019047D02*
X184624819Y-73828571D01*
X184624819Y-73828571D02*
X184577200Y-73733333D01*
X184577200Y-73733333D02*
X184529580Y-73685714D01*
X184529580Y-73685714D02*
X184434342Y-73638095D01*
X184434342Y-73638095D02*
X184243866Y-73638095D01*
X184243866Y-73638095D02*
X184148628Y-73685714D01*
X184148628Y-73685714D02*
X184101009Y-73733333D01*
X184101009Y-73733333D02*
X184053390Y-73828571D01*
X189524819Y-82925595D02*
X188524819Y-82925595D01*
X188524819Y-82925595D02*
X188524819Y-82687500D01*
X188524819Y-82687500D02*
X188572438Y-82544643D01*
X188572438Y-82544643D02*
X188667676Y-82449405D01*
X188667676Y-82449405D02*
X188762914Y-82401786D01*
X188762914Y-82401786D02*
X188953390Y-82354167D01*
X188953390Y-82354167D02*
X189096247Y-82354167D01*
X189096247Y-82354167D02*
X189286723Y-82401786D01*
X189286723Y-82401786D02*
X189381961Y-82449405D01*
X189381961Y-82449405D02*
X189477200Y-82544643D01*
X189477200Y-82544643D02*
X189524819Y-82687500D01*
X189524819Y-82687500D02*
X189524819Y-82925595D01*
X188858152Y-81497024D02*
X189524819Y-81497024D01*
X188477200Y-81735119D02*
X189191485Y-81973214D01*
X189191485Y-81973214D02*
X189191485Y-81354167D01*
X171708333Y-88184819D02*
X171375000Y-87708628D01*
X171136905Y-88184819D02*
X171136905Y-87184819D01*
X171136905Y-87184819D02*
X171517857Y-87184819D01*
X171517857Y-87184819D02*
X171613095Y-87232438D01*
X171613095Y-87232438D02*
X171660714Y-87280057D01*
X171660714Y-87280057D02*
X171708333Y-87375295D01*
X171708333Y-87375295D02*
X171708333Y-87518152D01*
X171708333Y-87518152D02*
X171660714Y-87613390D01*
X171660714Y-87613390D02*
X171613095Y-87661009D01*
X171613095Y-87661009D02*
X171517857Y-87708628D01*
X171517857Y-87708628D02*
X171136905Y-87708628D01*
X172613095Y-87184819D02*
X172136905Y-87184819D01*
X172136905Y-87184819D02*
X172089286Y-87661009D01*
X172089286Y-87661009D02*
X172136905Y-87613390D01*
X172136905Y-87613390D02*
X172232143Y-87565771D01*
X172232143Y-87565771D02*
X172470238Y-87565771D01*
X172470238Y-87565771D02*
X172565476Y-87613390D01*
X172565476Y-87613390D02*
X172613095Y-87661009D01*
X172613095Y-87661009D02*
X172660714Y-87756247D01*
X172660714Y-87756247D02*
X172660714Y-87994342D01*
X172660714Y-87994342D02*
X172613095Y-88089580D01*
X172613095Y-88089580D02*
X172565476Y-88137200D01*
X172565476Y-88137200D02*
X172470238Y-88184819D01*
X172470238Y-88184819D02*
X172232143Y-88184819D01*
X172232143Y-88184819D02*
X172136905Y-88137200D01*
X172136905Y-88137200D02*
X172089286Y-88089580D01*
X189524819Y-72350593D02*
X188524819Y-72350593D01*
X188524819Y-72350593D02*
X188524819Y-72112498D01*
X188524819Y-72112498D02*
X188572438Y-71969641D01*
X188572438Y-71969641D02*
X188667676Y-71874403D01*
X188667676Y-71874403D02*
X188762914Y-71826784D01*
X188762914Y-71826784D02*
X188953390Y-71779165D01*
X188953390Y-71779165D02*
X189096247Y-71779165D01*
X189096247Y-71779165D02*
X189286723Y-71826784D01*
X189286723Y-71826784D02*
X189381961Y-71874403D01*
X189381961Y-71874403D02*
X189477200Y-71969641D01*
X189477200Y-71969641D02*
X189524819Y-72112498D01*
X189524819Y-72112498D02*
X189524819Y-72350593D01*
X189524819Y-70826784D02*
X189524819Y-71398212D01*
X189524819Y-71112498D02*
X188524819Y-71112498D01*
X188524819Y-71112498D02*
X188667676Y-71207736D01*
X188667676Y-71207736D02*
X188762914Y-71302974D01*
X188762914Y-71302974D02*
X188810533Y-71398212D01*
X185184819Y-68517857D02*
X184708628Y-68851190D01*
X185184819Y-69089285D02*
X184184819Y-69089285D01*
X184184819Y-69089285D02*
X184184819Y-68708333D01*
X184184819Y-68708333D02*
X184232438Y-68613095D01*
X184232438Y-68613095D02*
X184280057Y-68565476D01*
X184280057Y-68565476D02*
X184375295Y-68517857D01*
X184375295Y-68517857D02*
X184518152Y-68517857D01*
X184518152Y-68517857D02*
X184613390Y-68565476D01*
X184613390Y-68565476D02*
X184661009Y-68613095D01*
X184661009Y-68613095D02*
X184708628Y-68708333D01*
X184708628Y-68708333D02*
X184708628Y-69089285D01*
X185184819Y-67565476D02*
X185184819Y-68136904D01*
X185184819Y-67851190D02*
X184184819Y-67851190D01*
X184184819Y-67851190D02*
X184327676Y-67946428D01*
X184327676Y-67946428D02*
X184422914Y-68041666D01*
X184422914Y-68041666D02*
X184470533Y-68136904D01*
X184184819Y-67232142D02*
X184184819Y-66565476D01*
X184184819Y-66565476D02*
X185184819Y-66994047D01*
X173724819Y-90214285D02*
X172724819Y-90214285D01*
X172724819Y-90214285D02*
X172724819Y-89976190D01*
X172724819Y-89976190D02*
X172772438Y-89833333D01*
X172772438Y-89833333D02*
X172867676Y-89738095D01*
X172867676Y-89738095D02*
X172962914Y-89690476D01*
X172962914Y-89690476D02*
X173153390Y-89642857D01*
X173153390Y-89642857D02*
X173296247Y-89642857D01*
X173296247Y-89642857D02*
X173486723Y-89690476D01*
X173486723Y-89690476D02*
X173581961Y-89738095D01*
X173581961Y-89738095D02*
X173677200Y-89833333D01*
X173677200Y-89833333D02*
X173724819Y-89976190D01*
X173724819Y-89976190D02*
X173724819Y-90214285D01*
X172724819Y-88785714D02*
X172724819Y-88976190D01*
X172724819Y-88976190D02*
X172772438Y-89071428D01*
X172772438Y-89071428D02*
X172820057Y-89119047D01*
X172820057Y-89119047D02*
X172962914Y-89214285D01*
X172962914Y-89214285D02*
X173153390Y-89261904D01*
X173153390Y-89261904D02*
X173534342Y-89261904D01*
X173534342Y-89261904D02*
X173629580Y-89214285D01*
X173629580Y-89214285D02*
X173677200Y-89166666D01*
X173677200Y-89166666D02*
X173724819Y-89071428D01*
X173724819Y-89071428D02*
X173724819Y-88880952D01*
X173724819Y-88880952D02*
X173677200Y-88785714D01*
X173677200Y-88785714D02*
X173629580Y-88738095D01*
X173629580Y-88738095D02*
X173534342Y-88690476D01*
X173534342Y-88690476D02*
X173296247Y-88690476D01*
X173296247Y-88690476D02*
X173201009Y-88738095D01*
X173201009Y-88738095D02*
X173153390Y-88785714D01*
X173153390Y-88785714D02*
X173105771Y-88880952D01*
X173105771Y-88880952D02*
X173105771Y-89071428D01*
X173105771Y-89071428D02*
X173153390Y-89166666D01*
X173153390Y-89166666D02*
X173201009Y-89214285D01*
X173201009Y-89214285D02*
X173296247Y-89261904D01*
X172820057Y-88309523D02*
X172772438Y-88261904D01*
X172772438Y-88261904D02*
X172724819Y-88166666D01*
X172724819Y-88166666D02*
X172724819Y-87928571D01*
X172724819Y-87928571D02*
X172772438Y-87833333D01*
X172772438Y-87833333D02*
X172820057Y-87785714D01*
X172820057Y-87785714D02*
X172915295Y-87738095D01*
X172915295Y-87738095D02*
X173010533Y-87738095D01*
X173010533Y-87738095D02*
X173153390Y-87785714D01*
X173153390Y-87785714D02*
X173724819Y-88357142D01*
X173724819Y-88357142D02*
X173724819Y-87738095D01*
X180324819Y-97726784D02*
X179324819Y-97726784D01*
X179324819Y-97726784D02*
X179324819Y-97488689D01*
X179324819Y-97488689D02*
X179372438Y-97345832D01*
X179372438Y-97345832D02*
X179467676Y-97250594D01*
X179467676Y-97250594D02*
X179562914Y-97202975D01*
X179562914Y-97202975D02*
X179753390Y-97155356D01*
X179753390Y-97155356D02*
X179896247Y-97155356D01*
X179896247Y-97155356D02*
X180086723Y-97202975D01*
X180086723Y-97202975D02*
X180181961Y-97250594D01*
X180181961Y-97250594D02*
X180277200Y-97345832D01*
X180277200Y-97345832D02*
X180324819Y-97488689D01*
X180324819Y-97488689D02*
X180324819Y-97726784D01*
X179658152Y-96298213D02*
X180324819Y-96298213D01*
X179277200Y-96536308D02*
X179991485Y-96774403D01*
X179991485Y-96774403D02*
X179991485Y-96155356D01*
X179324819Y-95583927D02*
X179324819Y-95488689D01*
X179324819Y-95488689D02*
X179372438Y-95393451D01*
X179372438Y-95393451D02*
X179420057Y-95345832D01*
X179420057Y-95345832D02*
X179515295Y-95298213D01*
X179515295Y-95298213D02*
X179705771Y-95250594D01*
X179705771Y-95250594D02*
X179943866Y-95250594D01*
X179943866Y-95250594D02*
X180134342Y-95298213D01*
X180134342Y-95298213D02*
X180229580Y-95345832D01*
X180229580Y-95345832D02*
X180277200Y-95393451D01*
X180277200Y-95393451D02*
X180324819Y-95488689D01*
X180324819Y-95488689D02*
X180324819Y-95583927D01*
X180324819Y-95583927D02*
X180277200Y-95679165D01*
X180277200Y-95679165D02*
X180229580Y-95726784D01*
X180229580Y-95726784D02*
X180134342Y-95774403D01*
X180134342Y-95774403D02*
X179943866Y-95822022D01*
X179943866Y-95822022D02*
X179705771Y-95822022D01*
X179705771Y-95822022D02*
X179515295Y-95774403D01*
X179515295Y-95774403D02*
X179420057Y-95726784D01*
X179420057Y-95726784D02*
X179372438Y-95679165D01*
X179372438Y-95679165D02*
X179324819Y-95583927D01*
X180124819Y-83226784D02*
X179124819Y-83226784D01*
X179124819Y-83226784D02*
X179124819Y-82988689D01*
X179124819Y-82988689D02*
X179172438Y-82845832D01*
X179172438Y-82845832D02*
X179267676Y-82750594D01*
X179267676Y-82750594D02*
X179362914Y-82702975D01*
X179362914Y-82702975D02*
X179553390Y-82655356D01*
X179553390Y-82655356D02*
X179696247Y-82655356D01*
X179696247Y-82655356D02*
X179886723Y-82702975D01*
X179886723Y-82702975D02*
X179981961Y-82750594D01*
X179981961Y-82750594D02*
X180077200Y-82845832D01*
X180077200Y-82845832D02*
X180124819Y-82988689D01*
X180124819Y-82988689D02*
X180124819Y-83226784D01*
X179124819Y-82322022D02*
X179124819Y-81702975D01*
X179124819Y-81702975D02*
X179505771Y-82036308D01*
X179505771Y-82036308D02*
X179505771Y-81893451D01*
X179505771Y-81893451D02*
X179553390Y-81798213D01*
X179553390Y-81798213D02*
X179601009Y-81750594D01*
X179601009Y-81750594D02*
X179696247Y-81702975D01*
X179696247Y-81702975D02*
X179934342Y-81702975D01*
X179934342Y-81702975D02*
X180029580Y-81750594D01*
X180029580Y-81750594D02*
X180077200Y-81798213D01*
X180077200Y-81798213D02*
X180124819Y-81893451D01*
X180124819Y-81893451D02*
X180124819Y-82179165D01*
X180124819Y-82179165D02*
X180077200Y-82274403D01*
X180077200Y-82274403D02*
X180029580Y-82322022D01*
X179124819Y-80845832D02*
X179124819Y-81036308D01*
X179124819Y-81036308D02*
X179172438Y-81131546D01*
X179172438Y-81131546D02*
X179220057Y-81179165D01*
X179220057Y-81179165D02*
X179362914Y-81274403D01*
X179362914Y-81274403D02*
X179553390Y-81322022D01*
X179553390Y-81322022D02*
X179934342Y-81322022D01*
X179934342Y-81322022D02*
X180029580Y-81274403D01*
X180029580Y-81274403D02*
X180077200Y-81226784D01*
X180077200Y-81226784D02*
X180124819Y-81131546D01*
X180124819Y-81131546D02*
X180124819Y-80941070D01*
X180124819Y-80941070D02*
X180077200Y-80845832D01*
X180077200Y-80845832D02*
X180029580Y-80798213D01*
X180029580Y-80798213D02*
X179934342Y-80750594D01*
X179934342Y-80750594D02*
X179696247Y-80750594D01*
X179696247Y-80750594D02*
X179601009Y-80798213D01*
X179601009Y-80798213D02*
X179553390Y-80845832D01*
X179553390Y-80845832D02*
X179505771Y-80941070D01*
X179505771Y-80941070D02*
X179505771Y-81131546D01*
X179505771Y-81131546D02*
X179553390Y-81226784D01*
X179553390Y-81226784D02*
X179601009Y-81274403D01*
X179601009Y-81274403D02*
X179696247Y-81322022D01*
X171508333Y-77584819D02*
X171175000Y-77108628D01*
X170936905Y-77584819D02*
X170936905Y-76584819D01*
X170936905Y-76584819D02*
X171317857Y-76584819D01*
X171317857Y-76584819D02*
X171413095Y-76632438D01*
X171413095Y-76632438D02*
X171460714Y-76680057D01*
X171460714Y-76680057D02*
X171508333Y-76775295D01*
X171508333Y-76775295D02*
X171508333Y-76918152D01*
X171508333Y-76918152D02*
X171460714Y-77013390D01*
X171460714Y-77013390D02*
X171413095Y-77061009D01*
X171413095Y-77061009D02*
X171317857Y-77108628D01*
X171317857Y-77108628D02*
X170936905Y-77108628D01*
X171889286Y-76680057D02*
X171936905Y-76632438D01*
X171936905Y-76632438D02*
X172032143Y-76584819D01*
X172032143Y-76584819D02*
X172270238Y-76584819D01*
X172270238Y-76584819D02*
X172365476Y-76632438D01*
X172365476Y-76632438D02*
X172413095Y-76680057D01*
X172413095Y-76680057D02*
X172460714Y-76775295D01*
X172460714Y-76775295D02*
X172460714Y-76870533D01*
X172460714Y-76870533D02*
X172413095Y-77013390D01*
X172413095Y-77013390D02*
X171841667Y-77584819D01*
X171841667Y-77584819D02*
X172460714Y-77584819D01*
X189524819Y-79450593D02*
X188524819Y-79450593D01*
X188524819Y-79450593D02*
X188524819Y-79212498D01*
X188524819Y-79212498D02*
X188572438Y-79069641D01*
X188572438Y-79069641D02*
X188667676Y-78974403D01*
X188667676Y-78974403D02*
X188762914Y-78926784D01*
X188762914Y-78926784D02*
X188953390Y-78879165D01*
X188953390Y-78879165D02*
X189096247Y-78879165D01*
X189096247Y-78879165D02*
X189286723Y-78926784D01*
X189286723Y-78926784D02*
X189381961Y-78974403D01*
X189381961Y-78974403D02*
X189477200Y-79069641D01*
X189477200Y-79069641D02*
X189524819Y-79212498D01*
X189524819Y-79212498D02*
X189524819Y-79450593D01*
X188524819Y-78545831D02*
X188524819Y-77926784D01*
X188524819Y-77926784D02*
X188905771Y-78260117D01*
X188905771Y-78260117D02*
X188905771Y-78117260D01*
X188905771Y-78117260D02*
X188953390Y-78022022D01*
X188953390Y-78022022D02*
X189001009Y-77974403D01*
X189001009Y-77974403D02*
X189096247Y-77926784D01*
X189096247Y-77926784D02*
X189334342Y-77926784D01*
X189334342Y-77926784D02*
X189429580Y-77974403D01*
X189429580Y-77974403D02*
X189477200Y-78022022D01*
X189477200Y-78022022D02*
X189524819Y-78117260D01*
X189524819Y-78117260D02*
X189524819Y-78402974D01*
X189524819Y-78402974D02*
X189477200Y-78498212D01*
X189477200Y-78498212D02*
X189429580Y-78545831D01*
X147857201Y-85483331D02*
X147904820Y-85340474D01*
X147904820Y-85340474D02*
X147904820Y-85102379D01*
X147904820Y-85102379D02*
X147857201Y-85007141D01*
X147857201Y-85007141D02*
X147809581Y-84959522D01*
X147809581Y-84959522D02*
X147714343Y-84911903D01*
X147714343Y-84911903D02*
X147619105Y-84911903D01*
X147619105Y-84911903D02*
X147523867Y-84959522D01*
X147523867Y-84959522D02*
X147476248Y-85007141D01*
X147476248Y-85007141D02*
X147428629Y-85102379D01*
X147428629Y-85102379D02*
X147381010Y-85292855D01*
X147381010Y-85292855D02*
X147333391Y-85388093D01*
X147333391Y-85388093D02*
X147285772Y-85435712D01*
X147285772Y-85435712D02*
X147190534Y-85483331D01*
X147190534Y-85483331D02*
X147095296Y-85483331D01*
X147095296Y-85483331D02*
X147000058Y-85435712D01*
X147000058Y-85435712D02*
X146952439Y-85388093D01*
X146952439Y-85388093D02*
X146904820Y-85292855D01*
X146904820Y-85292855D02*
X146904820Y-85054760D01*
X146904820Y-85054760D02*
X146952439Y-84911903D01*
X146904820Y-84578569D02*
X147904820Y-84340474D01*
X147904820Y-84340474D02*
X147190534Y-84149998D01*
X147190534Y-84149998D02*
X147904820Y-83959522D01*
X147904820Y-83959522D02*
X146904820Y-83721427D01*
X147904820Y-82816665D02*
X147904820Y-83388093D01*
X147904820Y-83102379D02*
X146904820Y-83102379D01*
X146904820Y-83102379D02*
X147047677Y-83197617D01*
X147047677Y-83197617D02*
X147142915Y-83292855D01*
X147142915Y-83292855D02*
X147190534Y-83388093D01*
X175824819Y-79626784D02*
X174824819Y-79626784D01*
X174824819Y-79626784D02*
X174824819Y-79388689D01*
X174824819Y-79388689D02*
X174872438Y-79245832D01*
X174872438Y-79245832D02*
X174967676Y-79150594D01*
X174967676Y-79150594D02*
X175062914Y-79102975D01*
X175062914Y-79102975D02*
X175253390Y-79055356D01*
X175253390Y-79055356D02*
X175396247Y-79055356D01*
X175396247Y-79055356D02*
X175586723Y-79102975D01*
X175586723Y-79102975D02*
X175681961Y-79150594D01*
X175681961Y-79150594D02*
X175777200Y-79245832D01*
X175777200Y-79245832D02*
X175824819Y-79388689D01*
X175824819Y-79388689D02*
X175824819Y-79626784D01*
X174824819Y-78150594D02*
X174824819Y-78626784D01*
X174824819Y-78626784D02*
X175301009Y-78674403D01*
X175301009Y-78674403D02*
X175253390Y-78626784D01*
X175253390Y-78626784D02*
X175205771Y-78531546D01*
X175205771Y-78531546D02*
X175205771Y-78293451D01*
X175205771Y-78293451D02*
X175253390Y-78198213D01*
X175253390Y-78198213D02*
X175301009Y-78150594D01*
X175301009Y-78150594D02*
X175396247Y-78102975D01*
X175396247Y-78102975D02*
X175634342Y-78102975D01*
X175634342Y-78102975D02*
X175729580Y-78150594D01*
X175729580Y-78150594D02*
X175777200Y-78198213D01*
X175777200Y-78198213D02*
X175824819Y-78293451D01*
X175824819Y-78293451D02*
X175824819Y-78531546D01*
X175824819Y-78531546D02*
X175777200Y-78626784D01*
X175777200Y-78626784D02*
X175729580Y-78674403D01*
X175824819Y-77150594D02*
X175824819Y-77722022D01*
X175824819Y-77436308D02*
X174824819Y-77436308D01*
X174824819Y-77436308D02*
X174967676Y-77531546D01*
X174967676Y-77531546D02*
X175062914Y-77626784D01*
X175062914Y-77626784D02*
X175110533Y-77722022D01*
X192384819Y-68567857D02*
X191908628Y-68901190D01*
X192384819Y-69139285D02*
X191384819Y-69139285D01*
X191384819Y-69139285D02*
X191384819Y-68758333D01*
X191384819Y-68758333D02*
X191432438Y-68663095D01*
X191432438Y-68663095D02*
X191480057Y-68615476D01*
X191480057Y-68615476D02*
X191575295Y-68567857D01*
X191575295Y-68567857D02*
X191718152Y-68567857D01*
X191718152Y-68567857D02*
X191813390Y-68615476D01*
X191813390Y-68615476D02*
X191861009Y-68663095D01*
X191861009Y-68663095D02*
X191908628Y-68758333D01*
X191908628Y-68758333D02*
X191908628Y-69139285D01*
X191480057Y-68186904D02*
X191432438Y-68139285D01*
X191432438Y-68139285D02*
X191384819Y-68044047D01*
X191384819Y-68044047D02*
X191384819Y-67805952D01*
X191384819Y-67805952D02*
X191432438Y-67710714D01*
X191432438Y-67710714D02*
X191480057Y-67663095D01*
X191480057Y-67663095D02*
X191575295Y-67615476D01*
X191575295Y-67615476D02*
X191670533Y-67615476D01*
X191670533Y-67615476D02*
X191813390Y-67663095D01*
X191813390Y-67663095D02*
X192384819Y-68234523D01*
X192384819Y-68234523D02*
X192384819Y-67615476D01*
X191384819Y-66996428D02*
X191384819Y-66901190D01*
X191384819Y-66901190D02*
X191432438Y-66805952D01*
X191432438Y-66805952D02*
X191480057Y-66758333D01*
X191480057Y-66758333D02*
X191575295Y-66710714D01*
X191575295Y-66710714D02*
X191765771Y-66663095D01*
X191765771Y-66663095D02*
X192003866Y-66663095D01*
X192003866Y-66663095D02*
X192194342Y-66710714D01*
X192194342Y-66710714D02*
X192289580Y-66758333D01*
X192289580Y-66758333D02*
X192337200Y-66805952D01*
X192337200Y-66805952D02*
X192384819Y-66901190D01*
X192384819Y-66901190D02*
X192384819Y-66996428D01*
X192384819Y-66996428D02*
X192337200Y-67091666D01*
X192337200Y-67091666D02*
X192289580Y-67139285D01*
X192289580Y-67139285D02*
X192194342Y-67186904D01*
X192194342Y-67186904D02*
X192003866Y-67234523D01*
X192003866Y-67234523D02*
X191765771Y-67234523D01*
X191765771Y-67234523D02*
X191575295Y-67186904D01*
X191575295Y-67186904D02*
X191480057Y-67139285D01*
X191480057Y-67139285D02*
X191432438Y-67091666D01*
X191432438Y-67091666D02*
X191384819Y-66996428D01*
X173624819Y-86626784D02*
X172624819Y-86626784D01*
X172624819Y-86626784D02*
X172624819Y-86388689D01*
X172624819Y-86388689D02*
X172672438Y-86245832D01*
X172672438Y-86245832D02*
X172767676Y-86150594D01*
X172767676Y-86150594D02*
X172862914Y-86102975D01*
X172862914Y-86102975D02*
X173053390Y-86055356D01*
X173053390Y-86055356D02*
X173196247Y-86055356D01*
X173196247Y-86055356D02*
X173386723Y-86102975D01*
X173386723Y-86102975D02*
X173481961Y-86150594D01*
X173481961Y-86150594D02*
X173577200Y-86245832D01*
X173577200Y-86245832D02*
X173624819Y-86388689D01*
X173624819Y-86388689D02*
X173624819Y-86626784D01*
X172624819Y-85198213D02*
X172624819Y-85388689D01*
X172624819Y-85388689D02*
X172672438Y-85483927D01*
X172672438Y-85483927D02*
X172720057Y-85531546D01*
X172720057Y-85531546D02*
X172862914Y-85626784D01*
X172862914Y-85626784D02*
X173053390Y-85674403D01*
X173053390Y-85674403D02*
X173434342Y-85674403D01*
X173434342Y-85674403D02*
X173529580Y-85626784D01*
X173529580Y-85626784D02*
X173577200Y-85579165D01*
X173577200Y-85579165D02*
X173624819Y-85483927D01*
X173624819Y-85483927D02*
X173624819Y-85293451D01*
X173624819Y-85293451D02*
X173577200Y-85198213D01*
X173577200Y-85198213D02*
X173529580Y-85150594D01*
X173529580Y-85150594D02*
X173434342Y-85102975D01*
X173434342Y-85102975D02*
X173196247Y-85102975D01*
X173196247Y-85102975D02*
X173101009Y-85150594D01*
X173101009Y-85150594D02*
X173053390Y-85198213D01*
X173053390Y-85198213D02*
X173005771Y-85293451D01*
X173005771Y-85293451D02*
X173005771Y-85483927D01*
X173005771Y-85483927D02*
X173053390Y-85579165D01*
X173053390Y-85579165D02*
X173101009Y-85626784D01*
X173101009Y-85626784D02*
X173196247Y-85674403D01*
X173624819Y-84150594D02*
X173624819Y-84722022D01*
X173624819Y-84436308D02*
X172624819Y-84436308D01*
X172624819Y-84436308D02*
X172767676Y-84531546D01*
X172767676Y-84531546D02*
X172862914Y-84626784D01*
X172862914Y-84626784D02*
X172910533Y-84722022D01*
X178024819Y-76101786D02*
X177024819Y-76101786D01*
X177024819Y-76101786D02*
X177024819Y-75863691D01*
X177024819Y-75863691D02*
X177072438Y-75720834D01*
X177072438Y-75720834D02*
X177167676Y-75625596D01*
X177167676Y-75625596D02*
X177262914Y-75577977D01*
X177262914Y-75577977D02*
X177453390Y-75530358D01*
X177453390Y-75530358D02*
X177596247Y-75530358D01*
X177596247Y-75530358D02*
X177786723Y-75577977D01*
X177786723Y-75577977D02*
X177881961Y-75625596D01*
X177881961Y-75625596D02*
X177977200Y-75720834D01*
X177977200Y-75720834D02*
X178024819Y-75863691D01*
X178024819Y-75863691D02*
X178024819Y-76101786D01*
X177358152Y-74673215D02*
X178024819Y-74673215D01*
X176977200Y-74911310D02*
X177691485Y-75149405D01*
X177691485Y-75149405D02*
X177691485Y-74530358D01*
X177120057Y-74197024D02*
X177072438Y-74149405D01*
X177072438Y-74149405D02*
X177024819Y-74054167D01*
X177024819Y-74054167D02*
X177024819Y-73816072D01*
X177024819Y-73816072D02*
X177072438Y-73720834D01*
X177072438Y-73720834D02*
X177120057Y-73673215D01*
X177120057Y-73673215D02*
X177215295Y-73625596D01*
X177215295Y-73625596D02*
X177310533Y-73625596D01*
X177310533Y-73625596D02*
X177453390Y-73673215D01*
X177453390Y-73673215D02*
X178024819Y-74244643D01*
X178024819Y-74244643D02*
X178024819Y-73625596D01*
X187224819Y-94226784D02*
X186224819Y-94226784D01*
X186224819Y-94226784D02*
X186224819Y-93988689D01*
X186224819Y-93988689D02*
X186272438Y-93845832D01*
X186272438Y-93845832D02*
X186367676Y-93750594D01*
X186367676Y-93750594D02*
X186462914Y-93702975D01*
X186462914Y-93702975D02*
X186653390Y-93655356D01*
X186653390Y-93655356D02*
X186796247Y-93655356D01*
X186796247Y-93655356D02*
X186986723Y-93702975D01*
X186986723Y-93702975D02*
X187081961Y-93750594D01*
X187081961Y-93750594D02*
X187177200Y-93845832D01*
X187177200Y-93845832D02*
X187224819Y-93988689D01*
X187224819Y-93988689D02*
X187224819Y-94226784D01*
X187224819Y-92702975D02*
X187224819Y-93274403D01*
X187224819Y-92988689D02*
X186224819Y-92988689D01*
X186224819Y-92988689D02*
X186367676Y-93083927D01*
X186367676Y-93083927D02*
X186462914Y-93179165D01*
X186462914Y-93179165D02*
X186510533Y-93274403D01*
X186224819Y-91798213D02*
X186224819Y-92274403D01*
X186224819Y-92274403D02*
X186701009Y-92322022D01*
X186701009Y-92322022D02*
X186653390Y-92274403D01*
X186653390Y-92274403D02*
X186605771Y-92179165D01*
X186605771Y-92179165D02*
X186605771Y-91941070D01*
X186605771Y-91941070D02*
X186653390Y-91845832D01*
X186653390Y-91845832D02*
X186701009Y-91798213D01*
X186701009Y-91798213D02*
X186796247Y-91750594D01*
X186796247Y-91750594D02*
X187034342Y-91750594D01*
X187034342Y-91750594D02*
X187129580Y-91798213D01*
X187129580Y-91798213D02*
X187177200Y-91845832D01*
X187177200Y-91845832D02*
X187224819Y-91941070D01*
X187224819Y-91941070D02*
X187224819Y-92179165D01*
X187224819Y-92179165D02*
X187177200Y-92274403D01*
X187177200Y-92274403D02*
X187129580Y-92322022D01*
X184624819Y-72726784D02*
X183624819Y-72726784D01*
X183624819Y-72726784D02*
X183624819Y-72488689D01*
X183624819Y-72488689D02*
X183672438Y-72345832D01*
X183672438Y-72345832D02*
X183767676Y-72250594D01*
X183767676Y-72250594D02*
X183862914Y-72202975D01*
X183862914Y-72202975D02*
X184053390Y-72155356D01*
X184053390Y-72155356D02*
X184196247Y-72155356D01*
X184196247Y-72155356D02*
X184386723Y-72202975D01*
X184386723Y-72202975D02*
X184481961Y-72250594D01*
X184481961Y-72250594D02*
X184577200Y-72345832D01*
X184577200Y-72345832D02*
X184624819Y-72488689D01*
X184624819Y-72488689D02*
X184624819Y-72726784D01*
X184624819Y-71202975D02*
X184624819Y-71774403D01*
X184624819Y-71488689D02*
X183624819Y-71488689D01*
X183624819Y-71488689D02*
X183767676Y-71583927D01*
X183767676Y-71583927D02*
X183862914Y-71679165D01*
X183862914Y-71679165D02*
X183910533Y-71774403D01*
X183624819Y-70869641D02*
X183624819Y-70202975D01*
X183624819Y-70202975D02*
X184624819Y-70631546D01*
X184924819Y-94126784D02*
X183924819Y-94126784D01*
X183924819Y-94126784D02*
X183924819Y-93888689D01*
X183924819Y-93888689D02*
X183972438Y-93745832D01*
X183972438Y-93745832D02*
X184067676Y-93650594D01*
X184067676Y-93650594D02*
X184162914Y-93602975D01*
X184162914Y-93602975D02*
X184353390Y-93555356D01*
X184353390Y-93555356D02*
X184496247Y-93555356D01*
X184496247Y-93555356D02*
X184686723Y-93602975D01*
X184686723Y-93602975D02*
X184781961Y-93650594D01*
X184781961Y-93650594D02*
X184877200Y-93745832D01*
X184877200Y-93745832D02*
X184924819Y-93888689D01*
X184924819Y-93888689D02*
X184924819Y-94126784D01*
X184020057Y-93174403D02*
X183972438Y-93126784D01*
X183972438Y-93126784D02*
X183924819Y-93031546D01*
X183924819Y-93031546D02*
X183924819Y-92793451D01*
X183924819Y-92793451D02*
X183972438Y-92698213D01*
X183972438Y-92698213D02*
X184020057Y-92650594D01*
X184020057Y-92650594D02*
X184115295Y-92602975D01*
X184115295Y-92602975D02*
X184210533Y-92602975D01*
X184210533Y-92602975D02*
X184353390Y-92650594D01*
X184353390Y-92650594D02*
X184924819Y-93222022D01*
X184924819Y-93222022D02*
X184924819Y-92602975D01*
X183924819Y-92269641D02*
X183924819Y-91650594D01*
X183924819Y-91650594D02*
X184305771Y-91983927D01*
X184305771Y-91983927D02*
X184305771Y-91841070D01*
X184305771Y-91841070D02*
X184353390Y-91745832D01*
X184353390Y-91745832D02*
X184401009Y-91698213D01*
X184401009Y-91698213D02*
X184496247Y-91650594D01*
X184496247Y-91650594D02*
X184734342Y-91650594D01*
X184734342Y-91650594D02*
X184829580Y-91698213D01*
X184829580Y-91698213D02*
X184877200Y-91745832D01*
X184877200Y-91745832D02*
X184924819Y-91841070D01*
X184924819Y-91841070D02*
X184924819Y-92126784D01*
X184924819Y-92126784D02*
X184877200Y-92222022D01*
X184877200Y-92222022D02*
X184829580Y-92269641D01*
X178324819Y-97726784D02*
X177324819Y-97726784D01*
X177324819Y-97726784D02*
X177324819Y-97488689D01*
X177324819Y-97488689D02*
X177372438Y-97345832D01*
X177372438Y-97345832D02*
X177467676Y-97250594D01*
X177467676Y-97250594D02*
X177562914Y-97202975D01*
X177562914Y-97202975D02*
X177753390Y-97155356D01*
X177753390Y-97155356D02*
X177896247Y-97155356D01*
X177896247Y-97155356D02*
X178086723Y-97202975D01*
X178086723Y-97202975D02*
X178181961Y-97250594D01*
X178181961Y-97250594D02*
X178277200Y-97345832D01*
X178277200Y-97345832D02*
X178324819Y-97488689D01*
X178324819Y-97488689D02*
X178324819Y-97726784D01*
X177658152Y-96298213D02*
X178324819Y-96298213D01*
X177277200Y-96536308D02*
X177991485Y-96774403D01*
X177991485Y-96774403D02*
X177991485Y-96155356D01*
X177753390Y-95631546D02*
X177705771Y-95726784D01*
X177705771Y-95726784D02*
X177658152Y-95774403D01*
X177658152Y-95774403D02*
X177562914Y-95822022D01*
X177562914Y-95822022D02*
X177515295Y-95822022D01*
X177515295Y-95822022D02*
X177420057Y-95774403D01*
X177420057Y-95774403D02*
X177372438Y-95726784D01*
X177372438Y-95726784D02*
X177324819Y-95631546D01*
X177324819Y-95631546D02*
X177324819Y-95441070D01*
X177324819Y-95441070D02*
X177372438Y-95345832D01*
X177372438Y-95345832D02*
X177420057Y-95298213D01*
X177420057Y-95298213D02*
X177515295Y-95250594D01*
X177515295Y-95250594D02*
X177562914Y-95250594D01*
X177562914Y-95250594D02*
X177658152Y-95298213D01*
X177658152Y-95298213D02*
X177705771Y-95345832D01*
X177705771Y-95345832D02*
X177753390Y-95441070D01*
X177753390Y-95441070D02*
X177753390Y-95631546D01*
X177753390Y-95631546D02*
X177801009Y-95726784D01*
X177801009Y-95726784D02*
X177848628Y-95774403D01*
X177848628Y-95774403D02*
X177943866Y-95822022D01*
X177943866Y-95822022D02*
X178134342Y-95822022D01*
X178134342Y-95822022D02*
X178229580Y-95774403D01*
X178229580Y-95774403D02*
X178277200Y-95726784D01*
X178277200Y-95726784D02*
X178324819Y-95631546D01*
X178324819Y-95631546D02*
X178324819Y-95441070D01*
X178324819Y-95441070D02*
X178277200Y-95345832D01*
X178277200Y-95345832D02*
X178229580Y-95298213D01*
X178229580Y-95298213D02*
X178134342Y-95250594D01*
X178134342Y-95250594D02*
X177943866Y-95250594D01*
X177943866Y-95250594D02*
X177848628Y-95298213D01*
X177848628Y-95298213D02*
X177801009Y-95345832D01*
X177801009Y-95345832D02*
X177753390Y-95441070D01*
X184824819Y-90401786D02*
X183824819Y-90401786D01*
X183824819Y-90401786D02*
X183824819Y-90163691D01*
X183824819Y-90163691D02*
X183872438Y-90020834D01*
X183872438Y-90020834D02*
X183967676Y-89925596D01*
X183967676Y-89925596D02*
X184062914Y-89877977D01*
X184062914Y-89877977D02*
X184253390Y-89830358D01*
X184253390Y-89830358D02*
X184396247Y-89830358D01*
X184396247Y-89830358D02*
X184586723Y-89877977D01*
X184586723Y-89877977D02*
X184681961Y-89925596D01*
X184681961Y-89925596D02*
X184777200Y-90020834D01*
X184777200Y-90020834D02*
X184824819Y-90163691D01*
X184824819Y-90163691D02*
X184824819Y-90401786D01*
X183920057Y-89449405D02*
X183872438Y-89401786D01*
X183872438Y-89401786D02*
X183824819Y-89306548D01*
X183824819Y-89306548D02*
X183824819Y-89068453D01*
X183824819Y-89068453D02*
X183872438Y-88973215D01*
X183872438Y-88973215D02*
X183920057Y-88925596D01*
X183920057Y-88925596D02*
X184015295Y-88877977D01*
X184015295Y-88877977D02*
X184110533Y-88877977D01*
X184110533Y-88877977D02*
X184253390Y-88925596D01*
X184253390Y-88925596D02*
X184824819Y-89497024D01*
X184824819Y-89497024D02*
X184824819Y-88877977D01*
X183920057Y-88497024D02*
X183872438Y-88449405D01*
X183872438Y-88449405D02*
X183824819Y-88354167D01*
X183824819Y-88354167D02*
X183824819Y-88116072D01*
X183824819Y-88116072D02*
X183872438Y-88020834D01*
X183872438Y-88020834D02*
X183920057Y-87973215D01*
X183920057Y-87973215D02*
X184015295Y-87925596D01*
X184015295Y-87925596D02*
X184110533Y-87925596D01*
X184110533Y-87925596D02*
X184253390Y-87973215D01*
X184253390Y-87973215D02*
X184824819Y-88544643D01*
X184824819Y-88544643D02*
X184824819Y-87925596D01*
X178224819Y-86801786D02*
X177224819Y-86801786D01*
X177224819Y-86801786D02*
X177224819Y-86563691D01*
X177224819Y-86563691D02*
X177272438Y-86420834D01*
X177272438Y-86420834D02*
X177367676Y-86325596D01*
X177367676Y-86325596D02*
X177462914Y-86277977D01*
X177462914Y-86277977D02*
X177653390Y-86230358D01*
X177653390Y-86230358D02*
X177796247Y-86230358D01*
X177796247Y-86230358D02*
X177986723Y-86277977D01*
X177986723Y-86277977D02*
X178081961Y-86325596D01*
X178081961Y-86325596D02*
X178177200Y-86420834D01*
X178177200Y-86420834D02*
X178224819Y-86563691D01*
X178224819Y-86563691D02*
X178224819Y-86801786D01*
X177558152Y-85373215D02*
X178224819Y-85373215D01*
X177177200Y-85611310D02*
X177891485Y-85849405D01*
X177891485Y-85849405D02*
X177891485Y-85230358D01*
X177224819Y-84373215D02*
X177224819Y-84849405D01*
X177224819Y-84849405D02*
X177701009Y-84897024D01*
X177701009Y-84897024D02*
X177653390Y-84849405D01*
X177653390Y-84849405D02*
X177605771Y-84754167D01*
X177605771Y-84754167D02*
X177605771Y-84516072D01*
X177605771Y-84516072D02*
X177653390Y-84420834D01*
X177653390Y-84420834D02*
X177701009Y-84373215D01*
X177701009Y-84373215D02*
X177796247Y-84325596D01*
X177796247Y-84325596D02*
X178034342Y-84325596D01*
X178034342Y-84325596D02*
X178129580Y-84373215D01*
X178129580Y-84373215D02*
X178177200Y-84420834D01*
X178177200Y-84420834D02*
X178224819Y-84516072D01*
X178224819Y-84516072D02*
X178224819Y-84754167D01*
X178224819Y-84754167D02*
X178177200Y-84849405D01*
X178177200Y-84849405D02*
X178129580Y-84897024D01*
X178124819Y-83226784D02*
X177124819Y-83226784D01*
X177124819Y-83226784D02*
X177124819Y-82988689D01*
X177124819Y-82988689D02*
X177172438Y-82845832D01*
X177172438Y-82845832D02*
X177267676Y-82750594D01*
X177267676Y-82750594D02*
X177362914Y-82702975D01*
X177362914Y-82702975D02*
X177553390Y-82655356D01*
X177553390Y-82655356D02*
X177696247Y-82655356D01*
X177696247Y-82655356D02*
X177886723Y-82702975D01*
X177886723Y-82702975D02*
X177981961Y-82750594D01*
X177981961Y-82750594D02*
X178077200Y-82845832D01*
X178077200Y-82845832D02*
X178124819Y-82988689D01*
X178124819Y-82988689D02*
X178124819Y-83226784D01*
X177458152Y-81798213D02*
X178124819Y-81798213D01*
X177077200Y-82036308D02*
X177791485Y-82274403D01*
X177791485Y-82274403D02*
X177791485Y-81655356D01*
X177458152Y-80845832D02*
X178124819Y-80845832D01*
X177077200Y-81083927D02*
X177791485Y-81322022D01*
X177791485Y-81322022D02*
X177791485Y-80702975D01*
X184724819Y-83226784D02*
X183724819Y-83226784D01*
X183724819Y-83226784D02*
X183724819Y-82988689D01*
X183724819Y-82988689D02*
X183772438Y-82845832D01*
X183772438Y-82845832D02*
X183867676Y-82750594D01*
X183867676Y-82750594D02*
X183962914Y-82702975D01*
X183962914Y-82702975D02*
X184153390Y-82655356D01*
X184153390Y-82655356D02*
X184296247Y-82655356D01*
X184296247Y-82655356D02*
X184486723Y-82702975D01*
X184486723Y-82702975D02*
X184581961Y-82750594D01*
X184581961Y-82750594D02*
X184677200Y-82845832D01*
X184677200Y-82845832D02*
X184724819Y-82988689D01*
X184724819Y-82988689D02*
X184724819Y-83226784D01*
X183820057Y-82274403D02*
X183772438Y-82226784D01*
X183772438Y-82226784D02*
X183724819Y-82131546D01*
X183724819Y-82131546D02*
X183724819Y-81893451D01*
X183724819Y-81893451D02*
X183772438Y-81798213D01*
X183772438Y-81798213D02*
X183820057Y-81750594D01*
X183820057Y-81750594D02*
X183915295Y-81702975D01*
X183915295Y-81702975D02*
X184010533Y-81702975D01*
X184010533Y-81702975D02*
X184153390Y-81750594D01*
X184153390Y-81750594D02*
X184724819Y-82322022D01*
X184724819Y-82322022D02*
X184724819Y-81702975D01*
X183724819Y-81083927D02*
X183724819Y-80988689D01*
X183724819Y-80988689D02*
X183772438Y-80893451D01*
X183772438Y-80893451D02*
X183820057Y-80845832D01*
X183820057Y-80845832D02*
X183915295Y-80798213D01*
X183915295Y-80798213D02*
X184105771Y-80750594D01*
X184105771Y-80750594D02*
X184343866Y-80750594D01*
X184343866Y-80750594D02*
X184534342Y-80798213D01*
X184534342Y-80798213D02*
X184629580Y-80845832D01*
X184629580Y-80845832D02*
X184677200Y-80893451D01*
X184677200Y-80893451D02*
X184724819Y-80988689D01*
X184724819Y-80988689D02*
X184724819Y-81083927D01*
X184724819Y-81083927D02*
X184677200Y-81179165D01*
X184677200Y-81179165D02*
X184629580Y-81226784D01*
X184629580Y-81226784D02*
X184534342Y-81274403D01*
X184534342Y-81274403D02*
X184343866Y-81322022D01*
X184343866Y-81322022D02*
X184105771Y-81322022D01*
X184105771Y-81322022D02*
X183915295Y-81274403D01*
X183915295Y-81274403D02*
X183820057Y-81226784D01*
X183820057Y-81226784D02*
X183772438Y-81179165D01*
X183772438Y-81179165D02*
X183724819Y-81083927D01*
X184624819Y-79726784D02*
X183624819Y-79726784D01*
X183624819Y-79726784D02*
X183624819Y-79488689D01*
X183624819Y-79488689D02*
X183672438Y-79345832D01*
X183672438Y-79345832D02*
X183767676Y-79250594D01*
X183767676Y-79250594D02*
X183862914Y-79202975D01*
X183862914Y-79202975D02*
X184053390Y-79155356D01*
X184053390Y-79155356D02*
X184196247Y-79155356D01*
X184196247Y-79155356D02*
X184386723Y-79202975D01*
X184386723Y-79202975D02*
X184481961Y-79250594D01*
X184481961Y-79250594D02*
X184577200Y-79345832D01*
X184577200Y-79345832D02*
X184624819Y-79488689D01*
X184624819Y-79488689D02*
X184624819Y-79726784D01*
X184624819Y-78202975D02*
X184624819Y-78774403D01*
X184624819Y-78488689D02*
X183624819Y-78488689D01*
X183624819Y-78488689D02*
X183767676Y-78583927D01*
X183767676Y-78583927D02*
X183862914Y-78679165D01*
X183862914Y-78679165D02*
X183910533Y-78774403D01*
X184624819Y-77726784D02*
X184624819Y-77536308D01*
X184624819Y-77536308D02*
X184577200Y-77441070D01*
X184577200Y-77441070D02*
X184529580Y-77393451D01*
X184529580Y-77393451D02*
X184386723Y-77298213D01*
X184386723Y-77298213D02*
X184196247Y-77250594D01*
X184196247Y-77250594D02*
X183815295Y-77250594D01*
X183815295Y-77250594D02*
X183720057Y-77298213D01*
X183720057Y-77298213D02*
X183672438Y-77345832D01*
X183672438Y-77345832D02*
X183624819Y-77441070D01*
X183624819Y-77441070D02*
X183624819Y-77631546D01*
X183624819Y-77631546D02*
X183672438Y-77726784D01*
X183672438Y-77726784D02*
X183720057Y-77774403D01*
X183720057Y-77774403D02*
X183815295Y-77822022D01*
X183815295Y-77822022D02*
X184053390Y-77822022D01*
X184053390Y-77822022D02*
X184148628Y-77774403D01*
X184148628Y-77774403D02*
X184196247Y-77726784D01*
X184196247Y-77726784D02*
X184243866Y-77631546D01*
X184243866Y-77631546D02*
X184243866Y-77441070D01*
X184243866Y-77441070D02*
X184196247Y-77345832D01*
X184196247Y-77345832D02*
X184148628Y-77298213D01*
X184148628Y-77298213D02*
X184053390Y-77250594D01*
X180024819Y-72726784D02*
X179024819Y-72726784D01*
X179024819Y-72726784D02*
X179024819Y-72488689D01*
X179024819Y-72488689D02*
X179072438Y-72345832D01*
X179072438Y-72345832D02*
X179167676Y-72250594D01*
X179167676Y-72250594D02*
X179262914Y-72202975D01*
X179262914Y-72202975D02*
X179453390Y-72155356D01*
X179453390Y-72155356D02*
X179596247Y-72155356D01*
X179596247Y-72155356D02*
X179786723Y-72202975D01*
X179786723Y-72202975D02*
X179881961Y-72250594D01*
X179881961Y-72250594D02*
X179977200Y-72345832D01*
X179977200Y-72345832D02*
X180024819Y-72488689D01*
X180024819Y-72488689D02*
X180024819Y-72726784D01*
X179024819Y-71822022D02*
X179024819Y-71202975D01*
X179024819Y-71202975D02*
X179405771Y-71536308D01*
X179405771Y-71536308D02*
X179405771Y-71393451D01*
X179405771Y-71393451D02*
X179453390Y-71298213D01*
X179453390Y-71298213D02*
X179501009Y-71250594D01*
X179501009Y-71250594D02*
X179596247Y-71202975D01*
X179596247Y-71202975D02*
X179834342Y-71202975D01*
X179834342Y-71202975D02*
X179929580Y-71250594D01*
X179929580Y-71250594D02*
X179977200Y-71298213D01*
X179977200Y-71298213D02*
X180024819Y-71393451D01*
X180024819Y-71393451D02*
X180024819Y-71679165D01*
X180024819Y-71679165D02*
X179977200Y-71774403D01*
X179977200Y-71774403D02*
X179929580Y-71822022D01*
X179024819Y-70869641D02*
X179024819Y-70250594D01*
X179024819Y-70250594D02*
X179405771Y-70583927D01*
X179405771Y-70583927D02*
X179405771Y-70441070D01*
X179405771Y-70441070D02*
X179453390Y-70345832D01*
X179453390Y-70345832D02*
X179501009Y-70298213D01*
X179501009Y-70298213D02*
X179596247Y-70250594D01*
X179596247Y-70250594D02*
X179834342Y-70250594D01*
X179834342Y-70250594D02*
X179929580Y-70298213D01*
X179929580Y-70298213D02*
X179977200Y-70345832D01*
X179977200Y-70345832D02*
X180024819Y-70441070D01*
X180024819Y-70441070D02*
X180024819Y-70726784D01*
X180024819Y-70726784D02*
X179977200Y-70822022D01*
X179977200Y-70822022D02*
X179929580Y-70869641D01*
X173524819Y-72801786D02*
X172524819Y-72801786D01*
X172524819Y-72801786D02*
X172524819Y-72563691D01*
X172524819Y-72563691D02*
X172572438Y-72420834D01*
X172572438Y-72420834D02*
X172667676Y-72325596D01*
X172667676Y-72325596D02*
X172762914Y-72277977D01*
X172762914Y-72277977D02*
X172953390Y-72230358D01*
X172953390Y-72230358D02*
X173096247Y-72230358D01*
X173096247Y-72230358D02*
X173286723Y-72277977D01*
X173286723Y-72277977D02*
X173381961Y-72325596D01*
X173381961Y-72325596D02*
X173477200Y-72420834D01*
X173477200Y-72420834D02*
X173524819Y-72563691D01*
X173524819Y-72563691D02*
X173524819Y-72801786D01*
X172524819Y-71325596D02*
X172524819Y-71801786D01*
X172524819Y-71801786D02*
X173001009Y-71849405D01*
X173001009Y-71849405D02*
X172953390Y-71801786D01*
X172953390Y-71801786D02*
X172905771Y-71706548D01*
X172905771Y-71706548D02*
X172905771Y-71468453D01*
X172905771Y-71468453D02*
X172953390Y-71373215D01*
X172953390Y-71373215D02*
X173001009Y-71325596D01*
X173001009Y-71325596D02*
X173096247Y-71277977D01*
X173096247Y-71277977D02*
X173334342Y-71277977D01*
X173334342Y-71277977D02*
X173429580Y-71325596D01*
X173429580Y-71325596D02*
X173477200Y-71373215D01*
X173477200Y-71373215D02*
X173524819Y-71468453D01*
X173524819Y-71468453D02*
X173524819Y-71706548D01*
X173524819Y-71706548D02*
X173477200Y-71801786D01*
X173477200Y-71801786D02*
X173429580Y-71849405D01*
X172524819Y-70944643D02*
X172524819Y-70277977D01*
X172524819Y-70277977D02*
X173524819Y-70706548D01*
X189984819Y-68542857D02*
X189508628Y-68876190D01*
X189984819Y-69114285D02*
X188984819Y-69114285D01*
X188984819Y-69114285D02*
X188984819Y-68733333D01*
X188984819Y-68733333D02*
X189032438Y-68638095D01*
X189032438Y-68638095D02*
X189080057Y-68590476D01*
X189080057Y-68590476D02*
X189175295Y-68542857D01*
X189175295Y-68542857D02*
X189318152Y-68542857D01*
X189318152Y-68542857D02*
X189413390Y-68590476D01*
X189413390Y-68590476D02*
X189461009Y-68638095D01*
X189461009Y-68638095D02*
X189508628Y-68733333D01*
X189508628Y-68733333D02*
X189508628Y-69114285D01*
X189984819Y-67590476D02*
X189984819Y-68161904D01*
X189984819Y-67876190D02*
X188984819Y-67876190D01*
X188984819Y-67876190D02*
X189127676Y-67971428D01*
X189127676Y-67971428D02*
X189222914Y-68066666D01*
X189222914Y-68066666D02*
X189270533Y-68161904D01*
X189984819Y-67114285D02*
X189984819Y-66923809D01*
X189984819Y-66923809D02*
X189937200Y-66828571D01*
X189937200Y-66828571D02*
X189889580Y-66780952D01*
X189889580Y-66780952D02*
X189746723Y-66685714D01*
X189746723Y-66685714D02*
X189556247Y-66638095D01*
X189556247Y-66638095D02*
X189175295Y-66638095D01*
X189175295Y-66638095D02*
X189080057Y-66685714D01*
X189080057Y-66685714D02*
X189032438Y-66733333D01*
X189032438Y-66733333D02*
X188984819Y-66828571D01*
X188984819Y-66828571D02*
X188984819Y-67019047D01*
X188984819Y-67019047D02*
X189032438Y-67114285D01*
X189032438Y-67114285D02*
X189080057Y-67161904D01*
X189080057Y-67161904D02*
X189175295Y-67209523D01*
X189175295Y-67209523D02*
X189413390Y-67209523D01*
X189413390Y-67209523D02*
X189508628Y-67161904D01*
X189508628Y-67161904D02*
X189556247Y-67114285D01*
X189556247Y-67114285D02*
X189603866Y-67019047D01*
X189603866Y-67019047D02*
X189603866Y-66828571D01*
X189603866Y-66828571D02*
X189556247Y-66733333D01*
X189556247Y-66733333D02*
X189508628Y-66685714D01*
X189508628Y-66685714D02*
X189413390Y-66638095D01*
X175824819Y-90326784D02*
X174824819Y-90326784D01*
X174824819Y-90326784D02*
X174824819Y-90088689D01*
X174824819Y-90088689D02*
X174872438Y-89945832D01*
X174872438Y-89945832D02*
X174967676Y-89850594D01*
X174967676Y-89850594D02*
X175062914Y-89802975D01*
X175062914Y-89802975D02*
X175253390Y-89755356D01*
X175253390Y-89755356D02*
X175396247Y-89755356D01*
X175396247Y-89755356D02*
X175586723Y-89802975D01*
X175586723Y-89802975D02*
X175681961Y-89850594D01*
X175681961Y-89850594D02*
X175777200Y-89945832D01*
X175777200Y-89945832D02*
X175824819Y-90088689D01*
X175824819Y-90088689D02*
X175824819Y-90326784D01*
X174824819Y-88850594D02*
X174824819Y-89326784D01*
X174824819Y-89326784D02*
X175301009Y-89374403D01*
X175301009Y-89374403D02*
X175253390Y-89326784D01*
X175253390Y-89326784D02*
X175205771Y-89231546D01*
X175205771Y-89231546D02*
X175205771Y-88993451D01*
X175205771Y-88993451D02*
X175253390Y-88898213D01*
X175253390Y-88898213D02*
X175301009Y-88850594D01*
X175301009Y-88850594D02*
X175396247Y-88802975D01*
X175396247Y-88802975D02*
X175634342Y-88802975D01*
X175634342Y-88802975D02*
X175729580Y-88850594D01*
X175729580Y-88850594D02*
X175777200Y-88898213D01*
X175777200Y-88898213D02*
X175824819Y-88993451D01*
X175824819Y-88993451D02*
X175824819Y-89231546D01*
X175824819Y-89231546D02*
X175777200Y-89326784D01*
X175777200Y-89326784D02*
X175729580Y-89374403D01*
X175158152Y-87945832D02*
X175824819Y-87945832D01*
X174777200Y-88183927D02*
X175491485Y-88422022D01*
X175491485Y-88422022D02*
X175491485Y-87802975D01*
X180124819Y-79726784D02*
X179124819Y-79726784D01*
X179124819Y-79726784D02*
X179124819Y-79488689D01*
X179124819Y-79488689D02*
X179172438Y-79345832D01*
X179172438Y-79345832D02*
X179267676Y-79250594D01*
X179267676Y-79250594D02*
X179362914Y-79202975D01*
X179362914Y-79202975D02*
X179553390Y-79155356D01*
X179553390Y-79155356D02*
X179696247Y-79155356D01*
X179696247Y-79155356D02*
X179886723Y-79202975D01*
X179886723Y-79202975D02*
X179981961Y-79250594D01*
X179981961Y-79250594D02*
X180077200Y-79345832D01*
X180077200Y-79345832D02*
X180124819Y-79488689D01*
X180124819Y-79488689D02*
X180124819Y-79726784D01*
X179124819Y-78822022D02*
X179124819Y-78202975D01*
X179124819Y-78202975D02*
X179505771Y-78536308D01*
X179505771Y-78536308D02*
X179505771Y-78393451D01*
X179505771Y-78393451D02*
X179553390Y-78298213D01*
X179553390Y-78298213D02*
X179601009Y-78250594D01*
X179601009Y-78250594D02*
X179696247Y-78202975D01*
X179696247Y-78202975D02*
X179934342Y-78202975D01*
X179934342Y-78202975D02*
X180029580Y-78250594D01*
X180029580Y-78250594D02*
X180077200Y-78298213D01*
X180077200Y-78298213D02*
X180124819Y-78393451D01*
X180124819Y-78393451D02*
X180124819Y-78679165D01*
X180124819Y-78679165D02*
X180077200Y-78774403D01*
X180077200Y-78774403D02*
X180029580Y-78822022D01*
X179124819Y-77298213D02*
X179124819Y-77774403D01*
X179124819Y-77774403D02*
X179601009Y-77822022D01*
X179601009Y-77822022D02*
X179553390Y-77774403D01*
X179553390Y-77774403D02*
X179505771Y-77679165D01*
X179505771Y-77679165D02*
X179505771Y-77441070D01*
X179505771Y-77441070D02*
X179553390Y-77345832D01*
X179553390Y-77345832D02*
X179601009Y-77298213D01*
X179601009Y-77298213D02*
X179696247Y-77250594D01*
X179696247Y-77250594D02*
X179934342Y-77250594D01*
X179934342Y-77250594D02*
X180029580Y-77298213D01*
X180029580Y-77298213D02*
X180077200Y-77345832D01*
X180077200Y-77345832D02*
X180124819Y-77441070D01*
X180124819Y-77441070D02*
X180124819Y-77679165D01*
X180124819Y-77679165D02*
X180077200Y-77774403D01*
X180077200Y-77774403D02*
X180029580Y-77822022D01*
X182824819Y-90426784D02*
X181824819Y-90426784D01*
X181824819Y-90426784D02*
X181824819Y-90188689D01*
X181824819Y-90188689D02*
X181872438Y-90045832D01*
X181872438Y-90045832D02*
X181967676Y-89950594D01*
X181967676Y-89950594D02*
X182062914Y-89902975D01*
X182062914Y-89902975D02*
X182253390Y-89855356D01*
X182253390Y-89855356D02*
X182396247Y-89855356D01*
X182396247Y-89855356D02*
X182586723Y-89902975D01*
X182586723Y-89902975D02*
X182681961Y-89950594D01*
X182681961Y-89950594D02*
X182777200Y-90045832D01*
X182777200Y-90045832D02*
X182824819Y-90188689D01*
X182824819Y-90188689D02*
X182824819Y-90426784D01*
X181824819Y-89522022D02*
X181824819Y-88902975D01*
X181824819Y-88902975D02*
X182205771Y-89236308D01*
X182205771Y-89236308D02*
X182205771Y-89093451D01*
X182205771Y-89093451D02*
X182253390Y-88998213D01*
X182253390Y-88998213D02*
X182301009Y-88950594D01*
X182301009Y-88950594D02*
X182396247Y-88902975D01*
X182396247Y-88902975D02*
X182634342Y-88902975D01*
X182634342Y-88902975D02*
X182729580Y-88950594D01*
X182729580Y-88950594D02*
X182777200Y-88998213D01*
X182777200Y-88998213D02*
X182824819Y-89093451D01*
X182824819Y-89093451D02*
X182824819Y-89379165D01*
X182824819Y-89379165D02*
X182777200Y-89474403D01*
X182777200Y-89474403D02*
X182729580Y-89522022D01*
X181824819Y-88283927D02*
X181824819Y-88188689D01*
X181824819Y-88188689D02*
X181872438Y-88093451D01*
X181872438Y-88093451D02*
X181920057Y-88045832D01*
X181920057Y-88045832D02*
X182015295Y-87998213D01*
X182015295Y-87998213D02*
X182205771Y-87950594D01*
X182205771Y-87950594D02*
X182443866Y-87950594D01*
X182443866Y-87950594D02*
X182634342Y-87998213D01*
X182634342Y-87998213D02*
X182729580Y-88045832D01*
X182729580Y-88045832D02*
X182777200Y-88093451D01*
X182777200Y-88093451D02*
X182824819Y-88188689D01*
X182824819Y-88188689D02*
X182824819Y-88283927D01*
X182824819Y-88283927D02*
X182777200Y-88379165D01*
X182777200Y-88379165D02*
X182729580Y-88426784D01*
X182729580Y-88426784D02*
X182634342Y-88474403D01*
X182634342Y-88474403D02*
X182443866Y-88522022D01*
X182443866Y-88522022D02*
X182205771Y-88522022D01*
X182205771Y-88522022D02*
X182015295Y-88474403D01*
X182015295Y-88474403D02*
X181920057Y-88426784D01*
X181920057Y-88426784D02*
X181872438Y-88379165D01*
X181872438Y-88379165D02*
X181824819Y-88283927D01*
X182724819Y-86826784D02*
X181724819Y-86826784D01*
X181724819Y-86826784D02*
X181724819Y-86588689D01*
X181724819Y-86588689D02*
X181772438Y-86445832D01*
X181772438Y-86445832D02*
X181867676Y-86350594D01*
X181867676Y-86350594D02*
X181962914Y-86302975D01*
X181962914Y-86302975D02*
X182153390Y-86255356D01*
X182153390Y-86255356D02*
X182296247Y-86255356D01*
X182296247Y-86255356D02*
X182486723Y-86302975D01*
X182486723Y-86302975D02*
X182581961Y-86350594D01*
X182581961Y-86350594D02*
X182677200Y-86445832D01*
X182677200Y-86445832D02*
X182724819Y-86588689D01*
X182724819Y-86588689D02*
X182724819Y-86826784D01*
X181820057Y-85874403D02*
X181772438Y-85826784D01*
X181772438Y-85826784D02*
X181724819Y-85731546D01*
X181724819Y-85731546D02*
X181724819Y-85493451D01*
X181724819Y-85493451D02*
X181772438Y-85398213D01*
X181772438Y-85398213D02*
X181820057Y-85350594D01*
X181820057Y-85350594D02*
X181915295Y-85302975D01*
X181915295Y-85302975D02*
X182010533Y-85302975D01*
X182010533Y-85302975D02*
X182153390Y-85350594D01*
X182153390Y-85350594D02*
X182724819Y-85922022D01*
X182724819Y-85922022D02*
X182724819Y-85302975D01*
X182724819Y-84826784D02*
X182724819Y-84636308D01*
X182724819Y-84636308D02*
X182677200Y-84541070D01*
X182677200Y-84541070D02*
X182629580Y-84493451D01*
X182629580Y-84493451D02*
X182486723Y-84398213D01*
X182486723Y-84398213D02*
X182296247Y-84350594D01*
X182296247Y-84350594D02*
X181915295Y-84350594D01*
X181915295Y-84350594D02*
X181820057Y-84398213D01*
X181820057Y-84398213D02*
X181772438Y-84445832D01*
X181772438Y-84445832D02*
X181724819Y-84541070D01*
X181724819Y-84541070D02*
X181724819Y-84731546D01*
X181724819Y-84731546D02*
X181772438Y-84826784D01*
X181772438Y-84826784D02*
X181820057Y-84874403D01*
X181820057Y-84874403D02*
X181915295Y-84922022D01*
X181915295Y-84922022D02*
X182153390Y-84922022D01*
X182153390Y-84922022D02*
X182248628Y-84874403D01*
X182248628Y-84874403D02*
X182296247Y-84826784D01*
X182296247Y-84826784D02*
X182343866Y-84731546D01*
X182343866Y-84731546D02*
X182343866Y-84541070D01*
X182343866Y-84541070D02*
X182296247Y-84445832D01*
X182296247Y-84445832D02*
X182248628Y-84398213D01*
X182248628Y-84398213D02*
X182153390Y-84350594D01*
X171458333Y-74284819D02*
X171125000Y-73808628D01*
X170886905Y-74284819D02*
X170886905Y-73284819D01*
X170886905Y-73284819D02*
X171267857Y-73284819D01*
X171267857Y-73284819D02*
X171363095Y-73332438D01*
X171363095Y-73332438D02*
X171410714Y-73380057D01*
X171410714Y-73380057D02*
X171458333Y-73475295D01*
X171458333Y-73475295D02*
X171458333Y-73618152D01*
X171458333Y-73618152D02*
X171410714Y-73713390D01*
X171410714Y-73713390D02*
X171363095Y-73761009D01*
X171363095Y-73761009D02*
X171267857Y-73808628D01*
X171267857Y-73808628D02*
X170886905Y-73808628D01*
X172410714Y-74284819D02*
X171839286Y-74284819D01*
X172125000Y-74284819D02*
X172125000Y-73284819D01*
X172125000Y-73284819D02*
X172029762Y-73427676D01*
X172029762Y-73427676D02*
X171934524Y-73522914D01*
X171934524Y-73522914D02*
X171839286Y-73570533D01*
X178124819Y-79626784D02*
X177124819Y-79626784D01*
X177124819Y-79626784D02*
X177124819Y-79388689D01*
X177124819Y-79388689D02*
X177172438Y-79245832D01*
X177172438Y-79245832D02*
X177267676Y-79150594D01*
X177267676Y-79150594D02*
X177362914Y-79102975D01*
X177362914Y-79102975D02*
X177553390Y-79055356D01*
X177553390Y-79055356D02*
X177696247Y-79055356D01*
X177696247Y-79055356D02*
X177886723Y-79102975D01*
X177886723Y-79102975D02*
X177981961Y-79150594D01*
X177981961Y-79150594D02*
X178077200Y-79245832D01*
X178077200Y-79245832D02*
X178124819Y-79388689D01*
X178124819Y-79388689D02*
X178124819Y-79626784D01*
X177458152Y-78198213D02*
X178124819Y-78198213D01*
X177077200Y-78436308D02*
X177791485Y-78674403D01*
X177791485Y-78674403D02*
X177791485Y-78055356D01*
X177124819Y-77769641D02*
X177124819Y-77150594D01*
X177124819Y-77150594D02*
X177505771Y-77483927D01*
X177505771Y-77483927D02*
X177505771Y-77341070D01*
X177505771Y-77341070D02*
X177553390Y-77245832D01*
X177553390Y-77245832D02*
X177601009Y-77198213D01*
X177601009Y-77198213D02*
X177696247Y-77150594D01*
X177696247Y-77150594D02*
X177934342Y-77150594D01*
X177934342Y-77150594D02*
X178029580Y-77198213D01*
X178029580Y-77198213D02*
X178077200Y-77245832D01*
X178077200Y-77245832D02*
X178124819Y-77341070D01*
X178124819Y-77341070D02*
X178124819Y-77626784D01*
X178124819Y-77626784D02*
X178077200Y-77722022D01*
X178077200Y-77722022D02*
X178029580Y-77769641D01*
X187484819Y-68567857D02*
X187008628Y-68901190D01*
X187484819Y-69139285D02*
X186484819Y-69139285D01*
X186484819Y-69139285D02*
X186484819Y-68758333D01*
X186484819Y-68758333D02*
X186532438Y-68663095D01*
X186532438Y-68663095D02*
X186580057Y-68615476D01*
X186580057Y-68615476D02*
X186675295Y-68567857D01*
X186675295Y-68567857D02*
X186818152Y-68567857D01*
X186818152Y-68567857D02*
X186913390Y-68615476D01*
X186913390Y-68615476D02*
X186961009Y-68663095D01*
X186961009Y-68663095D02*
X187008628Y-68758333D01*
X187008628Y-68758333D02*
X187008628Y-69139285D01*
X187484819Y-67615476D02*
X187484819Y-68186904D01*
X187484819Y-67901190D02*
X186484819Y-67901190D01*
X186484819Y-67901190D02*
X186627676Y-67996428D01*
X186627676Y-67996428D02*
X186722914Y-68091666D01*
X186722914Y-68091666D02*
X186770533Y-68186904D01*
X186913390Y-67044047D02*
X186865771Y-67139285D01*
X186865771Y-67139285D02*
X186818152Y-67186904D01*
X186818152Y-67186904D02*
X186722914Y-67234523D01*
X186722914Y-67234523D02*
X186675295Y-67234523D01*
X186675295Y-67234523D02*
X186580057Y-67186904D01*
X186580057Y-67186904D02*
X186532438Y-67139285D01*
X186532438Y-67139285D02*
X186484819Y-67044047D01*
X186484819Y-67044047D02*
X186484819Y-66853571D01*
X186484819Y-66853571D02*
X186532438Y-66758333D01*
X186532438Y-66758333D02*
X186580057Y-66710714D01*
X186580057Y-66710714D02*
X186675295Y-66663095D01*
X186675295Y-66663095D02*
X186722914Y-66663095D01*
X186722914Y-66663095D02*
X186818152Y-66710714D01*
X186818152Y-66710714D02*
X186865771Y-66758333D01*
X186865771Y-66758333D02*
X186913390Y-66853571D01*
X186913390Y-66853571D02*
X186913390Y-67044047D01*
X186913390Y-67044047D02*
X186961009Y-67139285D01*
X186961009Y-67139285D02*
X187008628Y-67186904D01*
X187008628Y-67186904D02*
X187103866Y-67234523D01*
X187103866Y-67234523D02*
X187294342Y-67234523D01*
X187294342Y-67234523D02*
X187389580Y-67186904D01*
X187389580Y-67186904D02*
X187437200Y-67139285D01*
X187437200Y-67139285D02*
X187484819Y-67044047D01*
X187484819Y-67044047D02*
X187484819Y-66853571D01*
X187484819Y-66853571D02*
X187437200Y-66758333D01*
X187437200Y-66758333D02*
X187389580Y-66710714D01*
X187389580Y-66710714D02*
X187294342Y-66663095D01*
X187294342Y-66663095D02*
X187103866Y-66663095D01*
X187103866Y-66663095D02*
X187008628Y-66710714D01*
X187008628Y-66710714D02*
X186961009Y-66758333D01*
X186961009Y-66758333D02*
X186913390Y-66853571D01*
X173824819Y-97726784D02*
X172824819Y-97726784D01*
X172824819Y-97726784D02*
X172824819Y-97488689D01*
X172824819Y-97488689D02*
X172872438Y-97345832D01*
X172872438Y-97345832D02*
X172967676Y-97250594D01*
X172967676Y-97250594D02*
X173062914Y-97202975D01*
X173062914Y-97202975D02*
X173253390Y-97155356D01*
X173253390Y-97155356D02*
X173396247Y-97155356D01*
X173396247Y-97155356D02*
X173586723Y-97202975D01*
X173586723Y-97202975D02*
X173681961Y-97250594D01*
X173681961Y-97250594D02*
X173777200Y-97345832D01*
X173777200Y-97345832D02*
X173824819Y-97488689D01*
X173824819Y-97488689D02*
X173824819Y-97726784D01*
X172824819Y-96298213D02*
X172824819Y-96488689D01*
X172824819Y-96488689D02*
X172872438Y-96583927D01*
X172872438Y-96583927D02*
X172920057Y-96631546D01*
X172920057Y-96631546D02*
X173062914Y-96726784D01*
X173062914Y-96726784D02*
X173253390Y-96774403D01*
X173253390Y-96774403D02*
X173634342Y-96774403D01*
X173634342Y-96774403D02*
X173729580Y-96726784D01*
X173729580Y-96726784D02*
X173777200Y-96679165D01*
X173777200Y-96679165D02*
X173824819Y-96583927D01*
X173824819Y-96583927D02*
X173824819Y-96393451D01*
X173824819Y-96393451D02*
X173777200Y-96298213D01*
X173777200Y-96298213D02*
X173729580Y-96250594D01*
X173729580Y-96250594D02*
X173634342Y-96202975D01*
X173634342Y-96202975D02*
X173396247Y-96202975D01*
X173396247Y-96202975D02*
X173301009Y-96250594D01*
X173301009Y-96250594D02*
X173253390Y-96298213D01*
X173253390Y-96298213D02*
X173205771Y-96393451D01*
X173205771Y-96393451D02*
X173205771Y-96583927D01*
X173205771Y-96583927D02*
X173253390Y-96679165D01*
X173253390Y-96679165D02*
X173301009Y-96726784D01*
X173301009Y-96726784D02*
X173396247Y-96774403D01*
X173158152Y-95345832D02*
X173824819Y-95345832D01*
X172777200Y-95583927D02*
X173491485Y-95822022D01*
X173491485Y-95822022D02*
X173491485Y-95202975D01*
X182524819Y-79726784D02*
X181524819Y-79726784D01*
X181524819Y-79726784D02*
X181524819Y-79488689D01*
X181524819Y-79488689D02*
X181572438Y-79345832D01*
X181572438Y-79345832D02*
X181667676Y-79250594D01*
X181667676Y-79250594D02*
X181762914Y-79202975D01*
X181762914Y-79202975D02*
X181953390Y-79155356D01*
X181953390Y-79155356D02*
X182096247Y-79155356D01*
X182096247Y-79155356D02*
X182286723Y-79202975D01*
X182286723Y-79202975D02*
X182381961Y-79250594D01*
X182381961Y-79250594D02*
X182477200Y-79345832D01*
X182477200Y-79345832D02*
X182524819Y-79488689D01*
X182524819Y-79488689D02*
X182524819Y-79726784D01*
X181620057Y-78774403D02*
X181572438Y-78726784D01*
X181572438Y-78726784D02*
X181524819Y-78631546D01*
X181524819Y-78631546D02*
X181524819Y-78393451D01*
X181524819Y-78393451D02*
X181572438Y-78298213D01*
X181572438Y-78298213D02*
X181620057Y-78250594D01*
X181620057Y-78250594D02*
X181715295Y-78202975D01*
X181715295Y-78202975D02*
X181810533Y-78202975D01*
X181810533Y-78202975D02*
X181953390Y-78250594D01*
X181953390Y-78250594D02*
X182524819Y-78822022D01*
X182524819Y-78822022D02*
X182524819Y-78202975D01*
X181524819Y-77869641D02*
X181524819Y-77202975D01*
X181524819Y-77202975D02*
X182524819Y-77631546D01*
X178584819Y-68617857D02*
X178108628Y-68951190D01*
X178584819Y-69189285D02*
X177584819Y-69189285D01*
X177584819Y-69189285D02*
X177584819Y-68808333D01*
X177584819Y-68808333D02*
X177632438Y-68713095D01*
X177632438Y-68713095D02*
X177680057Y-68665476D01*
X177680057Y-68665476D02*
X177775295Y-68617857D01*
X177775295Y-68617857D02*
X177918152Y-68617857D01*
X177918152Y-68617857D02*
X178013390Y-68665476D01*
X178013390Y-68665476D02*
X178061009Y-68713095D01*
X178061009Y-68713095D02*
X178108628Y-68808333D01*
X178108628Y-68808333D02*
X178108628Y-69189285D01*
X178584819Y-67665476D02*
X178584819Y-68236904D01*
X178584819Y-67951190D02*
X177584819Y-67951190D01*
X177584819Y-67951190D02*
X177727676Y-68046428D01*
X177727676Y-68046428D02*
X177822914Y-68141666D01*
X177822914Y-68141666D02*
X177870533Y-68236904D01*
X177918152Y-66808333D02*
X178584819Y-66808333D01*
X177537200Y-67046428D02*
X178251485Y-67284523D01*
X178251485Y-67284523D02*
X178251485Y-66665476D01*
X178224819Y-94026784D02*
X177224819Y-94026784D01*
X177224819Y-94026784D02*
X177224819Y-93788689D01*
X177224819Y-93788689D02*
X177272438Y-93645832D01*
X177272438Y-93645832D02*
X177367676Y-93550594D01*
X177367676Y-93550594D02*
X177462914Y-93502975D01*
X177462914Y-93502975D02*
X177653390Y-93455356D01*
X177653390Y-93455356D02*
X177796247Y-93455356D01*
X177796247Y-93455356D02*
X177986723Y-93502975D01*
X177986723Y-93502975D02*
X178081961Y-93550594D01*
X178081961Y-93550594D02*
X178177200Y-93645832D01*
X178177200Y-93645832D02*
X178224819Y-93788689D01*
X178224819Y-93788689D02*
X178224819Y-94026784D01*
X177558152Y-92598213D02*
X178224819Y-92598213D01*
X177177200Y-92836308D02*
X177891485Y-93074403D01*
X177891485Y-93074403D02*
X177891485Y-92455356D01*
X177224819Y-92169641D02*
X177224819Y-91502975D01*
X177224819Y-91502975D02*
X178224819Y-91931546D01*
X180024819Y-76114285D02*
X179024819Y-76114285D01*
X179024819Y-76114285D02*
X179024819Y-75876190D01*
X179024819Y-75876190D02*
X179072438Y-75733333D01*
X179072438Y-75733333D02*
X179167676Y-75638095D01*
X179167676Y-75638095D02*
X179262914Y-75590476D01*
X179262914Y-75590476D02*
X179453390Y-75542857D01*
X179453390Y-75542857D02*
X179596247Y-75542857D01*
X179596247Y-75542857D02*
X179786723Y-75590476D01*
X179786723Y-75590476D02*
X179881961Y-75638095D01*
X179881961Y-75638095D02*
X179977200Y-75733333D01*
X179977200Y-75733333D02*
X180024819Y-75876190D01*
X180024819Y-75876190D02*
X180024819Y-76114285D01*
X179024819Y-75209523D02*
X179024819Y-74590476D01*
X179024819Y-74590476D02*
X179405771Y-74923809D01*
X179405771Y-74923809D02*
X179405771Y-74780952D01*
X179405771Y-74780952D02*
X179453390Y-74685714D01*
X179453390Y-74685714D02*
X179501009Y-74638095D01*
X179501009Y-74638095D02*
X179596247Y-74590476D01*
X179596247Y-74590476D02*
X179834342Y-74590476D01*
X179834342Y-74590476D02*
X179929580Y-74638095D01*
X179929580Y-74638095D02*
X179977200Y-74685714D01*
X179977200Y-74685714D02*
X180024819Y-74780952D01*
X180024819Y-74780952D02*
X180024819Y-75066666D01*
X180024819Y-75066666D02*
X179977200Y-75161904D01*
X179977200Y-75161904D02*
X179929580Y-75209523D01*
X179358152Y-73733333D02*
X180024819Y-73733333D01*
X178977200Y-73971428D02*
X179691485Y-74209523D01*
X179691485Y-74209523D02*
X179691485Y-73590476D01*
X180984819Y-68542857D02*
X180508628Y-68876190D01*
X180984819Y-69114285D02*
X179984819Y-69114285D01*
X179984819Y-69114285D02*
X179984819Y-68733333D01*
X179984819Y-68733333D02*
X180032438Y-68638095D01*
X180032438Y-68638095D02*
X180080057Y-68590476D01*
X180080057Y-68590476D02*
X180175295Y-68542857D01*
X180175295Y-68542857D02*
X180318152Y-68542857D01*
X180318152Y-68542857D02*
X180413390Y-68590476D01*
X180413390Y-68590476D02*
X180461009Y-68638095D01*
X180461009Y-68638095D02*
X180508628Y-68733333D01*
X180508628Y-68733333D02*
X180508628Y-69114285D01*
X180984819Y-67590476D02*
X180984819Y-68161904D01*
X180984819Y-67876190D02*
X179984819Y-67876190D01*
X179984819Y-67876190D02*
X180127676Y-67971428D01*
X180127676Y-67971428D02*
X180222914Y-68066666D01*
X180222914Y-68066666D02*
X180270533Y-68161904D01*
X179984819Y-66685714D02*
X179984819Y-67161904D01*
X179984819Y-67161904D02*
X180461009Y-67209523D01*
X180461009Y-67209523D02*
X180413390Y-67161904D01*
X180413390Y-67161904D02*
X180365771Y-67066666D01*
X180365771Y-67066666D02*
X180365771Y-66828571D01*
X180365771Y-66828571D02*
X180413390Y-66733333D01*
X180413390Y-66733333D02*
X180461009Y-66685714D01*
X180461009Y-66685714D02*
X180556247Y-66638095D01*
X180556247Y-66638095D02*
X180794342Y-66638095D01*
X180794342Y-66638095D02*
X180889580Y-66685714D01*
X180889580Y-66685714D02*
X180937200Y-66733333D01*
X180937200Y-66733333D02*
X180984819Y-66828571D01*
X180984819Y-66828571D02*
X180984819Y-67066666D01*
X180984819Y-67066666D02*
X180937200Y-67161904D01*
X180937200Y-67161904D02*
X180889580Y-67209523D01*
X187124819Y-79801786D02*
X186124819Y-79801786D01*
X186124819Y-79801786D02*
X186124819Y-79563691D01*
X186124819Y-79563691D02*
X186172438Y-79420834D01*
X186172438Y-79420834D02*
X186267676Y-79325596D01*
X186267676Y-79325596D02*
X186362914Y-79277977D01*
X186362914Y-79277977D02*
X186553390Y-79230358D01*
X186553390Y-79230358D02*
X186696247Y-79230358D01*
X186696247Y-79230358D02*
X186886723Y-79277977D01*
X186886723Y-79277977D02*
X186981961Y-79325596D01*
X186981961Y-79325596D02*
X187077200Y-79420834D01*
X187077200Y-79420834D02*
X187124819Y-79563691D01*
X187124819Y-79563691D02*
X187124819Y-79801786D01*
X187124819Y-78277977D02*
X187124819Y-78849405D01*
X187124819Y-78563691D02*
X186124819Y-78563691D01*
X186124819Y-78563691D02*
X186267676Y-78658929D01*
X186267676Y-78658929D02*
X186362914Y-78754167D01*
X186362914Y-78754167D02*
X186410533Y-78849405D01*
X187124819Y-77325596D02*
X187124819Y-77897024D01*
X187124819Y-77611310D02*
X186124819Y-77611310D01*
X186124819Y-77611310D02*
X186267676Y-77706548D01*
X186267676Y-77706548D02*
X186362914Y-77801786D01*
X186362914Y-77801786D02*
X186410533Y-77897024D01*
X187224819Y-97914285D02*
X186224819Y-97914285D01*
X186224819Y-97914285D02*
X186224819Y-97676190D01*
X186224819Y-97676190D02*
X186272438Y-97533333D01*
X186272438Y-97533333D02*
X186367676Y-97438095D01*
X186367676Y-97438095D02*
X186462914Y-97390476D01*
X186462914Y-97390476D02*
X186653390Y-97342857D01*
X186653390Y-97342857D02*
X186796247Y-97342857D01*
X186796247Y-97342857D02*
X186986723Y-97390476D01*
X186986723Y-97390476D02*
X187081961Y-97438095D01*
X187081961Y-97438095D02*
X187177200Y-97533333D01*
X187177200Y-97533333D02*
X187224819Y-97676190D01*
X187224819Y-97676190D02*
X187224819Y-97914285D01*
X187224819Y-96390476D02*
X187224819Y-96961904D01*
X187224819Y-96676190D02*
X186224819Y-96676190D01*
X186224819Y-96676190D02*
X186367676Y-96771428D01*
X186367676Y-96771428D02*
X186462914Y-96866666D01*
X186462914Y-96866666D02*
X186510533Y-96961904D01*
X186224819Y-95533333D02*
X186224819Y-95723809D01*
X186224819Y-95723809D02*
X186272438Y-95819047D01*
X186272438Y-95819047D02*
X186320057Y-95866666D01*
X186320057Y-95866666D02*
X186462914Y-95961904D01*
X186462914Y-95961904D02*
X186653390Y-96009523D01*
X186653390Y-96009523D02*
X187034342Y-96009523D01*
X187034342Y-96009523D02*
X187129580Y-95961904D01*
X187129580Y-95961904D02*
X187177200Y-95914285D01*
X187177200Y-95914285D02*
X187224819Y-95819047D01*
X187224819Y-95819047D02*
X187224819Y-95628571D01*
X187224819Y-95628571D02*
X187177200Y-95533333D01*
X187177200Y-95533333D02*
X187129580Y-95485714D01*
X187129580Y-95485714D02*
X187034342Y-95438095D01*
X187034342Y-95438095D02*
X186796247Y-95438095D01*
X186796247Y-95438095D02*
X186701009Y-95485714D01*
X186701009Y-95485714D02*
X186653390Y-95533333D01*
X186653390Y-95533333D02*
X186605771Y-95628571D01*
X186605771Y-95628571D02*
X186605771Y-95819047D01*
X186605771Y-95819047D02*
X186653390Y-95914285D01*
X186653390Y-95914285D02*
X186701009Y-95961904D01*
X186701009Y-95961904D02*
X186796247Y-96009523D01*
X187224819Y-90426784D02*
X186224819Y-90426784D01*
X186224819Y-90426784D02*
X186224819Y-90188689D01*
X186224819Y-90188689D02*
X186272438Y-90045832D01*
X186272438Y-90045832D02*
X186367676Y-89950594D01*
X186367676Y-89950594D02*
X186462914Y-89902975D01*
X186462914Y-89902975D02*
X186653390Y-89855356D01*
X186653390Y-89855356D02*
X186796247Y-89855356D01*
X186796247Y-89855356D02*
X186986723Y-89902975D01*
X186986723Y-89902975D02*
X187081961Y-89950594D01*
X187081961Y-89950594D02*
X187177200Y-90045832D01*
X187177200Y-90045832D02*
X187224819Y-90188689D01*
X187224819Y-90188689D02*
X187224819Y-90426784D01*
X187224819Y-88902975D02*
X187224819Y-89474403D01*
X187224819Y-89188689D02*
X186224819Y-89188689D01*
X186224819Y-89188689D02*
X186367676Y-89283927D01*
X186367676Y-89283927D02*
X186462914Y-89379165D01*
X186462914Y-89379165D02*
X186510533Y-89474403D01*
X186558152Y-88045832D02*
X187224819Y-88045832D01*
X186177200Y-88283927D02*
X186891485Y-88522022D01*
X186891485Y-88522022D02*
X186891485Y-87902975D01*
X189524819Y-97450593D02*
X188524819Y-97450593D01*
X188524819Y-97450593D02*
X188524819Y-97212498D01*
X188524819Y-97212498D02*
X188572438Y-97069641D01*
X188572438Y-97069641D02*
X188667676Y-96974403D01*
X188667676Y-96974403D02*
X188762914Y-96926784D01*
X188762914Y-96926784D02*
X188953390Y-96879165D01*
X188953390Y-96879165D02*
X189096247Y-96879165D01*
X189096247Y-96879165D02*
X189286723Y-96926784D01*
X189286723Y-96926784D02*
X189381961Y-96974403D01*
X189381961Y-96974403D02*
X189477200Y-97069641D01*
X189477200Y-97069641D02*
X189524819Y-97212498D01*
X189524819Y-97212498D02*
X189524819Y-97450593D01*
X188953390Y-96307736D02*
X188905771Y-96402974D01*
X188905771Y-96402974D02*
X188858152Y-96450593D01*
X188858152Y-96450593D02*
X188762914Y-96498212D01*
X188762914Y-96498212D02*
X188715295Y-96498212D01*
X188715295Y-96498212D02*
X188620057Y-96450593D01*
X188620057Y-96450593D02*
X188572438Y-96402974D01*
X188572438Y-96402974D02*
X188524819Y-96307736D01*
X188524819Y-96307736D02*
X188524819Y-96117260D01*
X188524819Y-96117260D02*
X188572438Y-96022022D01*
X188572438Y-96022022D02*
X188620057Y-95974403D01*
X188620057Y-95974403D02*
X188715295Y-95926784D01*
X188715295Y-95926784D02*
X188762914Y-95926784D01*
X188762914Y-95926784D02*
X188858152Y-95974403D01*
X188858152Y-95974403D02*
X188905771Y-96022022D01*
X188905771Y-96022022D02*
X188953390Y-96117260D01*
X188953390Y-96117260D02*
X188953390Y-96307736D01*
X188953390Y-96307736D02*
X189001009Y-96402974D01*
X189001009Y-96402974D02*
X189048628Y-96450593D01*
X189048628Y-96450593D02*
X189143866Y-96498212D01*
X189143866Y-96498212D02*
X189334342Y-96498212D01*
X189334342Y-96498212D02*
X189429580Y-96450593D01*
X189429580Y-96450593D02*
X189477200Y-96402974D01*
X189477200Y-96402974D02*
X189524819Y-96307736D01*
X189524819Y-96307736D02*
X189524819Y-96117260D01*
X189524819Y-96117260D02*
X189477200Y-96022022D01*
X189477200Y-96022022D02*
X189429580Y-95974403D01*
X189429580Y-95974403D02*
X189334342Y-95926784D01*
X189334342Y-95926784D02*
X189143866Y-95926784D01*
X189143866Y-95926784D02*
X189048628Y-95974403D01*
X189048628Y-95974403D02*
X189001009Y-96022022D01*
X189001009Y-96022022D02*
X188953390Y-96117260D01*
X187024819Y-72350593D02*
X186024819Y-72350593D01*
X186024819Y-72350593D02*
X186024819Y-72112498D01*
X186024819Y-72112498D02*
X186072438Y-71969641D01*
X186072438Y-71969641D02*
X186167676Y-71874403D01*
X186167676Y-71874403D02*
X186262914Y-71826784D01*
X186262914Y-71826784D02*
X186453390Y-71779165D01*
X186453390Y-71779165D02*
X186596247Y-71779165D01*
X186596247Y-71779165D02*
X186786723Y-71826784D01*
X186786723Y-71826784D02*
X186881961Y-71874403D01*
X186881961Y-71874403D02*
X186977200Y-71969641D01*
X186977200Y-71969641D02*
X187024819Y-72112498D01*
X187024819Y-72112498D02*
X187024819Y-72350593D01*
X187024819Y-71302974D02*
X187024819Y-71112498D01*
X187024819Y-71112498D02*
X186977200Y-71017260D01*
X186977200Y-71017260D02*
X186929580Y-70969641D01*
X186929580Y-70969641D02*
X186786723Y-70874403D01*
X186786723Y-70874403D02*
X186596247Y-70826784D01*
X186596247Y-70826784D02*
X186215295Y-70826784D01*
X186215295Y-70826784D02*
X186120057Y-70874403D01*
X186120057Y-70874403D02*
X186072438Y-70922022D01*
X186072438Y-70922022D02*
X186024819Y-71017260D01*
X186024819Y-71017260D02*
X186024819Y-71207736D01*
X186024819Y-71207736D02*
X186072438Y-71302974D01*
X186072438Y-71302974D02*
X186120057Y-71350593D01*
X186120057Y-71350593D02*
X186215295Y-71398212D01*
X186215295Y-71398212D02*
X186453390Y-71398212D01*
X186453390Y-71398212D02*
X186548628Y-71350593D01*
X186548628Y-71350593D02*
X186596247Y-71302974D01*
X186596247Y-71302974D02*
X186643866Y-71207736D01*
X186643866Y-71207736D02*
X186643866Y-71017260D01*
X186643866Y-71017260D02*
X186596247Y-70922022D01*
X186596247Y-70922022D02*
X186548628Y-70874403D01*
X186548628Y-70874403D02*
X186453390Y-70826784D01*
X189524819Y-75838094D02*
X188524819Y-75838094D01*
X188524819Y-75838094D02*
X188524819Y-75599999D01*
X188524819Y-75599999D02*
X188572438Y-75457142D01*
X188572438Y-75457142D02*
X188667676Y-75361904D01*
X188667676Y-75361904D02*
X188762914Y-75314285D01*
X188762914Y-75314285D02*
X188953390Y-75266666D01*
X188953390Y-75266666D02*
X189096247Y-75266666D01*
X189096247Y-75266666D02*
X189286723Y-75314285D01*
X189286723Y-75314285D02*
X189381961Y-75361904D01*
X189381961Y-75361904D02*
X189477200Y-75457142D01*
X189477200Y-75457142D02*
X189524819Y-75599999D01*
X189524819Y-75599999D02*
X189524819Y-75838094D01*
X188620057Y-74885713D02*
X188572438Y-74838094D01*
X188572438Y-74838094D02*
X188524819Y-74742856D01*
X188524819Y-74742856D02*
X188524819Y-74504761D01*
X188524819Y-74504761D02*
X188572438Y-74409523D01*
X188572438Y-74409523D02*
X188620057Y-74361904D01*
X188620057Y-74361904D02*
X188715295Y-74314285D01*
X188715295Y-74314285D02*
X188810533Y-74314285D01*
X188810533Y-74314285D02*
X188953390Y-74361904D01*
X188953390Y-74361904D02*
X189524819Y-74933332D01*
X189524819Y-74933332D02*
X189524819Y-74314285D01*
X175824819Y-83226784D02*
X174824819Y-83226784D01*
X174824819Y-83226784D02*
X174824819Y-82988689D01*
X174824819Y-82988689D02*
X174872438Y-82845832D01*
X174872438Y-82845832D02*
X174967676Y-82750594D01*
X174967676Y-82750594D02*
X175062914Y-82702975D01*
X175062914Y-82702975D02*
X175253390Y-82655356D01*
X175253390Y-82655356D02*
X175396247Y-82655356D01*
X175396247Y-82655356D02*
X175586723Y-82702975D01*
X175586723Y-82702975D02*
X175681961Y-82750594D01*
X175681961Y-82750594D02*
X175777200Y-82845832D01*
X175777200Y-82845832D02*
X175824819Y-82988689D01*
X175824819Y-82988689D02*
X175824819Y-83226784D01*
X174824819Y-81750594D02*
X174824819Y-82226784D01*
X174824819Y-82226784D02*
X175301009Y-82274403D01*
X175301009Y-82274403D02*
X175253390Y-82226784D01*
X175253390Y-82226784D02*
X175205771Y-82131546D01*
X175205771Y-82131546D02*
X175205771Y-81893451D01*
X175205771Y-81893451D02*
X175253390Y-81798213D01*
X175253390Y-81798213D02*
X175301009Y-81750594D01*
X175301009Y-81750594D02*
X175396247Y-81702975D01*
X175396247Y-81702975D02*
X175634342Y-81702975D01*
X175634342Y-81702975D02*
X175729580Y-81750594D01*
X175729580Y-81750594D02*
X175777200Y-81798213D01*
X175777200Y-81798213D02*
X175824819Y-81893451D01*
X175824819Y-81893451D02*
X175824819Y-82131546D01*
X175824819Y-82131546D02*
X175777200Y-82226784D01*
X175777200Y-82226784D02*
X175729580Y-82274403D01*
X174920057Y-81322022D02*
X174872438Y-81274403D01*
X174872438Y-81274403D02*
X174824819Y-81179165D01*
X174824819Y-81179165D02*
X174824819Y-80941070D01*
X174824819Y-80941070D02*
X174872438Y-80845832D01*
X174872438Y-80845832D02*
X174920057Y-80798213D01*
X174920057Y-80798213D02*
X175015295Y-80750594D01*
X175015295Y-80750594D02*
X175110533Y-80750594D01*
X175110533Y-80750594D02*
X175253390Y-80798213D01*
X175253390Y-80798213D02*
X175824819Y-81369641D01*
X175824819Y-81369641D02*
X175824819Y-80750594D01*
X180224819Y-90426784D02*
X179224819Y-90426784D01*
X179224819Y-90426784D02*
X179224819Y-90188689D01*
X179224819Y-90188689D02*
X179272438Y-90045832D01*
X179272438Y-90045832D02*
X179367676Y-89950594D01*
X179367676Y-89950594D02*
X179462914Y-89902975D01*
X179462914Y-89902975D02*
X179653390Y-89855356D01*
X179653390Y-89855356D02*
X179796247Y-89855356D01*
X179796247Y-89855356D02*
X179986723Y-89902975D01*
X179986723Y-89902975D02*
X180081961Y-89950594D01*
X180081961Y-89950594D02*
X180177200Y-90045832D01*
X180177200Y-90045832D02*
X180224819Y-90188689D01*
X180224819Y-90188689D02*
X180224819Y-90426784D01*
X179224819Y-89522022D02*
X179224819Y-88902975D01*
X179224819Y-88902975D02*
X179605771Y-89236308D01*
X179605771Y-89236308D02*
X179605771Y-89093451D01*
X179605771Y-89093451D02*
X179653390Y-88998213D01*
X179653390Y-88998213D02*
X179701009Y-88950594D01*
X179701009Y-88950594D02*
X179796247Y-88902975D01*
X179796247Y-88902975D02*
X180034342Y-88902975D01*
X180034342Y-88902975D02*
X180129580Y-88950594D01*
X180129580Y-88950594D02*
X180177200Y-88998213D01*
X180177200Y-88998213D02*
X180224819Y-89093451D01*
X180224819Y-89093451D02*
X180224819Y-89379165D01*
X180224819Y-89379165D02*
X180177200Y-89474403D01*
X180177200Y-89474403D02*
X180129580Y-89522022D01*
X179653390Y-88331546D02*
X179605771Y-88426784D01*
X179605771Y-88426784D02*
X179558152Y-88474403D01*
X179558152Y-88474403D02*
X179462914Y-88522022D01*
X179462914Y-88522022D02*
X179415295Y-88522022D01*
X179415295Y-88522022D02*
X179320057Y-88474403D01*
X179320057Y-88474403D02*
X179272438Y-88426784D01*
X179272438Y-88426784D02*
X179224819Y-88331546D01*
X179224819Y-88331546D02*
X179224819Y-88141070D01*
X179224819Y-88141070D02*
X179272438Y-88045832D01*
X179272438Y-88045832D02*
X179320057Y-87998213D01*
X179320057Y-87998213D02*
X179415295Y-87950594D01*
X179415295Y-87950594D02*
X179462914Y-87950594D01*
X179462914Y-87950594D02*
X179558152Y-87998213D01*
X179558152Y-87998213D02*
X179605771Y-88045832D01*
X179605771Y-88045832D02*
X179653390Y-88141070D01*
X179653390Y-88141070D02*
X179653390Y-88331546D01*
X179653390Y-88331546D02*
X179701009Y-88426784D01*
X179701009Y-88426784D02*
X179748628Y-88474403D01*
X179748628Y-88474403D02*
X179843866Y-88522022D01*
X179843866Y-88522022D02*
X180034342Y-88522022D01*
X180034342Y-88522022D02*
X180129580Y-88474403D01*
X180129580Y-88474403D02*
X180177200Y-88426784D01*
X180177200Y-88426784D02*
X180224819Y-88331546D01*
X180224819Y-88331546D02*
X180224819Y-88141070D01*
X180224819Y-88141070D02*
X180177200Y-88045832D01*
X180177200Y-88045832D02*
X180129580Y-87998213D01*
X180129580Y-87998213D02*
X180034342Y-87950594D01*
X180034342Y-87950594D02*
X179843866Y-87950594D01*
X179843866Y-87950594D02*
X179748628Y-87998213D01*
X179748628Y-87998213D02*
X179701009Y-88045832D01*
X179701009Y-88045832D02*
X179653390Y-88141070D01*
X175824819Y-97701786D02*
X174824819Y-97701786D01*
X174824819Y-97701786D02*
X174824819Y-97463691D01*
X174824819Y-97463691D02*
X174872438Y-97320834D01*
X174872438Y-97320834D02*
X174967676Y-97225596D01*
X174967676Y-97225596D02*
X175062914Y-97177977D01*
X175062914Y-97177977D02*
X175253390Y-97130358D01*
X175253390Y-97130358D02*
X175396247Y-97130358D01*
X175396247Y-97130358D02*
X175586723Y-97177977D01*
X175586723Y-97177977D02*
X175681961Y-97225596D01*
X175681961Y-97225596D02*
X175777200Y-97320834D01*
X175777200Y-97320834D02*
X175824819Y-97463691D01*
X175824819Y-97463691D02*
X175824819Y-97701786D01*
X174824819Y-96225596D02*
X174824819Y-96701786D01*
X174824819Y-96701786D02*
X175301009Y-96749405D01*
X175301009Y-96749405D02*
X175253390Y-96701786D01*
X175253390Y-96701786D02*
X175205771Y-96606548D01*
X175205771Y-96606548D02*
X175205771Y-96368453D01*
X175205771Y-96368453D02*
X175253390Y-96273215D01*
X175253390Y-96273215D02*
X175301009Y-96225596D01*
X175301009Y-96225596D02*
X175396247Y-96177977D01*
X175396247Y-96177977D02*
X175634342Y-96177977D01*
X175634342Y-96177977D02*
X175729580Y-96225596D01*
X175729580Y-96225596D02*
X175777200Y-96273215D01*
X175777200Y-96273215D02*
X175824819Y-96368453D01*
X175824819Y-96368453D02*
X175824819Y-96606548D01*
X175824819Y-96606548D02*
X175777200Y-96701786D01*
X175777200Y-96701786D02*
X175729580Y-96749405D01*
X174824819Y-95320834D02*
X174824819Y-95511310D01*
X174824819Y-95511310D02*
X174872438Y-95606548D01*
X174872438Y-95606548D02*
X174920057Y-95654167D01*
X174920057Y-95654167D02*
X175062914Y-95749405D01*
X175062914Y-95749405D02*
X175253390Y-95797024D01*
X175253390Y-95797024D02*
X175634342Y-95797024D01*
X175634342Y-95797024D02*
X175729580Y-95749405D01*
X175729580Y-95749405D02*
X175777200Y-95701786D01*
X175777200Y-95701786D02*
X175824819Y-95606548D01*
X175824819Y-95606548D02*
X175824819Y-95416072D01*
X175824819Y-95416072D02*
X175777200Y-95320834D01*
X175777200Y-95320834D02*
X175729580Y-95273215D01*
X175729580Y-95273215D02*
X175634342Y-95225596D01*
X175634342Y-95225596D02*
X175396247Y-95225596D01*
X175396247Y-95225596D02*
X175301009Y-95273215D01*
X175301009Y-95273215D02*
X175253390Y-95320834D01*
X175253390Y-95320834D02*
X175205771Y-95416072D01*
X175205771Y-95416072D02*
X175205771Y-95606548D01*
X175205771Y-95606548D02*
X175253390Y-95701786D01*
X175253390Y-95701786D02*
X175301009Y-95749405D01*
X175301009Y-95749405D02*
X175396247Y-95797024D01*
X177924819Y-72826784D02*
X176924819Y-72826784D01*
X176924819Y-72826784D02*
X176924819Y-72588689D01*
X176924819Y-72588689D02*
X176972438Y-72445832D01*
X176972438Y-72445832D02*
X177067676Y-72350594D01*
X177067676Y-72350594D02*
X177162914Y-72302975D01*
X177162914Y-72302975D02*
X177353390Y-72255356D01*
X177353390Y-72255356D02*
X177496247Y-72255356D01*
X177496247Y-72255356D02*
X177686723Y-72302975D01*
X177686723Y-72302975D02*
X177781961Y-72350594D01*
X177781961Y-72350594D02*
X177877200Y-72445832D01*
X177877200Y-72445832D02*
X177924819Y-72588689D01*
X177924819Y-72588689D02*
X177924819Y-72826784D01*
X177258152Y-71398213D02*
X177924819Y-71398213D01*
X176877200Y-71636308D02*
X177591485Y-71874403D01*
X177591485Y-71874403D02*
X177591485Y-71255356D01*
X177924819Y-70350594D02*
X177924819Y-70922022D01*
X177924819Y-70636308D02*
X176924819Y-70636308D01*
X176924819Y-70636308D02*
X177067676Y-70731546D01*
X177067676Y-70731546D02*
X177162914Y-70826784D01*
X177162914Y-70826784D02*
X177210533Y-70922022D01*
X175824819Y-86701786D02*
X174824819Y-86701786D01*
X174824819Y-86701786D02*
X174824819Y-86463691D01*
X174824819Y-86463691D02*
X174872438Y-86320834D01*
X174872438Y-86320834D02*
X174967676Y-86225596D01*
X174967676Y-86225596D02*
X175062914Y-86177977D01*
X175062914Y-86177977D02*
X175253390Y-86130358D01*
X175253390Y-86130358D02*
X175396247Y-86130358D01*
X175396247Y-86130358D02*
X175586723Y-86177977D01*
X175586723Y-86177977D02*
X175681961Y-86225596D01*
X175681961Y-86225596D02*
X175777200Y-86320834D01*
X175777200Y-86320834D02*
X175824819Y-86463691D01*
X175824819Y-86463691D02*
X175824819Y-86701786D01*
X174824819Y-85225596D02*
X174824819Y-85701786D01*
X174824819Y-85701786D02*
X175301009Y-85749405D01*
X175301009Y-85749405D02*
X175253390Y-85701786D01*
X175253390Y-85701786D02*
X175205771Y-85606548D01*
X175205771Y-85606548D02*
X175205771Y-85368453D01*
X175205771Y-85368453D02*
X175253390Y-85273215D01*
X175253390Y-85273215D02*
X175301009Y-85225596D01*
X175301009Y-85225596D02*
X175396247Y-85177977D01*
X175396247Y-85177977D02*
X175634342Y-85177977D01*
X175634342Y-85177977D02*
X175729580Y-85225596D01*
X175729580Y-85225596D02*
X175777200Y-85273215D01*
X175777200Y-85273215D02*
X175824819Y-85368453D01*
X175824819Y-85368453D02*
X175824819Y-85606548D01*
X175824819Y-85606548D02*
X175777200Y-85701786D01*
X175777200Y-85701786D02*
X175729580Y-85749405D01*
X174824819Y-84844643D02*
X174824819Y-84225596D01*
X174824819Y-84225596D02*
X175205771Y-84558929D01*
X175205771Y-84558929D02*
X175205771Y-84416072D01*
X175205771Y-84416072D02*
X175253390Y-84320834D01*
X175253390Y-84320834D02*
X175301009Y-84273215D01*
X175301009Y-84273215D02*
X175396247Y-84225596D01*
X175396247Y-84225596D02*
X175634342Y-84225596D01*
X175634342Y-84225596D02*
X175729580Y-84273215D01*
X175729580Y-84273215D02*
X175777200Y-84320834D01*
X175777200Y-84320834D02*
X175824819Y-84416072D01*
X175824819Y-84416072D02*
X175824819Y-84701786D01*
X175824819Y-84701786D02*
X175777200Y-84797024D01*
X175777200Y-84797024D02*
X175729580Y-84844643D01*
X171508333Y-81184819D02*
X171175000Y-80708628D01*
X170936905Y-81184819D02*
X170936905Y-80184819D01*
X170936905Y-80184819D02*
X171317857Y-80184819D01*
X171317857Y-80184819D02*
X171413095Y-80232438D01*
X171413095Y-80232438D02*
X171460714Y-80280057D01*
X171460714Y-80280057D02*
X171508333Y-80375295D01*
X171508333Y-80375295D02*
X171508333Y-80518152D01*
X171508333Y-80518152D02*
X171460714Y-80613390D01*
X171460714Y-80613390D02*
X171413095Y-80661009D01*
X171413095Y-80661009D02*
X171317857Y-80708628D01*
X171317857Y-80708628D02*
X170936905Y-80708628D01*
X171841667Y-80184819D02*
X172460714Y-80184819D01*
X172460714Y-80184819D02*
X172127381Y-80565771D01*
X172127381Y-80565771D02*
X172270238Y-80565771D01*
X172270238Y-80565771D02*
X172365476Y-80613390D01*
X172365476Y-80613390D02*
X172413095Y-80661009D01*
X172413095Y-80661009D02*
X172460714Y-80756247D01*
X172460714Y-80756247D02*
X172460714Y-80994342D01*
X172460714Y-80994342D02*
X172413095Y-81089580D01*
X172413095Y-81089580D02*
X172365476Y-81137200D01*
X172365476Y-81137200D02*
X172270238Y-81184819D01*
X172270238Y-81184819D02*
X171984524Y-81184819D01*
X171984524Y-81184819D02*
X171889286Y-81137200D01*
X171889286Y-81137200D02*
X171841667Y-81089580D01*
X180324819Y-94126784D02*
X179324819Y-94126784D01*
X179324819Y-94126784D02*
X179324819Y-93888689D01*
X179324819Y-93888689D02*
X179372438Y-93745832D01*
X179372438Y-93745832D02*
X179467676Y-93650594D01*
X179467676Y-93650594D02*
X179562914Y-93602975D01*
X179562914Y-93602975D02*
X179753390Y-93555356D01*
X179753390Y-93555356D02*
X179896247Y-93555356D01*
X179896247Y-93555356D02*
X180086723Y-93602975D01*
X180086723Y-93602975D02*
X180181961Y-93650594D01*
X180181961Y-93650594D02*
X180277200Y-93745832D01*
X180277200Y-93745832D02*
X180324819Y-93888689D01*
X180324819Y-93888689D02*
X180324819Y-94126784D01*
X179324819Y-93222022D02*
X179324819Y-92602975D01*
X179324819Y-92602975D02*
X179705771Y-92936308D01*
X179705771Y-92936308D02*
X179705771Y-92793451D01*
X179705771Y-92793451D02*
X179753390Y-92698213D01*
X179753390Y-92698213D02*
X179801009Y-92650594D01*
X179801009Y-92650594D02*
X179896247Y-92602975D01*
X179896247Y-92602975D02*
X180134342Y-92602975D01*
X180134342Y-92602975D02*
X180229580Y-92650594D01*
X180229580Y-92650594D02*
X180277200Y-92698213D01*
X180277200Y-92698213D02*
X180324819Y-92793451D01*
X180324819Y-92793451D02*
X180324819Y-93079165D01*
X180324819Y-93079165D02*
X180277200Y-93174403D01*
X180277200Y-93174403D02*
X180229580Y-93222022D01*
X180324819Y-92126784D02*
X180324819Y-91936308D01*
X180324819Y-91936308D02*
X180277200Y-91841070D01*
X180277200Y-91841070D02*
X180229580Y-91793451D01*
X180229580Y-91793451D02*
X180086723Y-91698213D01*
X180086723Y-91698213D02*
X179896247Y-91650594D01*
X179896247Y-91650594D02*
X179515295Y-91650594D01*
X179515295Y-91650594D02*
X179420057Y-91698213D01*
X179420057Y-91698213D02*
X179372438Y-91745832D01*
X179372438Y-91745832D02*
X179324819Y-91841070D01*
X179324819Y-91841070D02*
X179324819Y-92031546D01*
X179324819Y-92031546D02*
X179372438Y-92126784D01*
X179372438Y-92126784D02*
X179420057Y-92174403D01*
X179420057Y-92174403D02*
X179515295Y-92222022D01*
X179515295Y-92222022D02*
X179753390Y-92222022D01*
X179753390Y-92222022D02*
X179848628Y-92174403D01*
X179848628Y-92174403D02*
X179896247Y-92126784D01*
X179896247Y-92126784D02*
X179943866Y-92031546D01*
X179943866Y-92031546D02*
X179943866Y-91841070D01*
X179943866Y-91841070D02*
X179896247Y-91745832D01*
X179896247Y-91745832D02*
X179848628Y-91698213D01*
X179848628Y-91698213D02*
X179753390Y-91650594D01*
X176284819Y-68667857D02*
X175808628Y-69001190D01*
X176284819Y-69239285D02*
X175284819Y-69239285D01*
X175284819Y-69239285D02*
X175284819Y-68858333D01*
X175284819Y-68858333D02*
X175332438Y-68763095D01*
X175332438Y-68763095D02*
X175380057Y-68715476D01*
X175380057Y-68715476D02*
X175475295Y-68667857D01*
X175475295Y-68667857D02*
X175618152Y-68667857D01*
X175618152Y-68667857D02*
X175713390Y-68715476D01*
X175713390Y-68715476D02*
X175761009Y-68763095D01*
X175761009Y-68763095D02*
X175808628Y-68858333D01*
X175808628Y-68858333D02*
X175808628Y-69239285D01*
X176284819Y-67715476D02*
X176284819Y-68286904D01*
X176284819Y-68001190D02*
X175284819Y-68001190D01*
X175284819Y-68001190D02*
X175427676Y-68096428D01*
X175427676Y-68096428D02*
X175522914Y-68191666D01*
X175522914Y-68191666D02*
X175570533Y-68286904D01*
X175284819Y-67382142D02*
X175284819Y-66763095D01*
X175284819Y-66763095D02*
X175665771Y-67096428D01*
X175665771Y-67096428D02*
X175665771Y-66953571D01*
X175665771Y-66953571D02*
X175713390Y-66858333D01*
X175713390Y-66858333D02*
X175761009Y-66810714D01*
X175761009Y-66810714D02*
X175856247Y-66763095D01*
X175856247Y-66763095D02*
X176094342Y-66763095D01*
X176094342Y-66763095D02*
X176189580Y-66810714D01*
X176189580Y-66810714D02*
X176237200Y-66858333D01*
X176237200Y-66858333D02*
X176284819Y-66953571D01*
X176284819Y-66953571D02*
X176284819Y-67239285D01*
X176284819Y-67239285D02*
X176237200Y-67334523D01*
X176237200Y-67334523D02*
X176189580Y-67382142D01*
X180224819Y-86826784D02*
X179224819Y-86826784D01*
X179224819Y-86826784D02*
X179224819Y-86588689D01*
X179224819Y-86588689D02*
X179272438Y-86445832D01*
X179272438Y-86445832D02*
X179367676Y-86350594D01*
X179367676Y-86350594D02*
X179462914Y-86302975D01*
X179462914Y-86302975D02*
X179653390Y-86255356D01*
X179653390Y-86255356D02*
X179796247Y-86255356D01*
X179796247Y-86255356D02*
X179986723Y-86302975D01*
X179986723Y-86302975D02*
X180081961Y-86350594D01*
X180081961Y-86350594D02*
X180177200Y-86445832D01*
X180177200Y-86445832D02*
X180224819Y-86588689D01*
X180224819Y-86588689D02*
X180224819Y-86826784D01*
X179224819Y-85922022D02*
X179224819Y-85302975D01*
X179224819Y-85302975D02*
X179605771Y-85636308D01*
X179605771Y-85636308D02*
X179605771Y-85493451D01*
X179605771Y-85493451D02*
X179653390Y-85398213D01*
X179653390Y-85398213D02*
X179701009Y-85350594D01*
X179701009Y-85350594D02*
X179796247Y-85302975D01*
X179796247Y-85302975D02*
X180034342Y-85302975D01*
X180034342Y-85302975D02*
X180129580Y-85350594D01*
X180129580Y-85350594D02*
X180177200Y-85398213D01*
X180177200Y-85398213D02*
X180224819Y-85493451D01*
X180224819Y-85493451D02*
X180224819Y-85779165D01*
X180224819Y-85779165D02*
X180177200Y-85874403D01*
X180177200Y-85874403D02*
X180129580Y-85922022D01*
X179224819Y-84969641D02*
X179224819Y-84302975D01*
X179224819Y-84302975D02*
X180224819Y-84731546D01*
X182924819Y-94226784D02*
X181924819Y-94226784D01*
X181924819Y-94226784D02*
X181924819Y-93988689D01*
X181924819Y-93988689D02*
X181972438Y-93845832D01*
X181972438Y-93845832D02*
X182067676Y-93750594D01*
X182067676Y-93750594D02*
X182162914Y-93702975D01*
X182162914Y-93702975D02*
X182353390Y-93655356D01*
X182353390Y-93655356D02*
X182496247Y-93655356D01*
X182496247Y-93655356D02*
X182686723Y-93702975D01*
X182686723Y-93702975D02*
X182781961Y-93750594D01*
X182781961Y-93750594D02*
X182877200Y-93845832D01*
X182877200Y-93845832D02*
X182924819Y-93988689D01*
X182924819Y-93988689D02*
X182924819Y-94226784D01*
X181924819Y-93322022D02*
X181924819Y-92702975D01*
X181924819Y-92702975D02*
X182305771Y-93036308D01*
X182305771Y-93036308D02*
X182305771Y-92893451D01*
X182305771Y-92893451D02*
X182353390Y-92798213D01*
X182353390Y-92798213D02*
X182401009Y-92750594D01*
X182401009Y-92750594D02*
X182496247Y-92702975D01*
X182496247Y-92702975D02*
X182734342Y-92702975D01*
X182734342Y-92702975D02*
X182829580Y-92750594D01*
X182829580Y-92750594D02*
X182877200Y-92798213D01*
X182877200Y-92798213D02*
X182924819Y-92893451D01*
X182924819Y-92893451D02*
X182924819Y-93179165D01*
X182924819Y-93179165D02*
X182877200Y-93274403D01*
X182877200Y-93274403D02*
X182829580Y-93322022D01*
X182924819Y-91750594D02*
X182924819Y-92322022D01*
X182924819Y-92036308D02*
X181924819Y-92036308D01*
X181924819Y-92036308D02*
X182067676Y-92131546D01*
X182067676Y-92131546D02*
X182162914Y-92226784D01*
X182162914Y-92226784D02*
X182210533Y-92322022D01*
X178224819Y-90401786D02*
X177224819Y-90401786D01*
X177224819Y-90401786D02*
X177224819Y-90163691D01*
X177224819Y-90163691D02*
X177272438Y-90020834D01*
X177272438Y-90020834D02*
X177367676Y-89925596D01*
X177367676Y-89925596D02*
X177462914Y-89877977D01*
X177462914Y-89877977D02*
X177653390Y-89830358D01*
X177653390Y-89830358D02*
X177796247Y-89830358D01*
X177796247Y-89830358D02*
X177986723Y-89877977D01*
X177986723Y-89877977D02*
X178081961Y-89925596D01*
X178081961Y-89925596D02*
X178177200Y-90020834D01*
X178177200Y-90020834D02*
X178224819Y-90163691D01*
X178224819Y-90163691D02*
X178224819Y-90401786D01*
X177558152Y-88973215D02*
X178224819Y-88973215D01*
X177177200Y-89211310D02*
X177891485Y-89449405D01*
X177891485Y-89449405D02*
X177891485Y-88830358D01*
X177224819Y-88020834D02*
X177224819Y-88211310D01*
X177224819Y-88211310D02*
X177272438Y-88306548D01*
X177272438Y-88306548D02*
X177320057Y-88354167D01*
X177320057Y-88354167D02*
X177462914Y-88449405D01*
X177462914Y-88449405D02*
X177653390Y-88497024D01*
X177653390Y-88497024D02*
X178034342Y-88497024D01*
X178034342Y-88497024D02*
X178129580Y-88449405D01*
X178129580Y-88449405D02*
X178177200Y-88401786D01*
X178177200Y-88401786D02*
X178224819Y-88306548D01*
X178224819Y-88306548D02*
X178224819Y-88116072D01*
X178224819Y-88116072D02*
X178177200Y-88020834D01*
X178177200Y-88020834D02*
X178129580Y-87973215D01*
X178129580Y-87973215D02*
X178034342Y-87925596D01*
X178034342Y-87925596D02*
X177796247Y-87925596D01*
X177796247Y-87925596D02*
X177701009Y-87973215D01*
X177701009Y-87973215D02*
X177653390Y-88020834D01*
X177653390Y-88020834D02*
X177605771Y-88116072D01*
X177605771Y-88116072D02*
X177605771Y-88306548D01*
X177605771Y-88306548D02*
X177653390Y-88401786D01*
X177653390Y-88401786D02*
X177701009Y-88449405D01*
X177701009Y-88449405D02*
X177796247Y-88497024D01*
X187124819Y-76301786D02*
X186124819Y-76301786D01*
X186124819Y-76301786D02*
X186124819Y-76063691D01*
X186124819Y-76063691D02*
X186172438Y-75920834D01*
X186172438Y-75920834D02*
X186267676Y-75825596D01*
X186267676Y-75825596D02*
X186362914Y-75777977D01*
X186362914Y-75777977D02*
X186553390Y-75730358D01*
X186553390Y-75730358D02*
X186696247Y-75730358D01*
X186696247Y-75730358D02*
X186886723Y-75777977D01*
X186886723Y-75777977D02*
X186981961Y-75825596D01*
X186981961Y-75825596D02*
X187077200Y-75920834D01*
X187077200Y-75920834D02*
X187124819Y-76063691D01*
X187124819Y-76063691D02*
X187124819Y-76301786D01*
X187124819Y-74777977D02*
X187124819Y-75349405D01*
X187124819Y-75063691D02*
X186124819Y-75063691D01*
X186124819Y-75063691D02*
X186267676Y-75158929D01*
X186267676Y-75158929D02*
X186362914Y-75254167D01*
X186362914Y-75254167D02*
X186410533Y-75349405D01*
X186124819Y-74158929D02*
X186124819Y-74063691D01*
X186124819Y-74063691D02*
X186172438Y-73968453D01*
X186172438Y-73968453D02*
X186220057Y-73920834D01*
X186220057Y-73920834D02*
X186315295Y-73873215D01*
X186315295Y-73873215D02*
X186505771Y-73825596D01*
X186505771Y-73825596D02*
X186743866Y-73825596D01*
X186743866Y-73825596D02*
X186934342Y-73873215D01*
X186934342Y-73873215D02*
X187029580Y-73920834D01*
X187029580Y-73920834D02*
X187077200Y-73968453D01*
X187077200Y-73968453D02*
X187124819Y-74063691D01*
X187124819Y-74063691D02*
X187124819Y-74158929D01*
X187124819Y-74158929D02*
X187077200Y-74254167D01*
X187077200Y-74254167D02*
X187029580Y-74301786D01*
X187029580Y-74301786D02*
X186934342Y-74349405D01*
X186934342Y-74349405D02*
X186743866Y-74397024D01*
X186743866Y-74397024D02*
X186505771Y-74397024D01*
X186505771Y-74397024D02*
X186315295Y-74349405D01*
X186315295Y-74349405D02*
X186220057Y-74301786D01*
X186220057Y-74301786D02*
X186172438Y-74254167D01*
X186172438Y-74254167D02*
X186124819Y-74158929D01*
X187124819Y-83301786D02*
X186124819Y-83301786D01*
X186124819Y-83301786D02*
X186124819Y-83063691D01*
X186124819Y-83063691D02*
X186172438Y-82920834D01*
X186172438Y-82920834D02*
X186267676Y-82825596D01*
X186267676Y-82825596D02*
X186362914Y-82777977D01*
X186362914Y-82777977D02*
X186553390Y-82730358D01*
X186553390Y-82730358D02*
X186696247Y-82730358D01*
X186696247Y-82730358D02*
X186886723Y-82777977D01*
X186886723Y-82777977D02*
X186981961Y-82825596D01*
X186981961Y-82825596D02*
X187077200Y-82920834D01*
X187077200Y-82920834D02*
X187124819Y-83063691D01*
X187124819Y-83063691D02*
X187124819Y-83301786D01*
X187124819Y-81777977D02*
X187124819Y-82349405D01*
X187124819Y-82063691D02*
X186124819Y-82063691D01*
X186124819Y-82063691D02*
X186267676Y-82158929D01*
X186267676Y-82158929D02*
X186362914Y-82254167D01*
X186362914Y-82254167D02*
X186410533Y-82349405D01*
X186220057Y-81397024D02*
X186172438Y-81349405D01*
X186172438Y-81349405D02*
X186124819Y-81254167D01*
X186124819Y-81254167D02*
X186124819Y-81016072D01*
X186124819Y-81016072D02*
X186172438Y-80920834D01*
X186172438Y-80920834D02*
X186220057Y-80873215D01*
X186220057Y-80873215D02*
X186315295Y-80825596D01*
X186315295Y-80825596D02*
X186410533Y-80825596D01*
X186410533Y-80825596D02*
X186553390Y-80873215D01*
X186553390Y-80873215D02*
X187124819Y-81444643D01*
X187124819Y-81444643D02*
X187124819Y-80825596D01*
X187124819Y-86926784D02*
X186124819Y-86926784D01*
X186124819Y-86926784D02*
X186124819Y-86688689D01*
X186124819Y-86688689D02*
X186172438Y-86545832D01*
X186172438Y-86545832D02*
X186267676Y-86450594D01*
X186267676Y-86450594D02*
X186362914Y-86402975D01*
X186362914Y-86402975D02*
X186553390Y-86355356D01*
X186553390Y-86355356D02*
X186696247Y-86355356D01*
X186696247Y-86355356D02*
X186886723Y-86402975D01*
X186886723Y-86402975D02*
X186981961Y-86450594D01*
X186981961Y-86450594D02*
X187077200Y-86545832D01*
X187077200Y-86545832D02*
X187124819Y-86688689D01*
X187124819Y-86688689D02*
X187124819Y-86926784D01*
X187124819Y-85402975D02*
X187124819Y-85974403D01*
X187124819Y-85688689D02*
X186124819Y-85688689D01*
X186124819Y-85688689D02*
X186267676Y-85783927D01*
X186267676Y-85783927D02*
X186362914Y-85879165D01*
X186362914Y-85879165D02*
X186410533Y-85974403D01*
X186124819Y-85069641D02*
X186124819Y-84450594D01*
X186124819Y-84450594D02*
X186505771Y-84783927D01*
X186505771Y-84783927D02*
X186505771Y-84641070D01*
X186505771Y-84641070D02*
X186553390Y-84545832D01*
X186553390Y-84545832D02*
X186601009Y-84498213D01*
X186601009Y-84498213D02*
X186696247Y-84450594D01*
X186696247Y-84450594D02*
X186934342Y-84450594D01*
X186934342Y-84450594D02*
X187029580Y-84498213D01*
X187029580Y-84498213D02*
X187077200Y-84545832D01*
X187077200Y-84545832D02*
X187124819Y-84641070D01*
X187124819Y-84641070D02*
X187124819Y-84926784D01*
X187124819Y-84926784D02*
X187077200Y-85022022D01*
X187077200Y-85022022D02*
X187029580Y-85069641D01*
X175724819Y-72826784D02*
X174724819Y-72826784D01*
X174724819Y-72826784D02*
X174724819Y-72588689D01*
X174724819Y-72588689D02*
X174772438Y-72445832D01*
X174772438Y-72445832D02*
X174867676Y-72350594D01*
X174867676Y-72350594D02*
X174962914Y-72302975D01*
X174962914Y-72302975D02*
X175153390Y-72255356D01*
X175153390Y-72255356D02*
X175296247Y-72255356D01*
X175296247Y-72255356D02*
X175486723Y-72302975D01*
X175486723Y-72302975D02*
X175581961Y-72350594D01*
X175581961Y-72350594D02*
X175677200Y-72445832D01*
X175677200Y-72445832D02*
X175724819Y-72588689D01*
X175724819Y-72588689D02*
X175724819Y-72826784D01*
X175058152Y-71398213D02*
X175724819Y-71398213D01*
X174677200Y-71636308D02*
X175391485Y-71874403D01*
X175391485Y-71874403D02*
X175391485Y-71255356D01*
X175724819Y-70826784D02*
X175724819Y-70636308D01*
X175724819Y-70636308D02*
X175677200Y-70541070D01*
X175677200Y-70541070D02*
X175629580Y-70493451D01*
X175629580Y-70493451D02*
X175486723Y-70398213D01*
X175486723Y-70398213D02*
X175296247Y-70350594D01*
X175296247Y-70350594D02*
X174915295Y-70350594D01*
X174915295Y-70350594D02*
X174820057Y-70398213D01*
X174820057Y-70398213D02*
X174772438Y-70445832D01*
X174772438Y-70445832D02*
X174724819Y-70541070D01*
X174724819Y-70541070D02*
X174724819Y-70731546D01*
X174724819Y-70731546D02*
X174772438Y-70826784D01*
X174772438Y-70826784D02*
X174820057Y-70874403D01*
X174820057Y-70874403D02*
X174915295Y-70922022D01*
X174915295Y-70922022D02*
X175153390Y-70922022D01*
X175153390Y-70922022D02*
X175248628Y-70874403D01*
X175248628Y-70874403D02*
X175296247Y-70826784D01*
X175296247Y-70826784D02*
X175343866Y-70731546D01*
X175343866Y-70731546D02*
X175343866Y-70541070D01*
X175343866Y-70541070D02*
X175296247Y-70445832D01*
X175296247Y-70445832D02*
X175248628Y-70398213D01*
X175248628Y-70398213D02*
X175153390Y-70350594D01*
X184724819Y-86826784D02*
X183724819Y-86826784D01*
X183724819Y-86826784D02*
X183724819Y-86588689D01*
X183724819Y-86588689D02*
X183772438Y-86445832D01*
X183772438Y-86445832D02*
X183867676Y-86350594D01*
X183867676Y-86350594D02*
X183962914Y-86302975D01*
X183962914Y-86302975D02*
X184153390Y-86255356D01*
X184153390Y-86255356D02*
X184296247Y-86255356D01*
X184296247Y-86255356D02*
X184486723Y-86302975D01*
X184486723Y-86302975D02*
X184581961Y-86350594D01*
X184581961Y-86350594D02*
X184677200Y-86445832D01*
X184677200Y-86445832D02*
X184724819Y-86588689D01*
X184724819Y-86588689D02*
X184724819Y-86826784D01*
X183820057Y-85874403D02*
X183772438Y-85826784D01*
X183772438Y-85826784D02*
X183724819Y-85731546D01*
X183724819Y-85731546D02*
X183724819Y-85493451D01*
X183724819Y-85493451D02*
X183772438Y-85398213D01*
X183772438Y-85398213D02*
X183820057Y-85350594D01*
X183820057Y-85350594D02*
X183915295Y-85302975D01*
X183915295Y-85302975D02*
X184010533Y-85302975D01*
X184010533Y-85302975D02*
X184153390Y-85350594D01*
X184153390Y-85350594D02*
X184724819Y-85922022D01*
X184724819Y-85922022D02*
X184724819Y-85302975D01*
X184724819Y-84350594D02*
X184724819Y-84922022D01*
X184724819Y-84636308D02*
X183724819Y-84636308D01*
X183724819Y-84636308D02*
X183867676Y-84731546D01*
X183867676Y-84731546D02*
X183962914Y-84826784D01*
X183962914Y-84826784D02*
X184010533Y-84922022D01*
X173524819Y-76126784D02*
X172524819Y-76126784D01*
X172524819Y-76126784D02*
X172524819Y-75888689D01*
X172524819Y-75888689D02*
X172572438Y-75745832D01*
X172572438Y-75745832D02*
X172667676Y-75650594D01*
X172667676Y-75650594D02*
X172762914Y-75602975D01*
X172762914Y-75602975D02*
X172953390Y-75555356D01*
X172953390Y-75555356D02*
X173096247Y-75555356D01*
X173096247Y-75555356D02*
X173286723Y-75602975D01*
X173286723Y-75602975D02*
X173381961Y-75650594D01*
X173381961Y-75650594D02*
X173477200Y-75745832D01*
X173477200Y-75745832D02*
X173524819Y-75888689D01*
X173524819Y-75888689D02*
X173524819Y-76126784D01*
X172524819Y-74650594D02*
X172524819Y-75126784D01*
X172524819Y-75126784D02*
X173001009Y-75174403D01*
X173001009Y-75174403D02*
X172953390Y-75126784D01*
X172953390Y-75126784D02*
X172905771Y-75031546D01*
X172905771Y-75031546D02*
X172905771Y-74793451D01*
X172905771Y-74793451D02*
X172953390Y-74698213D01*
X172953390Y-74698213D02*
X173001009Y-74650594D01*
X173001009Y-74650594D02*
X173096247Y-74602975D01*
X173096247Y-74602975D02*
X173334342Y-74602975D01*
X173334342Y-74602975D02*
X173429580Y-74650594D01*
X173429580Y-74650594D02*
X173477200Y-74698213D01*
X173477200Y-74698213D02*
X173524819Y-74793451D01*
X173524819Y-74793451D02*
X173524819Y-75031546D01*
X173524819Y-75031546D02*
X173477200Y-75126784D01*
X173477200Y-75126784D02*
X173429580Y-75174403D01*
X172953390Y-74031546D02*
X172905771Y-74126784D01*
X172905771Y-74126784D02*
X172858152Y-74174403D01*
X172858152Y-74174403D02*
X172762914Y-74222022D01*
X172762914Y-74222022D02*
X172715295Y-74222022D01*
X172715295Y-74222022D02*
X172620057Y-74174403D01*
X172620057Y-74174403D02*
X172572438Y-74126784D01*
X172572438Y-74126784D02*
X172524819Y-74031546D01*
X172524819Y-74031546D02*
X172524819Y-73841070D01*
X172524819Y-73841070D02*
X172572438Y-73745832D01*
X172572438Y-73745832D02*
X172620057Y-73698213D01*
X172620057Y-73698213D02*
X172715295Y-73650594D01*
X172715295Y-73650594D02*
X172762914Y-73650594D01*
X172762914Y-73650594D02*
X172858152Y-73698213D01*
X172858152Y-73698213D02*
X172905771Y-73745832D01*
X172905771Y-73745832D02*
X172953390Y-73841070D01*
X172953390Y-73841070D02*
X172953390Y-74031546D01*
X172953390Y-74031546D02*
X173001009Y-74126784D01*
X173001009Y-74126784D02*
X173048628Y-74174403D01*
X173048628Y-74174403D02*
X173143866Y-74222022D01*
X173143866Y-74222022D02*
X173334342Y-74222022D01*
X173334342Y-74222022D02*
X173429580Y-74174403D01*
X173429580Y-74174403D02*
X173477200Y-74126784D01*
X173477200Y-74126784D02*
X173524819Y-74031546D01*
X173524819Y-74031546D02*
X173524819Y-73841070D01*
X173524819Y-73841070D02*
X173477200Y-73745832D01*
X173477200Y-73745832D02*
X173429580Y-73698213D01*
X173429580Y-73698213D02*
X173334342Y-73650594D01*
X173334342Y-73650594D02*
X173143866Y-73650594D01*
X173143866Y-73650594D02*
X173048628Y-73698213D01*
X173048628Y-73698213D02*
X173001009Y-73745832D01*
X173001009Y-73745832D02*
X172953390Y-73841070D01*
X171708333Y-91784819D02*
X171375000Y-91308628D01*
X171136905Y-91784819D02*
X171136905Y-90784819D01*
X171136905Y-90784819D02*
X171517857Y-90784819D01*
X171517857Y-90784819D02*
X171613095Y-90832438D01*
X171613095Y-90832438D02*
X171660714Y-90880057D01*
X171660714Y-90880057D02*
X171708333Y-90975295D01*
X171708333Y-90975295D02*
X171708333Y-91118152D01*
X171708333Y-91118152D02*
X171660714Y-91213390D01*
X171660714Y-91213390D02*
X171613095Y-91261009D01*
X171613095Y-91261009D02*
X171517857Y-91308628D01*
X171517857Y-91308628D02*
X171136905Y-91308628D01*
X172565476Y-90784819D02*
X172375000Y-90784819D01*
X172375000Y-90784819D02*
X172279762Y-90832438D01*
X172279762Y-90832438D02*
X172232143Y-90880057D01*
X172232143Y-90880057D02*
X172136905Y-91022914D01*
X172136905Y-91022914D02*
X172089286Y-91213390D01*
X172089286Y-91213390D02*
X172089286Y-91594342D01*
X172089286Y-91594342D02*
X172136905Y-91689580D01*
X172136905Y-91689580D02*
X172184524Y-91737200D01*
X172184524Y-91737200D02*
X172279762Y-91784819D01*
X172279762Y-91784819D02*
X172470238Y-91784819D01*
X172470238Y-91784819D02*
X172565476Y-91737200D01*
X172565476Y-91737200D02*
X172613095Y-91689580D01*
X172613095Y-91689580D02*
X172660714Y-91594342D01*
X172660714Y-91594342D02*
X172660714Y-91356247D01*
X172660714Y-91356247D02*
X172613095Y-91261009D01*
X172613095Y-91261009D02*
X172565476Y-91213390D01*
X172565476Y-91213390D02*
X172470238Y-91165771D01*
X172470238Y-91165771D02*
X172279762Y-91165771D01*
X172279762Y-91165771D02*
X172184524Y-91213390D01*
X172184524Y-91213390D02*
X172136905Y-91261009D01*
X172136905Y-91261009D02*
X172089286Y-91356247D01*
X171808333Y-95284819D02*
X171475000Y-94808628D01*
X171236905Y-95284819D02*
X171236905Y-94284819D01*
X171236905Y-94284819D02*
X171617857Y-94284819D01*
X171617857Y-94284819D02*
X171713095Y-94332438D01*
X171713095Y-94332438D02*
X171760714Y-94380057D01*
X171760714Y-94380057D02*
X171808333Y-94475295D01*
X171808333Y-94475295D02*
X171808333Y-94618152D01*
X171808333Y-94618152D02*
X171760714Y-94713390D01*
X171760714Y-94713390D02*
X171713095Y-94761009D01*
X171713095Y-94761009D02*
X171617857Y-94808628D01*
X171617857Y-94808628D02*
X171236905Y-94808628D01*
X172141667Y-94284819D02*
X172808333Y-94284819D01*
X172808333Y-94284819D02*
X172379762Y-95284819D01*
X173524819Y-79626784D02*
X172524819Y-79626784D01*
X172524819Y-79626784D02*
X172524819Y-79388689D01*
X172524819Y-79388689D02*
X172572438Y-79245832D01*
X172572438Y-79245832D02*
X172667676Y-79150594D01*
X172667676Y-79150594D02*
X172762914Y-79102975D01*
X172762914Y-79102975D02*
X172953390Y-79055356D01*
X172953390Y-79055356D02*
X173096247Y-79055356D01*
X173096247Y-79055356D02*
X173286723Y-79102975D01*
X173286723Y-79102975D02*
X173381961Y-79150594D01*
X173381961Y-79150594D02*
X173477200Y-79245832D01*
X173477200Y-79245832D02*
X173524819Y-79388689D01*
X173524819Y-79388689D02*
X173524819Y-79626784D01*
X172524819Y-78150594D02*
X172524819Y-78626784D01*
X172524819Y-78626784D02*
X173001009Y-78674403D01*
X173001009Y-78674403D02*
X172953390Y-78626784D01*
X172953390Y-78626784D02*
X172905771Y-78531546D01*
X172905771Y-78531546D02*
X172905771Y-78293451D01*
X172905771Y-78293451D02*
X172953390Y-78198213D01*
X172953390Y-78198213D02*
X173001009Y-78150594D01*
X173001009Y-78150594D02*
X173096247Y-78102975D01*
X173096247Y-78102975D02*
X173334342Y-78102975D01*
X173334342Y-78102975D02*
X173429580Y-78150594D01*
X173429580Y-78150594D02*
X173477200Y-78198213D01*
X173477200Y-78198213D02*
X173524819Y-78293451D01*
X173524819Y-78293451D02*
X173524819Y-78531546D01*
X173524819Y-78531546D02*
X173477200Y-78626784D01*
X173477200Y-78626784D02*
X173429580Y-78674403D01*
X173524819Y-77626784D02*
X173524819Y-77436308D01*
X173524819Y-77436308D02*
X173477200Y-77341070D01*
X173477200Y-77341070D02*
X173429580Y-77293451D01*
X173429580Y-77293451D02*
X173286723Y-77198213D01*
X173286723Y-77198213D02*
X173096247Y-77150594D01*
X173096247Y-77150594D02*
X172715295Y-77150594D01*
X172715295Y-77150594D02*
X172620057Y-77198213D01*
X172620057Y-77198213D02*
X172572438Y-77245832D01*
X172572438Y-77245832D02*
X172524819Y-77341070D01*
X172524819Y-77341070D02*
X172524819Y-77531546D01*
X172524819Y-77531546D02*
X172572438Y-77626784D01*
X172572438Y-77626784D02*
X172620057Y-77674403D01*
X172620057Y-77674403D02*
X172715295Y-77722022D01*
X172715295Y-77722022D02*
X172953390Y-77722022D01*
X172953390Y-77722022D02*
X173048628Y-77674403D01*
X173048628Y-77674403D02*
X173096247Y-77626784D01*
X173096247Y-77626784D02*
X173143866Y-77531546D01*
X173143866Y-77531546D02*
X173143866Y-77341070D01*
X173143866Y-77341070D02*
X173096247Y-77245832D01*
X173096247Y-77245832D02*
X173048628Y-77198213D01*
X173048628Y-77198213D02*
X172953390Y-77150594D01*
X150313095Y-67429819D02*
X150313095Y-68239342D01*
X150313095Y-68239342D02*
X150360714Y-68334580D01*
X150360714Y-68334580D02*
X150408333Y-68382200D01*
X150408333Y-68382200D02*
X150503571Y-68429819D01*
X150503571Y-68429819D02*
X150694047Y-68429819D01*
X150694047Y-68429819D02*
X150789285Y-68382200D01*
X150789285Y-68382200D02*
X150836904Y-68334580D01*
X150836904Y-68334580D02*
X150884523Y-68239342D01*
X150884523Y-68239342D02*
X150884523Y-67429819D01*
X151884523Y-68429819D02*
X151313095Y-68429819D01*
X151598809Y-68429819D02*
X151598809Y-67429819D01*
X151598809Y-67429819D02*
X151503571Y-67572676D01*
X151503571Y-67572676D02*
X151408333Y-67667914D01*
X151408333Y-67667914D02*
X151313095Y-67715533D01*
X171708333Y-99284819D02*
X171375000Y-98808628D01*
X171136905Y-99284819D02*
X171136905Y-98284819D01*
X171136905Y-98284819D02*
X171517857Y-98284819D01*
X171517857Y-98284819D02*
X171613095Y-98332438D01*
X171613095Y-98332438D02*
X171660714Y-98380057D01*
X171660714Y-98380057D02*
X171708333Y-98475295D01*
X171708333Y-98475295D02*
X171708333Y-98618152D01*
X171708333Y-98618152D02*
X171660714Y-98713390D01*
X171660714Y-98713390D02*
X171613095Y-98761009D01*
X171613095Y-98761009D02*
X171517857Y-98808628D01*
X171517857Y-98808628D02*
X171136905Y-98808628D01*
X172279762Y-98713390D02*
X172184524Y-98665771D01*
X172184524Y-98665771D02*
X172136905Y-98618152D01*
X172136905Y-98618152D02*
X172089286Y-98522914D01*
X172089286Y-98522914D02*
X172089286Y-98475295D01*
X172089286Y-98475295D02*
X172136905Y-98380057D01*
X172136905Y-98380057D02*
X172184524Y-98332438D01*
X172184524Y-98332438D02*
X172279762Y-98284819D01*
X172279762Y-98284819D02*
X172470238Y-98284819D01*
X172470238Y-98284819D02*
X172565476Y-98332438D01*
X172565476Y-98332438D02*
X172613095Y-98380057D01*
X172613095Y-98380057D02*
X172660714Y-98475295D01*
X172660714Y-98475295D02*
X172660714Y-98522914D01*
X172660714Y-98522914D02*
X172613095Y-98618152D01*
X172613095Y-98618152D02*
X172565476Y-98665771D01*
X172565476Y-98665771D02*
X172470238Y-98713390D01*
X172470238Y-98713390D02*
X172279762Y-98713390D01*
X172279762Y-98713390D02*
X172184524Y-98761009D01*
X172184524Y-98761009D02*
X172136905Y-98808628D01*
X172136905Y-98808628D02*
X172089286Y-98903866D01*
X172089286Y-98903866D02*
X172089286Y-99094342D01*
X172089286Y-99094342D02*
X172136905Y-99189580D01*
X172136905Y-99189580D02*
X172184524Y-99237200D01*
X172184524Y-99237200D02*
X172279762Y-99284819D01*
X172279762Y-99284819D02*
X172470238Y-99284819D01*
X172470238Y-99284819D02*
X172565476Y-99237200D01*
X172565476Y-99237200D02*
X172613095Y-99189580D01*
X172613095Y-99189580D02*
X172660714Y-99094342D01*
X172660714Y-99094342D02*
X172660714Y-98903866D01*
X172660714Y-98903866D02*
X172613095Y-98808628D01*
X172613095Y-98808628D02*
X172565476Y-98761009D01*
X172565476Y-98761009D02*
X172470238Y-98713390D01*
X173724819Y-93914285D02*
X172724819Y-93914285D01*
X172724819Y-93914285D02*
X172724819Y-93676190D01*
X172724819Y-93676190D02*
X172772438Y-93533333D01*
X172772438Y-93533333D02*
X172867676Y-93438095D01*
X172867676Y-93438095D02*
X172962914Y-93390476D01*
X172962914Y-93390476D02*
X173153390Y-93342857D01*
X173153390Y-93342857D02*
X173296247Y-93342857D01*
X173296247Y-93342857D02*
X173486723Y-93390476D01*
X173486723Y-93390476D02*
X173581961Y-93438095D01*
X173581961Y-93438095D02*
X173677200Y-93533333D01*
X173677200Y-93533333D02*
X173724819Y-93676190D01*
X173724819Y-93676190D02*
X173724819Y-93914285D01*
X172724819Y-92485714D02*
X172724819Y-92676190D01*
X172724819Y-92676190D02*
X172772438Y-92771428D01*
X172772438Y-92771428D02*
X172820057Y-92819047D01*
X172820057Y-92819047D02*
X172962914Y-92914285D01*
X172962914Y-92914285D02*
X173153390Y-92961904D01*
X173153390Y-92961904D02*
X173534342Y-92961904D01*
X173534342Y-92961904D02*
X173629580Y-92914285D01*
X173629580Y-92914285D02*
X173677200Y-92866666D01*
X173677200Y-92866666D02*
X173724819Y-92771428D01*
X173724819Y-92771428D02*
X173724819Y-92580952D01*
X173724819Y-92580952D02*
X173677200Y-92485714D01*
X173677200Y-92485714D02*
X173629580Y-92438095D01*
X173629580Y-92438095D02*
X173534342Y-92390476D01*
X173534342Y-92390476D02*
X173296247Y-92390476D01*
X173296247Y-92390476D02*
X173201009Y-92438095D01*
X173201009Y-92438095D02*
X173153390Y-92485714D01*
X173153390Y-92485714D02*
X173105771Y-92580952D01*
X173105771Y-92580952D02*
X173105771Y-92771428D01*
X173105771Y-92771428D02*
X173153390Y-92866666D01*
X173153390Y-92866666D02*
X173201009Y-92914285D01*
X173201009Y-92914285D02*
X173296247Y-92961904D01*
X172724819Y-92057142D02*
X172724819Y-91438095D01*
X172724819Y-91438095D02*
X173105771Y-91771428D01*
X173105771Y-91771428D02*
X173105771Y-91628571D01*
X173105771Y-91628571D02*
X173153390Y-91533333D01*
X173153390Y-91533333D02*
X173201009Y-91485714D01*
X173201009Y-91485714D02*
X173296247Y-91438095D01*
X173296247Y-91438095D02*
X173534342Y-91438095D01*
X173534342Y-91438095D02*
X173629580Y-91485714D01*
X173629580Y-91485714D02*
X173677200Y-91533333D01*
X173677200Y-91533333D02*
X173724819Y-91628571D01*
X173724819Y-91628571D02*
X173724819Y-91914285D01*
X173724819Y-91914285D02*
X173677200Y-92009523D01*
X173677200Y-92009523D02*
X173629580Y-92057142D01*
X175824819Y-93926784D02*
X174824819Y-93926784D01*
X174824819Y-93926784D02*
X174824819Y-93688689D01*
X174824819Y-93688689D02*
X174872438Y-93545832D01*
X174872438Y-93545832D02*
X174967676Y-93450594D01*
X174967676Y-93450594D02*
X175062914Y-93402975D01*
X175062914Y-93402975D02*
X175253390Y-93355356D01*
X175253390Y-93355356D02*
X175396247Y-93355356D01*
X175396247Y-93355356D02*
X175586723Y-93402975D01*
X175586723Y-93402975D02*
X175681961Y-93450594D01*
X175681961Y-93450594D02*
X175777200Y-93545832D01*
X175777200Y-93545832D02*
X175824819Y-93688689D01*
X175824819Y-93688689D02*
X175824819Y-93926784D01*
X174824819Y-92450594D02*
X174824819Y-92926784D01*
X174824819Y-92926784D02*
X175301009Y-92974403D01*
X175301009Y-92974403D02*
X175253390Y-92926784D01*
X175253390Y-92926784D02*
X175205771Y-92831546D01*
X175205771Y-92831546D02*
X175205771Y-92593451D01*
X175205771Y-92593451D02*
X175253390Y-92498213D01*
X175253390Y-92498213D02*
X175301009Y-92450594D01*
X175301009Y-92450594D02*
X175396247Y-92402975D01*
X175396247Y-92402975D02*
X175634342Y-92402975D01*
X175634342Y-92402975D02*
X175729580Y-92450594D01*
X175729580Y-92450594D02*
X175777200Y-92498213D01*
X175777200Y-92498213D02*
X175824819Y-92593451D01*
X175824819Y-92593451D02*
X175824819Y-92831546D01*
X175824819Y-92831546D02*
X175777200Y-92926784D01*
X175777200Y-92926784D02*
X175729580Y-92974403D01*
X174824819Y-91498213D02*
X174824819Y-91974403D01*
X174824819Y-91974403D02*
X175301009Y-92022022D01*
X175301009Y-92022022D02*
X175253390Y-91974403D01*
X175253390Y-91974403D02*
X175205771Y-91879165D01*
X175205771Y-91879165D02*
X175205771Y-91641070D01*
X175205771Y-91641070D02*
X175253390Y-91545832D01*
X175253390Y-91545832D02*
X175301009Y-91498213D01*
X175301009Y-91498213D02*
X175396247Y-91450594D01*
X175396247Y-91450594D02*
X175634342Y-91450594D01*
X175634342Y-91450594D02*
X175729580Y-91498213D01*
X175729580Y-91498213D02*
X175777200Y-91545832D01*
X175777200Y-91545832D02*
X175824819Y-91641070D01*
X175824819Y-91641070D02*
X175824819Y-91879165D01*
X175824819Y-91879165D02*
X175777200Y-91974403D01*
X175777200Y-91974403D02*
X175729580Y-92022022D01*
X184924819Y-97814285D02*
X183924819Y-97814285D01*
X183924819Y-97814285D02*
X183924819Y-97576190D01*
X183924819Y-97576190D02*
X183972438Y-97433333D01*
X183972438Y-97433333D02*
X184067676Y-97338095D01*
X184067676Y-97338095D02*
X184162914Y-97290476D01*
X184162914Y-97290476D02*
X184353390Y-97242857D01*
X184353390Y-97242857D02*
X184496247Y-97242857D01*
X184496247Y-97242857D02*
X184686723Y-97290476D01*
X184686723Y-97290476D02*
X184781961Y-97338095D01*
X184781961Y-97338095D02*
X184877200Y-97433333D01*
X184877200Y-97433333D02*
X184924819Y-97576190D01*
X184924819Y-97576190D02*
X184924819Y-97814285D01*
X184020057Y-96861904D02*
X183972438Y-96814285D01*
X183972438Y-96814285D02*
X183924819Y-96719047D01*
X183924819Y-96719047D02*
X183924819Y-96480952D01*
X183924819Y-96480952D02*
X183972438Y-96385714D01*
X183972438Y-96385714D02*
X184020057Y-96338095D01*
X184020057Y-96338095D02*
X184115295Y-96290476D01*
X184115295Y-96290476D02*
X184210533Y-96290476D01*
X184210533Y-96290476D02*
X184353390Y-96338095D01*
X184353390Y-96338095D02*
X184924819Y-96909523D01*
X184924819Y-96909523D02*
X184924819Y-96290476D01*
X184258152Y-95433333D02*
X184924819Y-95433333D01*
X183877200Y-95671428D02*
X184591485Y-95909523D01*
X184591485Y-95909523D02*
X184591485Y-95290476D01*
X182324819Y-72726784D02*
X181324819Y-72726784D01*
X181324819Y-72726784D02*
X181324819Y-72488689D01*
X181324819Y-72488689D02*
X181372438Y-72345832D01*
X181372438Y-72345832D02*
X181467676Y-72250594D01*
X181467676Y-72250594D02*
X181562914Y-72202975D01*
X181562914Y-72202975D02*
X181753390Y-72155356D01*
X181753390Y-72155356D02*
X181896247Y-72155356D01*
X181896247Y-72155356D02*
X182086723Y-72202975D01*
X182086723Y-72202975D02*
X182181961Y-72250594D01*
X182181961Y-72250594D02*
X182277200Y-72345832D01*
X182277200Y-72345832D02*
X182324819Y-72488689D01*
X182324819Y-72488689D02*
X182324819Y-72726784D01*
X181420057Y-71774403D02*
X181372438Y-71726784D01*
X181372438Y-71726784D02*
X181324819Y-71631546D01*
X181324819Y-71631546D02*
X181324819Y-71393451D01*
X181324819Y-71393451D02*
X181372438Y-71298213D01*
X181372438Y-71298213D02*
X181420057Y-71250594D01*
X181420057Y-71250594D02*
X181515295Y-71202975D01*
X181515295Y-71202975D02*
X181610533Y-71202975D01*
X181610533Y-71202975D02*
X181753390Y-71250594D01*
X181753390Y-71250594D02*
X182324819Y-71822022D01*
X182324819Y-71822022D02*
X182324819Y-71202975D01*
X181324819Y-70298213D02*
X181324819Y-70774403D01*
X181324819Y-70774403D02*
X181801009Y-70822022D01*
X181801009Y-70822022D02*
X181753390Y-70774403D01*
X181753390Y-70774403D02*
X181705771Y-70679165D01*
X181705771Y-70679165D02*
X181705771Y-70441070D01*
X181705771Y-70441070D02*
X181753390Y-70345832D01*
X181753390Y-70345832D02*
X181801009Y-70298213D01*
X181801009Y-70298213D02*
X181896247Y-70250594D01*
X181896247Y-70250594D02*
X182134342Y-70250594D01*
X182134342Y-70250594D02*
X182229580Y-70298213D01*
X182229580Y-70298213D02*
X182277200Y-70345832D01*
X182277200Y-70345832D02*
X182324819Y-70441070D01*
X182324819Y-70441070D02*
X182324819Y-70679165D01*
X182324819Y-70679165D02*
X182277200Y-70774403D01*
X182277200Y-70774403D02*
X182229580Y-70822022D01*
X189524819Y-93750593D02*
X188524819Y-93750593D01*
X188524819Y-93750593D02*
X188524819Y-93512498D01*
X188524819Y-93512498D02*
X188572438Y-93369641D01*
X188572438Y-93369641D02*
X188667676Y-93274403D01*
X188667676Y-93274403D02*
X188762914Y-93226784D01*
X188762914Y-93226784D02*
X188953390Y-93179165D01*
X188953390Y-93179165D02*
X189096247Y-93179165D01*
X189096247Y-93179165D02*
X189286723Y-93226784D01*
X189286723Y-93226784D02*
X189381961Y-93274403D01*
X189381961Y-93274403D02*
X189477200Y-93369641D01*
X189477200Y-93369641D02*
X189524819Y-93512498D01*
X189524819Y-93512498D02*
X189524819Y-93750593D01*
X188524819Y-92845831D02*
X188524819Y-92179165D01*
X188524819Y-92179165D02*
X189524819Y-92607736D01*
X175724819Y-76126784D02*
X174724819Y-76126784D01*
X174724819Y-76126784D02*
X174724819Y-75888689D01*
X174724819Y-75888689D02*
X174772438Y-75745832D01*
X174772438Y-75745832D02*
X174867676Y-75650594D01*
X174867676Y-75650594D02*
X174962914Y-75602975D01*
X174962914Y-75602975D02*
X175153390Y-75555356D01*
X175153390Y-75555356D02*
X175296247Y-75555356D01*
X175296247Y-75555356D02*
X175486723Y-75602975D01*
X175486723Y-75602975D02*
X175581961Y-75650594D01*
X175581961Y-75650594D02*
X175677200Y-75745832D01*
X175677200Y-75745832D02*
X175724819Y-75888689D01*
X175724819Y-75888689D02*
X175724819Y-76126784D01*
X174724819Y-74650594D02*
X174724819Y-75126784D01*
X174724819Y-75126784D02*
X175201009Y-75174403D01*
X175201009Y-75174403D02*
X175153390Y-75126784D01*
X175153390Y-75126784D02*
X175105771Y-75031546D01*
X175105771Y-75031546D02*
X175105771Y-74793451D01*
X175105771Y-74793451D02*
X175153390Y-74698213D01*
X175153390Y-74698213D02*
X175201009Y-74650594D01*
X175201009Y-74650594D02*
X175296247Y-74602975D01*
X175296247Y-74602975D02*
X175534342Y-74602975D01*
X175534342Y-74602975D02*
X175629580Y-74650594D01*
X175629580Y-74650594D02*
X175677200Y-74698213D01*
X175677200Y-74698213D02*
X175724819Y-74793451D01*
X175724819Y-74793451D02*
X175724819Y-75031546D01*
X175724819Y-75031546D02*
X175677200Y-75126784D01*
X175677200Y-75126784D02*
X175629580Y-75174403D01*
X174724819Y-73983927D02*
X174724819Y-73888689D01*
X174724819Y-73888689D02*
X174772438Y-73793451D01*
X174772438Y-73793451D02*
X174820057Y-73745832D01*
X174820057Y-73745832D02*
X174915295Y-73698213D01*
X174915295Y-73698213D02*
X175105771Y-73650594D01*
X175105771Y-73650594D02*
X175343866Y-73650594D01*
X175343866Y-73650594D02*
X175534342Y-73698213D01*
X175534342Y-73698213D02*
X175629580Y-73745832D01*
X175629580Y-73745832D02*
X175677200Y-73793451D01*
X175677200Y-73793451D02*
X175724819Y-73888689D01*
X175724819Y-73888689D02*
X175724819Y-73983927D01*
X175724819Y-73983927D02*
X175677200Y-74079165D01*
X175677200Y-74079165D02*
X175629580Y-74126784D01*
X175629580Y-74126784D02*
X175534342Y-74174403D01*
X175534342Y-74174403D02*
X175343866Y-74222022D01*
X175343866Y-74222022D02*
X175105771Y-74222022D01*
X175105771Y-74222022D02*
X174915295Y-74174403D01*
X174915295Y-74174403D02*
X174820057Y-74126784D01*
X174820057Y-74126784D02*
X174772438Y-74079165D01*
X174772438Y-74079165D02*
X174724819Y-73983927D01*
X173624819Y-83226784D02*
X172624819Y-83226784D01*
X172624819Y-83226784D02*
X172624819Y-82988689D01*
X172624819Y-82988689D02*
X172672438Y-82845832D01*
X172672438Y-82845832D02*
X172767676Y-82750594D01*
X172767676Y-82750594D02*
X172862914Y-82702975D01*
X172862914Y-82702975D02*
X173053390Y-82655356D01*
X173053390Y-82655356D02*
X173196247Y-82655356D01*
X173196247Y-82655356D02*
X173386723Y-82702975D01*
X173386723Y-82702975D02*
X173481961Y-82750594D01*
X173481961Y-82750594D02*
X173577200Y-82845832D01*
X173577200Y-82845832D02*
X173624819Y-82988689D01*
X173624819Y-82988689D02*
X173624819Y-83226784D01*
X172624819Y-81798213D02*
X172624819Y-81988689D01*
X172624819Y-81988689D02*
X172672438Y-82083927D01*
X172672438Y-82083927D02*
X172720057Y-82131546D01*
X172720057Y-82131546D02*
X172862914Y-82226784D01*
X172862914Y-82226784D02*
X173053390Y-82274403D01*
X173053390Y-82274403D02*
X173434342Y-82274403D01*
X173434342Y-82274403D02*
X173529580Y-82226784D01*
X173529580Y-82226784D02*
X173577200Y-82179165D01*
X173577200Y-82179165D02*
X173624819Y-82083927D01*
X173624819Y-82083927D02*
X173624819Y-81893451D01*
X173624819Y-81893451D02*
X173577200Y-81798213D01*
X173577200Y-81798213D02*
X173529580Y-81750594D01*
X173529580Y-81750594D02*
X173434342Y-81702975D01*
X173434342Y-81702975D02*
X173196247Y-81702975D01*
X173196247Y-81702975D02*
X173101009Y-81750594D01*
X173101009Y-81750594D02*
X173053390Y-81798213D01*
X173053390Y-81798213D02*
X173005771Y-81893451D01*
X173005771Y-81893451D02*
X173005771Y-82083927D01*
X173005771Y-82083927D02*
X173053390Y-82179165D01*
X173053390Y-82179165D02*
X173101009Y-82226784D01*
X173101009Y-82226784D02*
X173196247Y-82274403D01*
X172624819Y-81083927D02*
X172624819Y-80988689D01*
X172624819Y-80988689D02*
X172672438Y-80893451D01*
X172672438Y-80893451D02*
X172720057Y-80845832D01*
X172720057Y-80845832D02*
X172815295Y-80798213D01*
X172815295Y-80798213D02*
X173005771Y-80750594D01*
X173005771Y-80750594D02*
X173243866Y-80750594D01*
X173243866Y-80750594D02*
X173434342Y-80798213D01*
X173434342Y-80798213D02*
X173529580Y-80845832D01*
X173529580Y-80845832D02*
X173577200Y-80893451D01*
X173577200Y-80893451D02*
X173624819Y-80988689D01*
X173624819Y-80988689D02*
X173624819Y-81083927D01*
X173624819Y-81083927D02*
X173577200Y-81179165D01*
X173577200Y-81179165D02*
X173529580Y-81226784D01*
X173529580Y-81226784D02*
X173434342Y-81274403D01*
X173434342Y-81274403D02*
X173243866Y-81322022D01*
X173243866Y-81322022D02*
X173005771Y-81322022D01*
X173005771Y-81322022D02*
X172815295Y-81274403D01*
X172815295Y-81274403D02*
X172720057Y-81226784D01*
X172720057Y-81226784D02*
X172672438Y-81179165D01*
X172672438Y-81179165D02*
X172624819Y-81083927D01*
X182924819Y-97726784D02*
X181924819Y-97726784D01*
X181924819Y-97726784D02*
X181924819Y-97488689D01*
X181924819Y-97488689D02*
X181972438Y-97345832D01*
X181972438Y-97345832D02*
X182067676Y-97250594D01*
X182067676Y-97250594D02*
X182162914Y-97202975D01*
X182162914Y-97202975D02*
X182353390Y-97155356D01*
X182353390Y-97155356D02*
X182496247Y-97155356D01*
X182496247Y-97155356D02*
X182686723Y-97202975D01*
X182686723Y-97202975D02*
X182781961Y-97250594D01*
X182781961Y-97250594D02*
X182877200Y-97345832D01*
X182877200Y-97345832D02*
X182924819Y-97488689D01*
X182924819Y-97488689D02*
X182924819Y-97726784D01*
X181924819Y-96822022D02*
X181924819Y-96202975D01*
X181924819Y-96202975D02*
X182305771Y-96536308D01*
X182305771Y-96536308D02*
X182305771Y-96393451D01*
X182305771Y-96393451D02*
X182353390Y-96298213D01*
X182353390Y-96298213D02*
X182401009Y-96250594D01*
X182401009Y-96250594D02*
X182496247Y-96202975D01*
X182496247Y-96202975D02*
X182734342Y-96202975D01*
X182734342Y-96202975D02*
X182829580Y-96250594D01*
X182829580Y-96250594D02*
X182877200Y-96298213D01*
X182877200Y-96298213D02*
X182924819Y-96393451D01*
X182924819Y-96393451D02*
X182924819Y-96679165D01*
X182924819Y-96679165D02*
X182877200Y-96774403D01*
X182877200Y-96774403D02*
X182829580Y-96822022D01*
X182020057Y-95822022D02*
X181972438Y-95774403D01*
X181972438Y-95774403D02*
X181924819Y-95679165D01*
X181924819Y-95679165D02*
X181924819Y-95441070D01*
X181924819Y-95441070D02*
X181972438Y-95345832D01*
X181972438Y-95345832D02*
X182020057Y-95298213D01*
X182020057Y-95298213D02*
X182115295Y-95250594D01*
X182115295Y-95250594D02*
X182210533Y-95250594D01*
X182210533Y-95250594D02*
X182353390Y-95298213D01*
X182353390Y-95298213D02*
X182924819Y-95869641D01*
X182924819Y-95869641D02*
X182924819Y-95250594D01*
X182624819Y-83201786D02*
X181624819Y-83201786D01*
X181624819Y-83201786D02*
X181624819Y-82963691D01*
X181624819Y-82963691D02*
X181672438Y-82820834D01*
X181672438Y-82820834D02*
X181767676Y-82725596D01*
X181767676Y-82725596D02*
X181862914Y-82677977D01*
X181862914Y-82677977D02*
X182053390Y-82630358D01*
X182053390Y-82630358D02*
X182196247Y-82630358D01*
X182196247Y-82630358D02*
X182386723Y-82677977D01*
X182386723Y-82677977D02*
X182481961Y-82725596D01*
X182481961Y-82725596D02*
X182577200Y-82820834D01*
X182577200Y-82820834D02*
X182624819Y-82963691D01*
X182624819Y-82963691D02*
X182624819Y-83201786D01*
X181720057Y-82249405D02*
X181672438Y-82201786D01*
X181672438Y-82201786D02*
X181624819Y-82106548D01*
X181624819Y-82106548D02*
X181624819Y-81868453D01*
X181624819Y-81868453D02*
X181672438Y-81773215D01*
X181672438Y-81773215D02*
X181720057Y-81725596D01*
X181720057Y-81725596D02*
X181815295Y-81677977D01*
X181815295Y-81677977D02*
X181910533Y-81677977D01*
X181910533Y-81677977D02*
X182053390Y-81725596D01*
X182053390Y-81725596D02*
X182624819Y-82297024D01*
X182624819Y-82297024D02*
X182624819Y-81677977D01*
X182053390Y-81106548D02*
X182005771Y-81201786D01*
X182005771Y-81201786D02*
X181958152Y-81249405D01*
X181958152Y-81249405D02*
X181862914Y-81297024D01*
X181862914Y-81297024D02*
X181815295Y-81297024D01*
X181815295Y-81297024D02*
X181720057Y-81249405D01*
X181720057Y-81249405D02*
X181672438Y-81201786D01*
X181672438Y-81201786D02*
X181624819Y-81106548D01*
X181624819Y-81106548D02*
X181624819Y-80916072D01*
X181624819Y-80916072D02*
X181672438Y-80820834D01*
X181672438Y-80820834D02*
X181720057Y-80773215D01*
X181720057Y-80773215D02*
X181815295Y-80725596D01*
X181815295Y-80725596D02*
X181862914Y-80725596D01*
X181862914Y-80725596D02*
X181958152Y-80773215D01*
X181958152Y-80773215D02*
X182005771Y-80820834D01*
X182005771Y-80820834D02*
X182053390Y-80916072D01*
X182053390Y-80916072D02*
X182053390Y-81106548D01*
X182053390Y-81106548D02*
X182101009Y-81201786D01*
X182101009Y-81201786D02*
X182148628Y-81249405D01*
X182148628Y-81249405D02*
X182243866Y-81297024D01*
X182243866Y-81297024D02*
X182434342Y-81297024D01*
X182434342Y-81297024D02*
X182529580Y-81249405D01*
X182529580Y-81249405D02*
X182577200Y-81201786D01*
X182577200Y-81201786D02*
X182624819Y-81106548D01*
X182624819Y-81106548D02*
X182624819Y-80916072D01*
X182624819Y-80916072D02*
X182577200Y-80820834D01*
X182577200Y-80820834D02*
X182529580Y-80773215D01*
X182529580Y-80773215D02*
X182434342Y-80725596D01*
X182434342Y-80725596D02*
X182243866Y-80725596D01*
X182243866Y-80725596D02*
X182148628Y-80773215D01*
X182148628Y-80773215D02*
X182101009Y-80820834D01*
X182101009Y-80820834D02*
X182053390Y-80916072D01*
X127531009Y-97085714D02*
X127578628Y-96942857D01*
X127578628Y-96942857D02*
X127626247Y-96895238D01*
X127626247Y-96895238D02*
X127721485Y-96847619D01*
X127721485Y-96847619D02*
X127864342Y-96847619D01*
X127864342Y-96847619D02*
X127959580Y-96895238D01*
X127959580Y-96895238D02*
X128007200Y-96942857D01*
X128007200Y-96942857D02*
X128054819Y-97038095D01*
X128054819Y-97038095D02*
X128054819Y-97419047D01*
X128054819Y-97419047D02*
X127054819Y-97419047D01*
X127054819Y-97419047D02*
X127054819Y-97085714D01*
X127054819Y-97085714D02*
X127102438Y-96990476D01*
X127102438Y-96990476D02*
X127150057Y-96942857D01*
X127150057Y-96942857D02*
X127245295Y-96895238D01*
X127245295Y-96895238D02*
X127340533Y-96895238D01*
X127340533Y-96895238D02*
X127435771Y-96942857D01*
X127435771Y-96942857D02*
X127483390Y-96990476D01*
X127483390Y-96990476D02*
X127531009Y-97085714D01*
X127531009Y-97085714D02*
X127531009Y-97419047D01*
X127054819Y-96561904D02*
X127054819Y-95990476D01*
X128054819Y-96276190D02*
X127054819Y-96276190D01*
X128054819Y-95133333D02*
X128054819Y-95704761D01*
X128054819Y-95419047D02*
X127054819Y-95419047D01*
X127054819Y-95419047D02*
X127197676Y-95514285D01*
X127197676Y-95514285D02*
X127292914Y-95609523D01*
X127292914Y-95609523D02*
X127340533Y-95704761D01*
D11*
%TO.C,D6*%
X189765000Y-88512499D02*
X189765000Y-90797499D01*
X189765000Y-90797499D02*
X191235000Y-90797499D01*
X191235000Y-90797499D02*
X191235000Y-88512499D01*
%TO.C,D26*%
X182665000Y-74187501D02*
X182665000Y-76472501D01*
X182665000Y-76472501D02*
X184135000Y-76472501D01*
X184135000Y-76472501D02*
X184135000Y-74187501D01*
%TO.C,R4*%
X172012258Y-82377500D02*
X171537742Y-82377500D01*
X172012258Y-83422500D02*
X171537742Y-83422500D01*
%TO.C,R16*%
X180477500Y-67637742D02*
X180477500Y-68112258D01*
X181522500Y-67637742D02*
X181522500Y-68112258D01*
%TO.C,D5*%
X189765000Y-84912499D02*
X189765000Y-87197499D01*
X189765000Y-87197499D02*
X191235000Y-87197499D01*
X191235000Y-87197499D02*
X191235000Y-84912499D01*
%TO.C,D18*%
X184865000Y-74100000D02*
X184865000Y-76385000D01*
X184865000Y-76385000D02*
X186335000Y-76385000D01*
X186335000Y-76385000D02*
X186335000Y-74100000D01*
%TO.C,D4*%
X189765000Y-81387501D02*
X189765000Y-83672501D01*
X189765000Y-83672501D02*
X191235000Y-83672501D01*
X191235000Y-83672501D02*
X191235000Y-81387501D01*
%TO.C,R5*%
X172112258Y-85777500D02*
X171637742Y-85777500D01*
X172112258Y-86822500D02*
X171637742Y-86822500D01*
%TO.C,D1*%
X189765000Y-70812499D02*
X189765000Y-73097499D01*
X189765000Y-73097499D02*
X191235000Y-73097499D01*
X191235000Y-73097499D02*
X191235000Y-70812499D01*
%TO.C,R17*%
X182777500Y-67637742D02*
X182777500Y-68112258D01*
X183822500Y-67637742D02*
X183822500Y-68112258D01*
%TO.C,D62*%
X173965000Y-88200000D02*
X173965000Y-90485000D01*
X173965000Y-90485000D02*
X175435000Y-90485000D01*
X175435000Y-90485000D02*
X175435000Y-88200000D01*
%TO.C,D40*%
X180565000Y-95712499D02*
X180565000Y-97997499D01*
X180565000Y-97997499D02*
X182035000Y-97997499D01*
X182035000Y-97997499D02*
X182035000Y-95712499D01*
%TO.C,D36*%
X180365000Y-81212499D02*
X180365000Y-83497499D01*
X180365000Y-83497499D02*
X181835000Y-83497499D01*
X181835000Y-83497499D02*
X181835000Y-81212499D01*
%TO.C,R2*%
X171912258Y-75177500D02*
X171437742Y-75177500D01*
X171912258Y-76222500D02*
X171437742Y-76222500D01*
%TO.C,D3*%
X189765000Y-77912499D02*
X189765000Y-80197499D01*
X189765000Y-80197499D02*
X191235000Y-80197499D01*
X191235000Y-80197499D02*
X191235000Y-77912499D01*
%TO.C,SW1*%
X148450000Y-85399999D02*
X148450000Y-82899999D01*
X148900000Y-82449999D02*
X148450000Y-82899999D01*
X148900000Y-85849999D02*
X148450000Y-85399999D01*
X150200000Y-81399999D02*
X152200000Y-81399999D01*
X150200000Y-86899999D02*
X152200000Y-86899999D01*
X153500000Y-82449999D02*
X153950000Y-82899999D01*
X153500000Y-85849999D02*
X153950000Y-85399999D01*
X153950000Y-85399999D02*
X153950000Y-82899999D01*
%TO.C,D51*%
X176065000Y-77612499D02*
X176065000Y-79897499D01*
X176065000Y-79897499D02*
X177535000Y-79897499D01*
X177535000Y-79897499D02*
X177535000Y-77612499D01*
%TO.C,R20*%
X189977500Y-67687742D02*
X189977500Y-68162258D01*
X191022500Y-67687742D02*
X191022500Y-68162258D01*
%TO.C,D61*%
X173865000Y-84612499D02*
X173865000Y-86897499D01*
X173865000Y-86897499D02*
X175335000Y-86897499D01*
X175335000Y-86897499D02*
X175335000Y-84612499D01*
%TO.C,D42*%
X178265000Y-74087501D02*
X178265000Y-76372501D01*
X178265000Y-76372501D02*
X179735000Y-76372501D01*
X179735000Y-76372501D02*
X179735000Y-74087501D01*
%TO.C,D15*%
X187465000Y-92212499D02*
X187465000Y-94497499D01*
X187465000Y-94497499D02*
X188935000Y-94497499D01*
X188935000Y-94497499D02*
X188935000Y-92212499D01*
%TO.C,D17*%
X184865000Y-70712499D02*
X184865000Y-72997499D01*
X184865000Y-72997499D02*
X186335000Y-72997499D01*
X186335000Y-72997499D02*
X186335000Y-70712499D01*
%TO.C,D23*%
X185165000Y-92112499D02*
X185165000Y-94397499D01*
X185165000Y-94397499D02*
X186635000Y-94397499D01*
X186635000Y-94397499D02*
X186635000Y-92112499D01*
%TO.C,D48*%
X178565000Y-95712499D02*
X178565000Y-97997499D01*
X178565000Y-97997499D02*
X180035000Y-97997499D01*
X180035000Y-97997499D02*
X180035000Y-95712499D01*
%TO.C,D22*%
X185065000Y-88387501D02*
X185065000Y-90672501D01*
X185065000Y-90672501D02*
X186535000Y-90672501D01*
X186535000Y-90672501D02*
X186535000Y-88387501D01*
%TO.C,D45*%
X178465000Y-84787501D02*
X178465000Y-87072501D01*
X178465000Y-87072501D02*
X179935000Y-87072501D01*
X179935000Y-87072501D02*
X179935000Y-84787501D01*
%TO.C,D44*%
X178365000Y-81212499D02*
X178365000Y-83497499D01*
X178365000Y-83497499D02*
X179835000Y-83497499D01*
X179835000Y-83497499D02*
X179835000Y-81212499D01*
%TO.C,D20*%
X184965000Y-81212499D02*
X184965000Y-83497499D01*
X184965000Y-83497499D02*
X186435000Y-83497499D01*
X186435000Y-83497499D02*
X186435000Y-81212499D01*
%TO.C,D19*%
X184865000Y-77712499D02*
X184865000Y-79997499D01*
X184865000Y-79997499D02*
X186335000Y-79997499D01*
X186335000Y-79997499D02*
X186335000Y-77712499D01*
%TO.C,D33*%
X180265000Y-70712499D02*
X180265000Y-72997499D01*
X180265000Y-72997499D02*
X181735000Y-72997499D01*
X181735000Y-72997499D02*
X181735000Y-70712499D01*
%TO.C,D57*%
X173765000Y-70787501D02*
X173765000Y-73072501D01*
X173765000Y-73072501D02*
X175235000Y-73072501D01*
X175235000Y-73072501D02*
X175235000Y-70787501D01*
%TO.C,R19*%
X187577500Y-67662742D02*
X187577500Y-68137258D01*
X188622500Y-67662742D02*
X188622500Y-68137258D01*
%TO.C,D54*%
X176065000Y-88312499D02*
X176065000Y-90597499D01*
X176065000Y-90597499D02*
X177535000Y-90597499D01*
X177535000Y-90597499D02*
X177535000Y-88312499D01*
%TO.C,D35*%
X180365000Y-77712499D02*
X180365000Y-79997499D01*
X180365000Y-79997499D02*
X181835000Y-79997499D01*
X181835000Y-79997499D02*
X181835000Y-77712499D01*
%TO.C,D30*%
X183065000Y-88412499D02*
X183065000Y-90697499D01*
X183065000Y-90697499D02*
X184535000Y-90697499D01*
X184535000Y-90697499D02*
X184535000Y-88412499D01*
%TO.C,D29*%
X182965000Y-84812499D02*
X182965000Y-87097499D01*
X182965000Y-87097499D02*
X184435000Y-87097499D01*
X184435000Y-87097499D02*
X184435000Y-84812499D01*
%TO.C,R1*%
X171862258Y-71877500D02*
X171387742Y-71877500D01*
X171862258Y-72922500D02*
X171387742Y-72922500D01*
%TO.C,D43*%
X178365000Y-77612499D02*
X178365000Y-79897499D01*
X178365000Y-79897499D02*
X179835000Y-79897499D01*
X179835000Y-79897499D02*
X179835000Y-77612499D01*
%TO.C,R18*%
X185077500Y-67687742D02*
X185077500Y-68162258D01*
X186122500Y-67687742D02*
X186122500Y-68162258D01*
%TO.C,D64*%
X174065000Y-95712499D02*
X174065000Y-97997499D01*
X174065000Y-97997499D02*
X175535000Y-97997499D01*
X175535000Y-97997499D02*
X175535000Y-95712499D01*
%TO.C,D27*%
X182765000Y-77712499D02*
X182765000Y-79997499D01*
X182765000Y-79997499D02*
X184235000Y-79997499D01*
X184235000Y-79997499D02*
X184235000Y-77712499D01*
%TO.C,R14*%
X176177500Y-67737742D02*
X176177500Y-68212258D01*
X177222500Y-67737742D02*
X177222500Y-68212258D01*
%TO.C,D47*%
X178465000Y-92012499D02*
X178465000Y-94297499D01*
X178465000Y-94297499D02*
X179935000Y-94297499D01*
X179935000Y-94297499D02*
X179935000Y-92012499D01*
%TO.C,D34*%
X180265000Y-74100000D02*
X180265000Y-76385000D01*
X180265000Y-76385000D02*
X181735000Y-76385000D01*
X181735000Y-76385000D02*
X181735000Y-74100000D01*
%TO.C,R15*%
X178577500Y-67662742D02*
X178577500Y-68137258D01*
X179622500Y-67662742D02*
X179622500Y-68137258D01*
%TO.C,D11*%
X187365000Y-77787501D02*
X187365000Y-80072501D01*
X187365000Y-80072501D02*
X188835000Y-80072501D01*
X188835000Y-80072501D02*
X188835000Y-77787501D01*
%TO.C,D16*%
X187465000Y-95900000D02*
X187465000Y-98185000D01*
X187465000Y-98185000D02*
X188935000Y-98185000D01*
X188935000Y-98185000D02*
X188935000Y-95900000D01*
%TO.C,D14*%
X187465000Y-88412499D02*
X187465000Y-90697499D01*
X187465000Y-90697499D02*
X188935000Y-90697499D01*
X188935000Y-90697499D02*
X188935000Y-88412499D01*
%TO.C,D8*%
X189765000Y-95912499D02*
X189765000Y-98197499D01*
X189765000Y-98197499D02*
X191235000Y-98197499D01*
X191235000Y-98197499D02*
X191235000Y-95912499D01*
%TO.C,D9*%
X187265000Y-70812499D02*
X187265000Y-73097499D01*
X187265000Y-73097499D02*
X188735000Y-73097499D01*
X188735000Y-73097499D02*
X188735000Y-70812499D01*
%TO.C,D2*%
X189765000Y-74300000D02*
X189765000Y-76585000D01*
X189765000Y-76585000D02*
X191235000Y-76585000D01*
X191235000Y-76585000D02*
X191235000Y-74300000D01*
%TO.C,D52*%
X176065000Y-81212499D02*
X176065000Y-83497499D01*
X176065000Y-83497499D02*
X177535000Y-83497499D01*
X177535000Y-83497499D02*
X177535000Y-81212499D01*
%TO.C,D38*%
X180465000Y-88412499D02*
X180465000Y-90697499D01*
X180465000Y-90697499D02*
X181935000Y-90697499D01*
X181935000Y-90697499D02*
X181935000Y-88412499D01*
%TO.C,D56*%
X176065000Y-95687501D02*
X176065000Y-97972501D01*
X176065000Y-97972501D02*
X177535000Y-97972501D01*
X177535000Y-97972501D02*
X177535000Y-95687501D01*
%TO.C,D41*%
X178165000Y-70812499D02*
X178165000Y-73097499D01*
X178165000Y-73097499D02*
X179635000Y-73097499D01*
X179635000Y-73097499D02*
X179635000Y-70812499D01*
%TO.C,D53*%
X176065000Y-84687501D02*
X176065000Y-86972501D01*
X176065000Y-86972501D02*
X177535000Y-86972501D01*
X177535000Y-86972501D02*
X177535000Y-84687501D01*
%TO.C,R3*%
X171912258Y-78777500D02*
X171437742Y-78777500D01*
X171912258Y-79822500D02*
X171437742Y-79822500D01*
%TO.C,D39*%
X180565000Y-92112499D02*
X180565000Y-94397499D01*
X180565000Y-94397499D02*
X182035000Y-94397499D01*
X182035000Y-94397499D02*
X182035000Y-92112499D01*
%TO.C,R13*%
X173877500Y-67787742D02*
X173877500Y-68262258D01*
X174922500Y-67787742D02*
X174922500Y-68262258D01*
%TO.C,D37*%
X180465000Y-84812499D02*
X180465000Y-87097499D01*
X180465000Y-87097499D02*
X181935000Y-87097499D01*
X181935000Y-87097499D02*
X181935000Y-84812499D01*
%TO.C,D31*%
X183165000Y-92212499D02*
X183165000Y-94497499D01*
X183165000Y-94497499D02*
X184635000Y-94497499D01*
X184635000Y-94497499D02*
X184635000Y-92212499D01*
%TO.C,D46*%
X178465000Y-88387501D02*
X178465000Y-90672501D01*
X178465000Y-90672501D02*
X179935000Y-90672501D01*
X179935000Y-90672501D02*
X179935000Y-88387501D01*
%TO.C,D10*%
X187365000Y-74287501D02*
X187365000Y-76572501D01*
X187365000Y-76572501D02*
X188835000Y-76572501D01*
X188835000Y-76572501D02*
X188835000Y-74287501D01*
%TO.C,D12*%
X187365000Y-81287501D02*
X187365000Y-83572501D01*
X187365000Y-83572501D02*
X188835000Y-83572501D01*
X188835000Y-83572501D02*
X188835000Y-81287501D01*
%TO.C,D13*%
X187365000Y-84912499D02*
X187365000Y-87197499D01*
X187365000Y-87197499D02*
X188835000Y-87197499D01*
X188835000Y-87197499D02*
X188835000Y-84912499D01*
%TO.C,D49*%
X175965000Y-70812499D02*
X175965000Y-73097499D01*
X175965000Y-73097499D02*
X177435000Y-73097499D01*
X177435000Y-73097499D02*
X177435000Y-70812499D01*
%TO.C,D21*%
X184965000Y-84812499D02*
X184965000Y-87097499D01*
X184965000Y-87097499D02*
X186435000Y-87097499D01*
X186435000Y-87097499D02*
X186435000Y-84812499D01*
%TO.C,D58*%
X173765000Y-74112499D02*
X173765000Y-76397499D01*
X173765000Y-76397499D02*
X175235000Y-76397499D01*
X175235000Y-76397499D02*
X175235000Y-74112499D01*
%TO.C,R6*%
X172112258Y-89377500D02*
X171637742Y-89377500D01*
X172112258Y-90422500D02*
X171637742Y-90422500D01*
%TO.C,R7*%
X172212258Y-92877500D02*
X171737742Y-92877500D01*
X172212258Y-93922500D02*
X171737742Y-93922500D01*
%TO.C,D59*%
X173765000Y-77612499D02*
X173765000Y-79897499D01*
X173765000Y-79897499D02*
X175235000Y-79897499D01*
X175235000Y-79897499D02*
X175235000Y-77612499D01*
%TO.C,U1*%
X149465000Y-69165000D02*
X149915000Y-69165000D01*
X149465000Y-69615000D02*
X149465000Y-69165000D01*
X149465000Y-72385000D02*
X149465000Y-71935000D01*
X149915000Y-72385000D02*
X149465000Y-72385000D01*
X152235000Y-69165000D02*
X152685000Y-69165000D01*
X152685000Y-69165000D02*
X152685000Y-69615000D01*
X152685000Y-71935000D02*
X152685000Y-72385000D01*
X152685000Y-72385000D02*
X152235000Y-72385000D01*
X148955000Y-69975000D02*
X148625000Y-70215000D01*
X148625000Y-69735000D01*
X148955000Y-69975000D01*
G36*
X148955000Y-69975000D02*
G01*
X148625000Y-70215000D01*
X148625000Y-69735000D01*
X148955000Y-69975000D01*
G37*
%TO.C,R8*%
X172112258Y-96877500D02*
X171637742Y-96877500D01*
X172112258Y-97922500D02*
X171637742Y-97922500D01*
%TO.C,D63*%
X173965000Y-91900000D02*
X173965000Y-94185000D01*
X173965000Y-94185000D02*
X175435000Y-94185000D01*
X175435000Y-94185000D02*
X175435000Y-91900000D01*
%TO.C,D55*%
X176065000Y-91912499D02*
X176065000Y-94197499D01*
X176065000Y-94197499D02*
X177535000Y-94197499D01*
X177535000Y-94197499D02*
X177535000Y-91912499D01*
%TO.C,D24*%
X185165000Y-95800000D02*
X185165000Y-98085000D01*
X185165000Y-98085000D02*
X186635000Y-98085000D01*
X186635000Y-98085000D02*
X186635000Y-95800000D01*
%TO.C,D25*%
X182565000Y-70712499D02*
X182565000Y-72997499D01*
X182565000Y-72997499D02*
X184035000Y-72997499D01*
X184035000Y-72997499D02*
X184035000Y-70712499D01*
%TO.C,D7*%
X189765000Y-92212499D02*
X189765000Y-94497499D01*
X189765000Y-94497499D02*
X191235000Y-94497499D01*
X191235000Y-94497499D02*
X191235000Y-92212499D01*
%TO.C,D50*%
X175965000Y-74112499D02*
X175965000Y-76397499D01*
X175965000Y-76397499D02*
X177435000Y-76397499D01*
X177435000Y-76397499D02*
X177435000Y-74112499D01*
%TO.C,D60*%
X173865000Y-81212499D02*
X173865000Y-83497499D01*
X173865000Y-83497499D02*
X175335000Y-83497499D01*
X175335000Y-83497499D02*
X175335000Y-81212499D01*
%TO.C,D32*%
X183165000Y-95712499D02*
X183165000Y-97997499D01*
X183165000Y-97997499D02*
X184635000Y-97997499D01*
X184635000Y-97997499D02*
X184635000Y-95712499D01*
%TO.C,D28*%
X182865000Y-81187501D02*
X182865000Y-83472501D01*
X182865000Y-83472501D02*
X184335000Y-83472501D01*
X184335000Y-83472501D02*
X184335000Y-81187501D01*
%TO.C,BT1*%
X128899999Y-98050000D02*
X129900000Y-98050000D01*
X129399999Y-97550000D02*
X129399999Y-98550000D01*
%TD*%
M02*
