%TF.GenerationSoftware,KiCad,Pcbnew,9.0.7*%
%TF.CreationDate,2026-05-05T18:13:39-07:00*%
%TF.ProjectId,Flappy Bird,466c6170-7079-4204-9269-72642e6b6963,rev?*%
%TF.SameCoordinates,Original*%
%TF.FileFunction,Soldermask,Bot*%
%TF.FilePolarity,Negative*%
%FSLAX46Y46*%
G04 Gerber Fmt 4.6, Leading zero omitted, Abs format (unit mm)*
G04 Created by KiCad (PCBNEW 9.0.7) date 2026-05-05 18:13:39*
%MOMM*%
%LPD*%
G01*
G04 APERTURE LIST*
%ADD10C,0.000000*%
G04 APERTURE END LIST*
D10*
%TO.C,G\u002A\u002A\u002A*%
G36*
X151180806Y-82856965D02*
G01*
X151180806Y-83512280D01*
X150525491Y-83512280D01*
X149870176Y-83512280D01*
X149870176Y-82856965D01*
X149870176Y-82201650D01*
X150525491Y-82201650D01*
X151180806Y-82201650D01*
X151180806Y-82856965D01*
G37*
G36*
X152439010Y-81572548D02*
G01*
X152439010Y-82201650D01*
X151809908Y-82201650D01*
X151180806Y-82201650D01*
X151180806Y-81572548D01*
X151180806Y-80943446D01*
X151809908Y-80943446D01*
X152439010Y-80943446D01*
X152439010Y-81572548D01*
G37*
G36*
X152439010Y-84796697D02*
G01*
X152439010Y-86081114D01*
X151809908Y-86081114D01*
X151180806Y-86081114D01*
X151180806Y-84796697D01*
X151180806Y-83512280D01*
X151809908Y-83512280D01*
X152439010Y-83512280D01*
X152439010Y-84796697D01*
G37*
G36*
X155007844Y-86710216D02*
G01*
X155007844Y-87339318D01*
X154378742Y-87339318D01*
X153749639Y-87339318D01*
X153749639Y-86710216D01*
X153749639Y-86081114D01*
X154378742Y-86081114D01*
X155007844Y-86081114D01*
X155007844Y-86710216D01*
G37*
G36*
X156318473Y-84141382D02*
G01*
X156318473Y-86081114D01*
X155663158Y-86081114D01*
X155007844Y-86081114D01*
X155007844Y-84141382D01*
X155007844Y-82201650D01*
X155663158Y-82201650D01*
X156318473Y-82201650D01*
X156318473Y-84141382D01*
G37*
G36*
X160145511Y-87365531D02*
G01*
X160145511Y-88649947D01*
X159516409Y-88649947D01*
X158887307Y-88649947D01*
X158887307Y-87365531D01*
X158887307Y-86081114D01*
X159516409Y-86081114D01*
X160145511Y-86081114D01*
X160145511Y-87365531D01*
G37*
G36*
X161456141Y-85425799D02*
G01*
X161456141Y-86081114D01*
X160800826Y-86081114D01*
X160145511Y-86081114D01*
X160145511Y-85425799D01*
X160145511Y-84770484D01*
X160800826Y-84770484D01*
X161456141Y-84770484D01*
X161456141Y-85425799D01*
G37*
G36*
X167236017Y-84770484D02*
G01*
X167852013Y-84770484D01*
X167852013Y-86710216D01*
X167852013Y-88649947D01*
X167236017Y-88649947D01*
X166620021Y-88649947D01*
X166620021Y-86710216D01*
X166620021Y-84770484D01*
X167236017Y-84770484D01*
G37*
G36*
X163382766Y-82201650D02*
G01*
X164051187Y-82201650D01*
X164051187Y-82856965D01*
X164051187Y-83512280D01*
X165335604Y-83512280D01*
X166620021Y-83512280D01*
X166620021Y-84141382D01*
X166620021Y-84770484D01*
X164038081Y-84770484D01*
X161456141Y-84770484D01*
X161456141Y-84141382D01*
X161456141Y-83512280D01*
X162085243Y-83512280D01*
X162714345Y-83512280D01*
X162714345Y-82856965D01*
X162714345Y-82201650D01*
X163382766Y-82201650D01*
G37*
G36*
X161429928Y-80943446D02*
G01*
X162714345Y-80943446D01*
X162714345Y-81572548D01*
X162714345Y-82201650D01*
X161429928Y-82201650D01*
X160145511Y-82201650D01*
X160145511Y-81572548D01*
X160145511Y-80943446D01*
X161429928Y-80943446D01*
G37*
G36*
X160145511Y-80288131D02*
G01*
X160145511Y-80943446D01*
X157576678Y-80943446D01*
X155007844Y-80943446D01*
X155007844Y-81572548D01*
X155007844Y-82201650D01*
X154378742Y-82201650D01*
X153749639Y-82201650D01*
X153749639Y-81572548D01*
X153749639Y-80943446D01*
X153094325Y-80943446D01*
X152439010Y-80943446D01*
X152439010Y-80288131D01*
X152439010Y-79632816D01*
X156292261Y-79632816D01*
X160145511Y-79632816D01*
X160145511Y-80288131D01*
G37*
G36*
X155007844Y-89908152D02*
G01*
X154391848Y-89908152D01*
X153775852Y-89908152D01*
X153775852Y-90563467D01*
X153775852Y-91218781D01*
X154391848Y-91218781D01*
X155007844Y-91218781D01*
X155007844Y-90563467D01*
X155007844Y-89908152D01*
X155676715Y-89908152D01*
X156345586Y-89908152D01*
X156338652Y-90563467D01*
X156338583Y-90570020D01*
X156331580Y-91231888D01*
X155669712Y-91238891D01*
X155007844Y-91245894D01*
X155007844Y-91861119D01*
X155007844Y-91861440D01*
X155007844Y-92476986D01*
X154391848Y-92476986D01*
X153775852Y-92476986D01*
X153775852Y-93132300D01*
X153775852Y-93787615D01*
X156331580Y-93787615D01*
X158887307Y-93787615D01*
X158887307Y-93132300D01*
X158887307Y-92476986D01*
X160171724Y-92476986D01*
X161456141Y-92476986D01*
X161456141Y-91192569D01*
X161456141Y-89908152D01*
X160800826Y-89908152D01*
X160145511Y-89908152D01*
X160145511Y-89278600D01*
X160145511Y-88649047D01*
X160807379Y-88656050D01*
X161469247Y-88663054D01*
X161476275Y-89285603D01*
X161483302Y-89908152D01*
X163383241Y-89908152D01*
X165283179Y-89908152D01*
X165283179Y-89279050D01*
X165283179Y-88649947D01*
X165951600Y-88649947D01*
X166620021Y-88649947D01*
X166620021Y-89279050D01*
X166620021Y-89908152D01*
X165951600Y-89908152D01*
X165283179Y-89908152D01*
X165283179Y-90563467D01*
X165283179Y-91218781D01*
X163998762Y-91218781D01*
X162714345Y-91218781D01*
X162714345Y-91847883D01*
X162714345Y-92476986D01*
X162102080Y-92476986D01*
X161489815Y-92476986D01*
X161471713Y-92763066D01*
X161466203Y-92900037D01*
X161464296Y-93071143D01*
X161466193Y-93251240D01*
X161471886Y-93418380D01*
X161490162Y-93787615D01*
X160188735Y-93787615D01*
X158887307Y-93787615D01*
X158887307Y-94416717D01*
X158887307Y-95045819D01*
X156318473Y-95045819D01*
X153749639Y-95045819D01*
X153749639Y-94416717D01*
X153749639Y-93787615D01*
X150525491Y-93787615D01*
X147301342Y-93787615D01*
X147301342Y-91847883D01*
X147301342Y-91244994D01*
X148611005Y-91244994D01*
X148618042Y-91854437D01*
X148625078Y-92463879D01*
X151187359Y-92470562D01*
X153749639Y-92477244D01*
X153749639Y-91861119D01*
X153749639Y-91244994D01*
X151180322Y-91244994D01*
X148611005Y-91244994D01*
X147301342Y-91244994D01*
X147301342Y-89908152D01*
X146672240Y-89908152D01*
X146043138Y-89908152D01*
X146043138Y-89279050D01*
X146043138Y-88676160D01*
X147301342Y-88676160D01*
X147301342Y-89279050D01*
X147301342Y-89881939D01*
X150525491Y-89881939D01*
X153749639Y-89881939D01*
X153749639Y-89279050D01*
X153749639Y-88676160D01*
X150525491Y-88676160D01*
X147301342Y-88676160D01*
X146043138Y-88676160D01*
X146043138Y-88649947D01*
X146672240Y-88649947D01*
X147301342Y-88649947D01*
X147301342Y-87994633D01*
X147301342Y-87339318D01*
X147956657Y-87339318D01*
X148611972Y-87339318D01*
X148611972Y-85425799D01*
X148611972Y-83512280D01*
X149241074Y-83512280D01*
X149870176Y-83512280D01*
X149870176Y-85425799D01*
X149870176Y-87339318D01*
X151809908Y-87339318D01*
X153749639Y-87339318D01*
X153749639Y-87994633D01*
X153749639Y-88649947D01*
X154378742Y-88649947D01*
X155007844Y-88649947D01*
X155007844Y-89279050D01*
X155007844Y-89908152D01*
G37*
%TD*%
M02*
