%TF.GenerationSoftware,KiCad,Pcbnew,9.0.7*%
%TF.CreationDate,2026-05-05T18:13:39-07:00*%
%TF.ProjectId,Flappy Bird,466c6170-7079-4204-9269-72642e6b6963,rev?*%
%TF.SameCoordinates,Original*%
%TF.FileFunction,Copper,L1,Top*%
%TF.FilePolarity,Positive*%
%FSLAX46Y46*%
G04 Gerber Fmt 4.6, Leading zero omitted, Abs format (unit mm)*
G04 Created by KiCad (PCBNEW 9.0.7) date 2026-05-05 18:13:39*
%MOMM*%
%LPD*%
G01*
G04 APERTURE LIST*
G04 Aperture macros list*
%AMRoundRect*
0 Rectangle with rounded corners*
0 $1 Rounding radius*
0 $2 $3 $4 $5 $6 $7 $8 $9 X,Y pos of 4 corners*
0 Add a 4 corners polygon primitive as box body*
4,1,4,$2,$3,$4,$5,$6,$7,$8,$9,$2,$3,0*
0 Add four circle primitives for the rounded corners*
1,1,$1+$1,$2,$3*
1,1,$1+$1,$4,$5*
1,1,$1+$1,$6,$7*
1,1,$1+$1,$8,$9*
0 Add four rect primitives between the rounded corners*
20,1,$1+$1,$2,$3,$4,$5,0*
20,1,$1+$1,$4,$5,$6,$7,0*
20,1,$1+$1,$6,$7,$8,$9,0*
20,1,$1+$1,$8,$9,$2,$3,0*%
%AMFreePoly0*
4,1,14,0.334644,0.085355,0.385355,0.034644,0.400000,-0.000711,0.400000,-0.050000,0.385355,-0.085355,0.350000,-0.100000,-0.350000,-0.100000,-0.385355,-0.085355,-0.400000,-0.050000,-0.400000,0.050000,-0.385355,0.085355,-0.350000,0.100000,0.299289,0.100000,0.334644,0.085355,0.334644,0.085355,$1*%
%AMFreePoly1*
4,1,14,0.385355,0.085355,0.400000,0.050000,0.400000,0.000711,0.385355,-0.034644,0.334644,-0.085355,0.299289,-0.100000,-0.350000,-0.100000,-0.385355,-0.085355,-0.400000,-0.050000,-0.400000,0.050000,-0.385355,0.085355,-0.350000,0.100000,0.350000,0.100000,0.385355,0.085355,0.385355,0.085355,$1*%
%AMFreePoly2*
4,1,14,0.085355,0.385355,0.100000,0.350000,0.100000,-0.350000,0.085355,-0.385355,0.050000,-0.400000,-0.050000,-0.400000,-0.085355,-0.385355,-0.100000,-0.350000,-0.100000,0.299289,-0.085355,0.334644,-0.034644,0.385355,0.000711,0.400000,0.050000,0.400000,0.085355,0.385355,0.085355,0.385355,$1*%
%AMFreePoly3*
4,1,14,0.034644,0.385355,0.085355,0.334644,0.100000,0.299289,0.100000,-0.350000,0.085355,-0.385355,0.050000,-0.400000,-0.050000,-0.400000,-0.085355,-0.385355,-0.100000,-0.350000,-0.100000,0.350000,-0.085355,0.385355,-0.050000,0.400000,-0.000711,0.400000,0.034644,0.385355,0.034644,0.385355,$1*%
%AMFreePoly4*
4,1,14,0.385355,0.085355,0.400000,0.050000,0.400000,-0.050000,0.385355,-0.085355,0.350000,-0.100000,-0.299289,-0.100000,-0.334644,-0.085355,-0.385355,-0.034644,-0.400000,0.000711,-0.400000,0.050000,-0.385355,0.085355,-0.350000,0.100000,0.350000,0.100000,0.385355,0.085355,0.385355,0.085355,$1*%
%AMFreePoly5*
4,1,14,0.385355,0.085355,0.400000,0.050000,0.400000,-0.050000,0.385355,-0.085355,0.350000,-0.100000,-0.350000,-0.100000,-0.385355,-0.085355,-0.400000,-0.050000,-0.400000,-0.000711,-0.385355,0.034644,-0.334644,0.085355,-0.299289,0.100000,0.350000,0.100000,0.385355,0.085355,0.385355,0.085355,$1*%
%AMFreePoly6*
4,1,14,0.085355,0.385355,0.100000,0.350000,0.100000,-0.299289,0.085355,-0.334644,0.034644,-0.385355,-0.000711,-0.400000,-0.050000,-0.400000,-0.085355,-0.385355,-0.100000,-0.350000,-0.100000,0.350000,-0.085355,0.385355,-0.050000,0.400000,0.050000,0.400000,0.085355,0.385355,0.085355,0.385355,$1*%
%AMFreePoly7*
4,1,14,0.085355,0.385355,0.100000,0.350000,0.100000,-0.350000,0.085355,-0.385355,0.050000,-0.400000,0.000711,-0.400000,-0.034644,-0.385355,-0.085355,-0.334644,-0.100000,-0.299289,-0.100000,0.350000,-0.085355,0.385355,-0.050000,0.400000,0.050000,0.400000,0.085355,0.385355,0.085355,0.385355,$1*%
%AMFreePoly8*
4,1,30,0.200000,1.710000,0.236753,1.697426,0.376386,1.589219,0.526381,1.504463,0.606724,1.473357,0.606723,1.473356,0.687059,1.442253,0.771046,1.423078,0.855035,1.403901,1.028740,1.390056,1.444035,1.390057,1.486461,1.372484,1.504035,1.330057,1.504034,-1.539942,1.486460,-1.582368,1.444038,-1.599942,1.046227,-1.599966,0.870517,-1.612848,0.700699,-1.650739,0.538235,-1.712988,
0.386579,-1.798267,0.245504,-1.907443,0.208783,-1.919992,-1.650000,-1.919992,-1.692426,-1.902418,-1.710000,-1.859992,-1.710000,1.650007,-1.692426,1.692433,-1.650000,1.710007,0.200000,1.710000,0.200000,1.710000,$1*%
G04 Aperture macros list end*
%TA.AperFunction,Conductor*%
%ADD10C,0.200000*%
%TD*%
%TA.AperFunction,SMDPad,CuDef*%
%ADD11RoundRect,0.218750X0.256250X-0.218750X0.256250X0.218750X-0.256250X0.218750X-0.256250X-0.218750X0*%
%TD*%
%TA.AperFunction,SMDPad,CuDef*%
%ADD12RoundRect,0.200000X0.200000X0.275000X-0.200000X0.275000X-0.200000X-0.275000X0.200000X-0.275000X0*%
%TD*%
%TA.AperFunction,SMDPad,CuDef*%
%ADD13RoundRect,0.200000X-0.275000X0.200000X-0.275000X-0.200000X0.275000X-0.200000X0.275000X0.200000X0*%
%TD*%
%TA.AperFunction,SMDPad,CuDef*%
%ADD14R,1.000000X1.700000*%
%TD*%
%TA.AperFunction,SMDPad,CuDef*%
%ADD15FreePoly0,0.000000*%
%TD*%
%TA.AperFunction,SMDPad,CuDef*%
%ADD16RoundRect,0.050000X-0.350000X-0.050000X0.350000X-0.050000X0.350000X0.050000X-0.350000X0.050000X0*%
%TD*%
%TA.AperFunction,SMDPad,CuDef*%
%ADD17FreePoly1,0.000000*%
%TD*%
%TA.AperFunction,SMDPad,CuDef*%
%ADD18FreePoly2,0.000000*%
%TD*%
%TA.AperFunction,SMDPad,CuDef*%
%ADD19RoundRect,0.050000X-0.050000X-0.350000X0.050000X-0.350000X0.050000X0.350000X-0.050000X0.350000X0*%
%TD*%
%TA.AperFunction,SMDPad,CuDef*%
%ADD20FreePoly3,0.000000*%
%TD*%
%TA.AperFunction,SMDPad,CuDef*%
%ADD21FreePoly4,0.000000*%
%TD*%
%TA.AperFunction,SMDPad,CuDef*%
%ADD22FreePoly5,0.000000*%
%TD*%
%TA.AperFunction,SMDPad,CuDef*%
%ADD23FreePoly6,0.000000*%
%TD*%
%TA.AperFunction,SMDPad,CuDef*%
%ADD24FreePoly7,0.000000*%
%TD*%
%TA.AperFunction,HeatsinkPad*%
%ADD25R,1.700000X1.700000*%
%TD*%
%TA.AperFunction,SMDPad,CuDef*%
%ADD26FreePoly8,90.000000*%
%TD*%
%TA.AperFunction,SMDPad,CuDef*%
%ADD27FreePoly8,270.000000*%
%TD*%
%TA.AperFunction,ViaPad*%
%ADD28C,0.600000*%
%TD*%
G04 APERTURE END LIST*
%TO.N,GND*%
D10*
X118000000Y-58900000D02*
X194500000Y-58900000D01*
X194500000Y-103200000D01*
X118000000Y-103200000D01*
X118000000Y-58900000D01*
%TD*%
D11*
%TO.P,D6,1,K*%
%TO.N,Net-(D14-K)*%
X190500000Y-90100000D03*
%TO.P,D6,2,A*%
%TO.N,Net-(D1-A)*%
X190500000Y-88524998D03*
%TD*%
%TO.P,D26,1,K*%
%TO.N,Net-(D10-K)*%
X183400000Y-75775002D03*
%TO.P,D26,2,A*%
%TO.N,Net-(D25-A)*%
X183400000Y-74200000D03*
%TD*%
D12*
%TO.P,R4,1*%
%TO.N,Net-(D12-K)*%
X172600000Y-82900000D03*
%TO.P,R4,2*%
%TO.N,Col4*%
X170950000Y-82900000D03*
%TD*%
D13*
%TO.P,R16,1*%
%TO.N,Row5*%
X181000000Y-67050000D03*
%TO.P,R16,2*%
%TO.N,Net-(D33-A)*%
X181000000Y-68700000D03*
%TD*%
D11*
%TO.P,D5,1,K*%
%TO.N,Net-(D13-K)*%
X190500000Y-86500000D03*
%TO.P,D5,2,A*%
%TO.N,Net-(D1-A)*%
X190500000Y-84924998D03*
%TD*%
%TO.P,D18,1,K*%
%TO.N,Net-(D10-K)*%
X185600000Y-75687501D03*
%TO.P,D18,2,A*%
%TO.N,Net-(D17-A)*%
X185600000Y-74112499D03*
%TD*%
%TO.P,D4,1,K*%
%TO.N,Net-(D12-K)*%
X190500000Y-82975002D03*
%TO.P,D4,2,A*%
%TO.N,Net-(D1-A)*%
X190500000Y-81400000D03*
%TD*%
D12*
%TO.P,R5,1*%
%TO.N,Net-(D13-K)*%
X172700000Y-86300000D03*
%TO.P,R5,2*%
%TO.N,Col5*%
X171050000Y-86300000D03*
%TD*%
D11*
%TO.P,D1,1,K*%
%TO.N,Net-(D1-K)*%
X190500000Y-72400000D03*
%TO.P,D1,2,A*%
%TO.N,Net-(D1-A)*%
X190500000Y-70824998D03*
%TD*%
D13*
%TO.P,R17,1*%
%TO.N,Row4*%
X183300000Y-67050000D03*
%TO.P,R17,2*%
%TO.N,Net-(D25-A)*%
X183300000Y-68700000D03*
%TD*%
D11*
%TO.P,D62,1,K*%
%TO.N,Net-(D14-K)*%
X174700000Y-89787501D03*
%TO.P,D62,2,A*%
%TO.N,Net-(D57-A)*%
X174700000Y-88212499D03*
%TD*%
%TO.P,D40,1,K*%
%TO.N,Net-(D16-K)*%
X181300000Y-97300000D03*
%TO.P,D40,2,A*%
%TO.N,Net-(D33-A)*%
X181300000Y-95724998D03*
%TD*%
%TO.P,D36,1,K*%
%TO.N,Net-(D12-K)*%
X181100000Y-82800000D03*
%TO.P,D36,2,A*%
%TO.N,Net-(D33-A)*%
X181100000Y-81224998D03*
%TD*%
D12*
%TO.P,R2,1*%
%TO.N,Net-(D10-K)*%
X172500000Y-75700000D03*
%TO.P,R2,2*%
%TO.N,Col2*%
X170850000Y-75700000D03*
%TD*%
D11*
%TO.P,D3,1,K*%
%TO.N,Net-(D11-K)*%
X190500000Y-79500000D03*
%TO.P,D3,2,A*%
%TO.N,Net-(D1-A)*%
X190500000Y-77924998D03*
%TD*%
D14*
%TO.P,SW1,1,1*%
%TO.N,GND*%
X149300000Y-87299998D03*
X149300000Y-81000000D03*
%TO.P,SW1,2,2*%
%TO.N,P1_BTN_ADC*%
X153100000Y-87299998D03*
X153100000Y-81000000D03*
%TD*%
D11*
%TO.P,D51,1,K*%
%TO.N,Net-(D11-K)*%
X176800000Y-79200000D03*
%TO.P,D51,2,A*%
%TO.N,Net-(D49-A)*%
X176800000Y-77624998D03*
%TD*%
D13*
%TO.P,R20,1*%
%TO.N,Row1*%
X190500000Y-67100000D03*
%TO.P,R20,2*%
%TO.N,Net-(D1-A)*%
X190500000Y-68750000D03*
%TD*%
D11*
%TO.P,D61,1,K*%
%TO.N,Net-(D13-K)*%
X174600000Y-86200000D03*
%TO.P,D61,2,A*%
%TO.N,Net-(D57-A)*%
X174600000Y-84624998D03*
%TD*%
%TO.P,D42,1,K*%
%TO.N,Net-(D10-K)*%
X179000000Y-75675002D03*
%TO.P,D42,2,A*%
%TO.N,Net-(D41-A)*%
X179000000Y-74100000D03*
%TD*%
%TO.P,D15,1,K*%
%TO.N,Net-(D15-K)*%
X188200000Y-93800000D03*
%TO.P,D15,2,A*%
%TO.N,Net-(D10-A)*%
X188200000Y-92224998D03*
%TD*%
%TO.P,D17,1,K*%
%TO.N,Net-(D1-K)*%
X185600000Y-72300000D03*
%TO.P,D17,2,A*%
%TO.N,Net-(D17-A)*%
X185600000Y-70724998D03*
%TD*%
%TO.P,D23,1,K*%
%TO.N,Net-(D15-K)*%
X185900000Y-93700000D03*
%TO.P,D23,2,A*%
%TO.N,Net-(D17-A)*%
X185900000Y-92124998D03*
%TD*%
%TO.P,D48,1,K*%
%TO.N,Net-(D16-K)*%
X179300000Y-97300000D03*
%TO.P,D48,2,A*%
%TO.N,Net-(D41-A)*%
X179300000Y-95724998D03*
%TD*%
%TO.P,D22,1,K*%
%TO.N,Net-(D14-K)*%
X185800000Y-89975002D03*
%TO.P,D22,2,A*%
%TO.N,Net-(D17-A)*%
X185800000Y-88400000D03*
%TD*%
%TO.P,D45,1,K*%
%TO.N,Net-(D13-K)*%
X179200000Y-86375002D03*
%TO.P,D45,2,A*%
%TO.N,Net-(D41-A)*%
X179200000Y-84800000D03*
%TD*%
%TO.P,D44,1,K*%
%TO.N,Net-(D12-K)*%
X179100000Y-82800000D03*
%TO.P,D44,2,A*%
%TO.N,Net-(D41-A)*%
X179100000Y-81224998D03*
%TD*%
%TO.P,D20,1,K*%
%TO.N,Net-(D12-K)*%
X185700000Y-82800000D03*
%TO.P,D20,2,A*%
%TO.N,Net-(D17-A)*%
X185700000Y-81224998D03*
%TD*%
%TO.P,D19,1,K*%
%TO.N,Net-(D11-K)*%
X185600000Y-79300000D03*
%TO.P,D19,2,A*%
%TO.N,Net-(D17-A)*%
X185600000Y-77724998D03*
%TD*%
%TO.P,D33,1,K*%
%TO.N,Net-(D1-K)*%
X181000000Y-72300000D03*
%TO.P,D33,2,A*%
%TO.N,Net-(D33-A)*%
X181000000Y-70724998D03*
%TD*%
%TO.P,D57,1,K*%
%TO.N,Net-(D1-K)*%
X174500000Y-72375002D03*
%TO.P,D57,2,A*%
%TO.N,Net-(D57-A)*%
X174500000Y-70800000D03*
%TD*%
D13*
%TO.P,R19,1*%
%TO.N,Row2*%
X188100000Y-67075000D03*
%TO.P,R19,2*%
%TO.N,Net-(D10-A)*%
X188100000Y-68725000D03*
%TD*%
D11*
%TO.P,D54,1,K*%
%TO.N,Net-(D14-K)*%
X176800000Y-89900000D03*
%TO.P,D54,2,A*%
%TO.N,Net-(D49-A)*%
X176800000Y-88324998D03*
%TD*%
%TO.P,D35,1,K*%
%TO.N,Net-(D11-K)*%
X181100000Y-79300000D03*
%TO.P,D35,2,A*%
%TO.N,Net-(D33-A)*%
X181100000Y-77724998D03*
%TD*%
%TO.P,D30,1,K*%
%TO.N,Net-(D14-K)*%
X183800000Y-90000000D03*
%TO.P,D30,2,A*%
%TO.N,Net-(D25-A)*%
X183800000Y-88424998D03*
%TD*%
%TO.P,D29,1,K*%
%TO.N,Net-(D13-K)*%
X183700000Y-86400000D03*
%TO.P,D29,2,A*%
%TO.N,Net-(D25-A)*%
X183700000Y-84824998D03*
%TD*%
D12*
%TO.P,R1,1*%
%TO.N,Net-(D1-K)*%
X172450000Y-72400000D03*
%TO.P,R1,2*%
%TO.N,Col1*%
X170800000Y-72400000D03*
%TD*%
D11*
%TO.P,D43,1,K*%
%TO.N,Net-(D11-K)*%
X179100000Y-79200000D03*
%TO.P,D43,2,A*%
%TO.N,Net-(D41-A)*%
X179100000Y-77624998D03*
%TD*%
D13*
%TO.P,R18,1*%
%TO.N,Row3*%
X185600000Y-67100000D03*
%TO.P,R18,2*%
%TO.N,Net-(D17-A)*%
X185600000Y-68750000D03*
%TD*%
D11*
%TO.P,D64,1,K*%
%TO.N,Net-(D16-K)*%
X174800000Y-97300000D03*
%TO.P,D64,2,A*%
%TO.N,Net-(D57-A)*%
X174800000Y-95724998D03*
%TD*%
%TO.P,D27,1,K*%
%TO.N,Net-(D11-K)*%
X183500000Y-79300000D03*
%TO.P,D27,2,A*%
%TO.N,Net-(D25-A)*%
X183500000Y-77724998D03*
%TD*%
D13*
%TO.P,R14,1*%
%TO.N,Row7*%
X176700000Y-67150000D03*
%TO.P,R14,2*%
%TO.N,Net-(D49-A)*%
X176700000Y-68800000D03*
%TD*%
D11*
%TO.P,D47,1,K*%
%TO.N,Net-(D15-K)*%
X179200000Y-93600000D03*
%TO.P,D47,2,A*%
%TO.N,Net-(D41-A)*%
X179200000Y-92024998D03*
%TD*%
%TO.P,D34,1,K*%
%TO.N,Net-(D10-K)*%
X181000000Y-75687501D03*
%TO.P,D34,2,A*%
%TO.N,Net-(D33-A)*%
X181000000Y-74112499D03*
%TD*%
D13*
%TO.P,R15,1*%
%TO.N,Row6*%
X179100000Y-67075000D03*
%TO.P,R15,2*%
%TO.N,Net-(D41-A)*%
X179100000Y-68725000D03*
%TD*%
D11*
%TO.P,D11,1,K*%
%TO.N,Net-(D11-K)*%
X188100000Y-79375002D03*
%TO.P,D11,2,A*%
%TO.N,Net-(D10-A)*%
X188100000Y-77800000D03*
%TD*%
%TO.P,D16,1,K*%
%TO.N,Net-(D16-K)*%
X188200000Y-97487501D03*
%TO.P,D16,2,A*%
%TO.N,Net-(D10-A)*%
X188200000Y-95912499D03*
%TD*%
%TO.P,D14,1,K*%
%TO.N,Net-(D14-K)*%
X188200000Y-90000000D03*
%TO.P,D14,2,A*%
%TO.N,Net-(D10-A)*%
X188200000Y-88424998D03*
%TD*%
%TO.P,D8,1,K*%
%TO.N,Net-(D16-K)*%
X190500000Y-97500000D03*
%TO.P,D8,2,A*%
%TO.N,Net-(D1-A)*%
X190500000Y-95924998D03*
%TD*%
%TO.P,D9,1,K*%
%TO.N,Net-(D1-K)*%
X188000000Y-72400000D03*
%TO.P,D9,2,A*%
%TO.N,Net-(D10-A)*%
X188000000Y-70824998D03*
%TD*%
%TO.P,D2,1,K*%
%TO.N,Net-(D10-K)*%
X190500000Y-75887501D03*
%TO.P,D2,2,A*%
%TO.N,Net-(D1-A)*%
X190500000Y-74312499D03*
%TD*%
%TO.P,D52,1,K*%
%TO.N,Net-(D12-K)*%
X176800000Y-82800000D03*
%TO.P,D52,2,A*%
%TO.N,Net-(D49-A)*%
X176800000Y-81224998D03*
%TD*%
%TO.P,D38,1,K*%
%TO.N,Net-(D14-K)*%
X181200000Y-90000000D03*
%TO.P,D38,2,A*%
%TO.N,Net-(D33-A)*%
X181200000Y-88424998D03*
%TD*%
%TO.P,D56,1,K*%
%TO.N,Net-(D16-K)*%
X176800000Y-97275002D03*
%TO.P,D56,2,A*%
%TO.N,Net-(D49-A)*%
X176800000Y-95700000D03*
%TD*%
%TO.P,D41,1,K*%
%TO.N,Net-(D1-K)*%
X178900000Y-72400000D03*
%TO.P,D41,2,A*%
%TO.N,Net-(D41-A)*%
X178900000Y-70824998D03*
%TD*%
%TO.P,D53,1,K*%
%TO.N,Net-(D13-K)*%
X176800000Y-86275002D03*
%TO.P,D53,2,A*%
%TO.N,Net-(D49-A)*%
X176800000Y-84700000D03*
%TD*%
D12*
%TO.P,R3,1*%
%TO.N,Net-(D11-K)*%
X172500000Y-79300000D03*
%TO.P,R3,2*%
%TO.N,Col3*%
X170850000Y-79300000D03*
%TD*%
D11*
%TO.P,D39,1,K*%
%TO.N,Net-(D15-K)*%
X181300000Y-93700000D03*
%TO.P,D39,2,A*%
%TO.N,Net-(D33-A)*%
X181300000Y-92124998D03*
%TD*%
D13*
%TO.P,R13,1*%
%TO.N,Row8*%
X174400000Y-67200000D03*
%TO.P,R13,2*%
%TO.N,Net-(D57-A)*%
X174400000Y-68850000D03*
%TD*%
D11*
%TO.P,D37,1,K*%
%TO.N,Net-(D13-K)*%
X181200000Y-86400000D03*
%TO.P,D37,2,A*%
%TO.N,Net-(D33-A)*%
X181200000Y-84824998D03*
%TD*%
%TO.P,D31,1,K*%
%TO.N,Net-(D15-K)*%
X183900000Y-93800000D03*
%TO.P,D31,2,A*%
%TO.N,Net-(D25-A)*%
X183900000Y-92224998D03*
%TD*%
%TO.P,D46,1,K*%
%TO.N,Net-(D14-K)*%
X179200000Y-89975002D03*
%TO.P,D46,2,A*%
%TO.N,Net-(D41-A)*%
X179200000Y-88400000D03*
%TD*%
%TO.P,D10,1,K*%
%TO.N,Net-(D10-K)*%
X188100000Y-75875002D03*
%TO.P,D10,2,A*%
%TO.N,Net-(D10-A)*%
X188100000Y-74300000D03*
%TD*%
%TO.P,D12,1,K*%
%TO.N,Net-(D12-K)*%
X188100000Y-82875002D03*
%TO.P,D12,2,A*%
%TO.N,Net-(D10-A)*%
X188100000Y-81300000D03*
%TD*%
%TO.P,D13,1,K*%
%TO.N,Net-(D13-K)*%
X188100000Y-86500000D03*
%TO.P,D13,2,A*%
%TO.N,Net-(D10-A)*%
X188100000Y-84924998D03*
%TD*%
%TO.P,D49,1,K*%
%TO.N,Net-(D1-K)*%
X176700000Y-72400000D03*
%TO.P,D49,2,A*%
%TO.N,Net-(D49-A)*%
X176700000Y-70824998D03*
%TD*%
%TO.P,D21,1,K*%
%TO.N,Net-(D13-K)*%
X185700000Y-86400000D03*
%TO.P,D21,2,A*%
%TO.N,Net-(D17-A)*%
X185700000Y-84824998D03*
%TD*%
%TO.P,D58,1,K*%
%TO.N,Net-(D10-K)*%
X174500000Y-75700000D03*
%TO.P,D58,2,A*%
%TO.N,Net-(D57-A)*%
X174500000Y-74124998D03*
%TD*%
D12*
%TO.P,R6,1*%
%TO.N,Net-(D14-K)*%
X172700000Y-89900000D03*
%TO.P,R6,2*%
%TO.N,Col6*%
X171050000Y-89900000D03*
%TD*%
%TO.P,R7,1*%
%TO.N,Net-(D15-K)*%
X172800000Y-93400000D03*
%TO.P,R7,2*%
%TO.N,Col7*%
X171150000Y-93400000D03*
%TD*%
D11*
%TO.P,D59,1,K*%
%TO.N,Net-(D11-K)*%
X174500000Y-79200000D03*
%TO.P,D59,2,A*%
%TO.N,Net-(D57-A)*%
X174500000Y-77624998D03*
%TD*%
D15*
%TO.P,U1,1,PA2*%
%TO.N,Row3*%
X149625000Y-69975000D03*
D16*
%TO.P,U1,2,PA3*%
%TO.N,Row4*%
X149625000Y-70375000D03*
%TO.P,U1,3,GND*%
%TO.N,GND*%
X149625000Y-70775000D03*
%TO.P,U1,4,VCC*%
%TO.N,Net-(BT1-+)*%
X149625000Y-71175000D03*
D17*
%TO.P,U1,5,PA4*%
%TO.N,Row5*%
X149625000Y-71575000D03*
D18*
%TO.P,U1,6,PA5*%
%TO.N,Row6*%
X150275000Y-72225000D03*
D19*
%TO.P,U1,7,PA6*%
%TO.N,Row7*%
X150675000Y-72225000D03*
%TO.P,U1,8,PA7*%
%TO.N,Row8*%
X151075000Y-72225000D03*
%TO.P,U1,9,PB5*%
%TO.N,Col6*%
X151475000Y-72225000D03*
D20*
%TO.P,U1,10,PB4*%
%TO.N,Col5*%
X151875000Y-72225000D03*
D21*
%TO.P,U1,11,PB3*%
%TO.N,Col4*%
X152525000Y-71575000D03*
D16*
%TO.P,U1,12,PB2*%
%TO.N,Col3*%
X152525000Y-71175000D03*
%TO.P,U1,13,PB1*%
%TO.N,Col2*%
X152525000Y-70775000D03*
%TO.P,U1,14,PB0*%
%TO.N,Col1*%
X152525000Y-70375000D03*
D22*
%TO.P,U1,15,PC0*%
%TO.N,Col7*%
X152525000Y-69975000D03*
D23*
%TO.P,U1,16,PC1*%
%TO.N,Col8*%
X151875000Y-69325000D03*
D19*
%TO.P,U1,17,PC2*%
%TO.N,P1_BTN_ADC*%
X151475000Y-69325000D03*
%TO.P,U1,18,PC3*%
%TO.N,unconnected-(U1-PC3-Pad18)*%
X151075000Y-69325000D03*
%TO.P,U1,19,~{RESET}/PA0*%
%TO.N,Row1*%
X150675000Y-69325000D03*
D24*
%TO.P,U1,20,PA1*%
%TO.N,Row2*%
X150275000Y-69325000D03*
D25*
%TO.P,U1,21,GND*%
%TO.N,GND*%
X151075000Y-70775000D03*
%TD*%
D12*
%TO.P,R8,1*%
%TO.N,Net-(D16-K)*%
X172700000Y-97400000D03*
%TO.P,R8,2*%
%TO.N,Col8*%
X171050000Y-97400000D03*
%TD*%
D11*
%TO.P,D63,1,K*%
%TO.N,Net-(D15-K)*%
X174700000Y-93487501D03*
%TO.P,D63,2,A*%
%TO.N,Net-(D57-A)*%
X174700000Y-91912499D03*
%TD*%
%TO.P,D55,1,K*%
%TO.N,Net-(D15-K)*%
X176800000Y-93500000D03*
%TO.P,D55,2,A*%
%TO.N,Net-(D49-A)*%
X176800000Y-91924998D03*
%TD*%
%TO.P,D24,1,K*%
%TO.N,Net-(D16-K)*%
X185900000Y-97387501D03*
%TO.P,D24,2,A*%
%TO.N,Net-(D17-A)*%
X185900000Y-95812499D03*
%TD*%
%TO.P,D25,1,K*%
%TO.N,Net-(D1-K)*%
X183300000Y-72300000D03*
%TO.P,D25,2,A*%
%TO.N,Net-(D25-A)*%
X183300000Y-70724998D03*
%TD*%
%TO.P,D7,1,K*%
%TO.N,Net-(D15-K)*%
X190500000Y-93800000D03*
%TO.P,D7,2,A*%
%TO.N,Net-(D1-A)*%
X190500000Y-92224998D03*
%TD*%
%TO.P,D50,1,K*%
%TO.N,Net-(D10-K)*%
X176700000Y-75700000D03*
%TO.P,D50,2,A*%
%TO.N,Net-(D49-A)*%
X176700000Y-74124998D03*
%TD*%
%TO.P,D60,1,K*%
%TO.N,Net-(D12-K)*%
X174600000Y-82800000D03*
%TO.P,D60,2,A*%
%TO.N,Net-(D57-A)*%
X174600000Y-81224998D03*
%TD*%
%TO.P,D32,1,K*%
%TO.N,Net-(D16-K)*%
X183900000Y-97300000D03*
%TO.P,D32,2,A*%
%TO.N,Net-(D25-A)*%
X183900000Y-95724998D03*
%TD*%
%TO.P,D28,1,K*%
%TO.N,Net-(D12-K)*%
X183600000Y-82775002D03*
%TO.P,D28,2,A*%
%TO.N,Net-(D25-A)*%
X183600000Y-81200000D03*
%TD*%
D26*
%TO.P,BT1,1,+*%
%TO.N,Net-(BT1-+)*%
X131900000Y-97350000D03*
D27*
%TO.P,BT1,2,-*%
%TO.N,GND*%
X132100000Y-67050000D03*
%TD*%
D28*
%TO.N,GND*%
X143500000Y-75500000D03*
X145000000Y-77400000D03*
%TO.N,Net-(D1-A)*%
X190500000Y-92224998D03*
X190500000Y-74312499D03*
X190500000Y-70824998D03*
X190500000Y-88524998D03*
X190500000Y-68750000D03*
X190500000Y-81400000D03*
X190500000Y-84924998D03*
X190500000Y-77924998D03*
X190500000Y-95924998D03*
%TO.N,Net-(D10-A)*%
X188200000Y-88424998D03*
X188100000Y-68725000D03*
X188100000Y-84924998D03*
X188200000Y-95912499D03*
X188200000Y-92224998D03*
X188000000Y-70824998D03*
X188100000Y-74300000D03*
X188100000Y-81300000D03*
X188100000Y-77800000D03*
%TO.N,Net-(D17-A)*%
X185800000Y-88400000D03*
X185600000Y-74112499D03*
X185600000Y-77724998D03*
X185700000Y-84824998D03*
X185900000Y-95812499D03*
X185900000Y-92124998D03*
X185700000Y-81224998D03*
X185600000Y-68750000D03*
X185600000Y-70724998D03*
%TO.N,Net-(D25-A)*%
X183500000Y-77724998D03*
X183600000Y-81200000D03*
X183300000Y-68700000D03*
X183900000Y-95724998D03*
X183300000Y-70724998D03*
X183900000Y-92224998D03*
X183700000Y-84824998D03*
X183800000Y-88424998D03*
X183400000Y-74200000D03*
%TO.N,Net-(D33-A)*%
X181200000Y-88424998D03*
X181100000Y-77724998D03*
X181000000Y-70724998D03*
X181300000Y-92124998D03*
X181300000Y-95724998D03*
X181100000Y-81224998D03*
X181200000Y-84824998D03*
X181000000Y-68700000D03*
X181000000Y-74112499D03*
%TO.N,Net-(D41-A)*%
X179200000Y-88400000D03*
X179200000Y-84800000D03*
X179200000Y-92024998D03*
X179000000Y-74100000D03*
X179300000Y-95724998D03*
X179100000Y-68725000D03*
X179100000Y-81224998D03*
X179100000Y-77624998D03*
X178900000Y-70824998D03*
%TO.N,Net-(D49-A)*%
X176800000Y-91924998D03*
X176800000Y-77624998D03*
X176800000Y-95700000D03*
X176700000Y-74124998D03*
X176700000Y-68800000D03*
X176800000Y-88324998D03*
X176800000Y-81224998D03*
X176700000Y-70824998D03*
X176800000Y-84700000D03*
%TO.N,Net-(D57-A)*%
X174500000Y-77624998D03*
X174600000Y-81224998D03*
X174800000Y-95724998D03*
X174700000Y-88212499D03*
X174500000Y-74124998D03*
X174700000Y-91912499D03*
X174600000Y-84624998D03*
X174500000Y-70800000D03*
X174400000Y-68850000D03*
%TO.N,Row8*%
X174400000Y-67200000D03*
X162000000Y-74100000D03*
%TO.N,Row7*%
X161000000Y-74700000D03*
X176700000Y-67150000D03*
%TO.N,Row6*%
X160500000Y-75300000D03*
X179100000Y-67075000D03*
%TO.N,Row5*%
X181000000Y-67050000D03*
X159800000Y-76000000D03*
%TO.N,Row4*%
X148000000Y-70275000D03*
X159000000Y-76700000D03*
X183300000Y-67050000D03*
X148600000Y-72100000D03*
%TO.N,Row3*%
X185600000Y-67100000D03*
X184300000Y-63100000D03*
%TO.N,Row2*%
X183300000Y-63800000D03*
X188100000Y-67075000D03*
%TO.N,Row1*%
X190500000Y-67100000D03*
X150700000Y-67900000D03*
%TO.N,P1_BTN_ADC*%
X154400000Y-77900000D03*
X153300000Y-67400000D03*
%TD*%
D10*
%TO.N,Net-(BT1-+)*%
X137099000Y-97501000D02*
X144300000Y-90300000D01*
X132051000Y-97501000D02*
X137099000Y-97501000D01*
X144300000Y-90300000D02*
X144300000Y-74900000D01*
X148025000Y-71175000D02*
X149625000Y-71175000D01*
X144300000Y-74900000D02*
X148025000Y-71175000D01*
X131900000Y-97350000D02*
X132051000Y-97501000D01*
%TO.N,GND*%
X140700000Y-69300000D02*
X142175000Y-70775000D01*
X135200000Y-63300000D02*
X136700000Y-63300000D01*
X131700000Y-65050000D02*
X133450000Y-63300000D01*
X142175000Y-70775000D02*
X149625000Y-70775000D01*
X131700000Y-66650000D02*
X132100000Y-67050000D01*
X140700000Y-67300000D02*
X140700000Y-69300000D01*
X135200000Y-63300000D02*
X122400000Y-63300000D01*
X149300000Y-81000000D02*
X149300000Y-87299998D01*
X149625000Y-70775000D02*
X151075000Y-70775000D01*
X148600000Y-81000000D02*
X145000000Y-77400000D01*
X143500000Y-75500000D02*
X143500000Y-72100000D01*
X133450000Y-63300000D02*
X135200000Y-63300000D01*
X122400000Y-63300000D02*
X118000000Y-58900000D01*
X131700000Y-65050000D02*
X131700000Y-66650000D01*
X149300000Y-81000000D02*
X148600000Y-81000000D01*
X143500000Y-72100000D02*
X142175000Y-70775000D01*
X136700000Y-63300000D02*
X140700000Y-67300000D01*
%TO.N,Net-(D1-K)*%
X178900000Y-72400000D02*
X179100000Y-72400000D01*
X183300000Y-72300000D02*
X185600000Y-72300000D01*
X179100000Y-72400000D02*
X179200000Y-72300000D01*
X176700000Y-72400000D02*
X178900000Y-72400000D01*
X187900000Y-72300000D02*
X188000000Y-72400000D01*
X181000000Y-72300000D02*
X183300000Y-72300000D01*
X172450000Y-72400000D02*
X174475002Y-72400000D01*
X185600000Y-72300000D02*
X187900000Y-72300000D01*
X174500000Y-72375002D02*
X176675002Y-72375002D01*
X188000000Y-72400000D02*
X190500000Y-72400000D01*
X174475002Y-72400000D02*
X174500000Y-72375002D01*
X179200000Y-72300000D02*
X181000000Y-72300000D01*
X176675002Y-72375002D02*
X176700000Y-72400000D01*
%TO.N,Net-(D10-K)*%
X181000000Y-75687501D02*
X179012499Y-75687501D01*
X190500000Y-75887501D02*
X188112499Y-75887501D01*
X185600000Y-75687501D02*
X185412499Y-75687501D01*
X188112499Y-75887501D02*
X188100000Y-75875002D01*
X178900000Y-75700000D02*
X176700000Y-75700000D01*
X185412499Y-75687501D02*
X185324998Y-75775002D01*
X174500000Y-75700000D02*
X172500000Y-75700000D01*
X178924998Y-75675002D02*
X178900000Y-75700000D01*
X183400000Y-75775002D02*
X181087501Y-75775002D01*
X181087501Y-75775002D02*
X181000000Y-75687501D01*
X185324998Y-75775002D02*
X183400000Y-75775002D01*
X179000000Y-75675002D02*
X178924998Y-75675002D01*
X176700000Y-75700000D02*
X174500000Y-75700000D01*
X179012499Y-75687501D02*
X179000000Y-75675002D01*
X188100000Y-75875002D02*
X185787501Y-75875002D01*
X185787501Y-75875002D02*
X185600000Y-75687501D01*
%TO.N,Net-(D11-K)*%
X179100000Y-79200000D02*
X181000000Y-79200000D01*
X188024998Y-79300000D02*
X188100000Y-79375002D01*
X188100000Y-79375002D02*
X190375002Y-79375002D01*
X172500000Y-79300000D02*
X174000000Y-79300000D01*
X174000000Y-79300000D02*
X174400000Y-79300000D01*
X174100000Y-79200000D02*
X176800000Y-79200000D01*
X176800000Y-79200000D02*
X179100000Y-79200000D01*
X174000000Y-79300000D02*
X174100000Y-79200000D01*
X174400000Y-79300000D02*
X174500000Y-79200000D01*
X183500000Y-79300000D02*
X185600000Y-79300000D01*
X181000000Y-79200000D02*
X181100000Y-79300000D01*
X181100000Y-79300000D02*
X183500000Y-79300000D01*
X190375002Y-79375002D02*
X190500000Y-79500000D01*
X185600000Y-79300000D02*
X188024998Y-79300000D01*
%TO.N,Net-(D12-K)*%
X183600000Y-82775002D02*
X181124998Y-82775002D01*
X181100000Y-82800000D02*
X179100000Y-82800000D01*
X185700000Y-82800000D02*
X183624998Y-82800000D01*
X183624998Y-82800000D02*
X183600000Y-82775002D01*
X172700000Y-82800000D02*
X172600000Y-82900000D01*
X185775002Y-82875002D02*
X185700000Y-82800000D01*
X188200000Y-82975002D02*
X188100000Y-82875002D01*
X174600000Y-82800000D02*
X172700000Y-82800000D01*
X190500000Y-82975002D02*
X188200000Y-82975002D01*
X181124998Y-82775002D02*
X181100000Y-82800000D01*
X179100000Y-82800000D02*
X176800000Y-82800000D01*
X188100000Y-82875002D02*
X185775002Y-82875002D01*
X176800000Y-82800000D02*
X174600000Y-82800000D01*
%TO.N,Net-(D13-K)*%
X181200000Y-86400000D02*
X183700000Y-86400000D01*
X181175002Y-86375002D02*
X181200000Y-86400000D01*
X176975002Y-86375002D02*
X179200000Y-86375002D01*
X188000000Y-86400000D02*
X188100000Y-86500000D01*
X176875002Y-86275002D02*
X176975002Y-86375002D01*
X179200000Y-86375002D02*
X181175002Y-86375002D01*
X174500000Y-86300000D02*
X174600000Y-86200000D01*
X188100000Y-86500000D02*
X190500000Y-86500000D01*
X183700000Y-86400000D02*
X185700000Y-86400000D01*
X176800000Y-86275002D02*
X176875002Y-86275002D01*
X174600000Y-86200000D02*
X176724998Y-86200000D01*
X176724998Y-86200000D02*
X176800000Y-86275002D01*
X172700000Y-86300000D02*
X174500000Y-86300000D01*
X185700000Y-86400000D02*
X188000000Y-86400000D01*
%TO.N,Net-(D14-K)*%
X180775002Y-89975002D02*
X179200000Y-89975002D01*
X174812499Y-89900000D02*
X174700000Y-89787501D01*
X183800000Y-90000000D02*
X181200000Y-90000000D01*
X183824998Y-89975002D02*
X183800000Y-90000000D01*
X179200000Y-89975002D02*
X176875002Y-89975002D01*
X188200000Y-90000000D02*
X185824998Y-90000000D01*
X176800000Y-89900000D02*
X174812499Y-89900000D01*
X185824998Y-90000000D02*
X185800000Y-89975002D01*
X188300000Y-90100000D02*
X188200000Y-90000000D01*
X180800000Y-90000000D02*
X180775002Y-89975002D01*
X185800000Y-89975002D02*
X183824998Y-89975002D01*
X174700000Y-89787501D02*
X174512499Y-89787501D01*
X190500000Y-90100000D02*
X188300000Y-90100000D01*
X176875002Y-89975002D02*
X176800000Y-89900000D01*
X181200000Y-90000000D02*
X180800000Y-90000000D01*
X174400000Y-89900000D02*
X172700000Y-89900000D01*
X174512499Y-89787501D02*
X174400000Y-89900000D01*
%TO.N,Net-(D15-K)*%
X185900000Y-93700000D02*
X188100000Y-93700000D01*
X179300000Y-93600000D02*
X179400000Y-93700000D01*
X183800000Y-93700000D02*
X183900000Y-93800000D01*
X179200000Y-93600000D02*
X179300000Y-93600000D01*
X188200000Y-93800000D02*
X190500000Y-93800000D01*
X185800000Y-93800000D02*
X185900000Y-93700000D01*
X176800000Y-93500000D02*
X179100000Y-93500000D01*
X179400000Y-93700000D02*
X181300000Y-93700000D01*
X179100000Y-93500000D02*
X179200000Y-93600000D01*
X176787501Y-93487501D02*
X176800000Y-93500000D01*
X172800000Y-93400000D02*
X174612499Y-93400000D01*
X188100000Y-93700000D02*
X188200000Y-93800000D01*
X174612499Y-93400000D02*
X174700000Y-93487501D01*
X181300000Y-93700000D02*
X183800000Y-93700000D01*
X183900000Y-93800000D02*
X185800000Y-93800000D01*
X174700000Y-93487501D02*
X176787501Y-93487501D01*
%TO.N,Net-(D16-K)*%
X188200000Y-97487501D02*
X186000000Y-97487501D01*
X172800000Y-97300000D02*
X172700000Y-97400000D01*
X190500000Y-97500000D02*
X188212499Y-97500000D01*
X185900000Y-97387501D02*
X183987501Y-97387501D01*
X183987501Y-97387501D02*
X183900000Y-97300000D01*
X181300000Y-97300000D02*
X179300000Y-97300000D01*
X176800000Y-97275002D02*
X174824998Y-97275002D01*
X183900000Y-97300000D02*
X181300000Y-97300000D01*
X179300000Y-97300000D02*
X176824998Y-97300000D01*
X186000000Y-97487501D02*
X185900000Y-97387501D01*
X174824998Y-97275002D02*
X174800000Y-97300000D01*
X188212499Y-97500000D02*
X188200000Y-97487501D01*
X174800000Y-97300000D02*
X172800000Y-97300000D01*
X176824998Y-97300000D02*
X176800000Y-97275002D01*
%TO.N,Col1*%
X167675000Y-70375000D02*
X152525000Y-70375000D01*
X170800000Y-72400000D02*
X169700000Y-72400000D01*
X169700000Y-72400000D02*
X167675000Y-70375000D01*
%TO.N,Col2*%
X170850000Y-75700000D02*
X170300000Y-75700000D01*
X165375000Y-70775000D02*
X152525000Y-70775000D01*
X170300000Y-75700000D02*
X165375000Y-70775000D01*
%TO.N,Col3*%
X169100000Y-77800000D02*
X169100000Y-78700000D01*
X169700000Y-79300000D02*
X170850000Y-79300000D01*
X169100000Y-78700000D02*
X169700000Y-79300000D01*
X152525000Y-71175000D02*
X162475000Y-71175000D01*
X162475000Y-71175000D02*
X169100000Y-77800000D01*
%TO.N,Col4*%
X170950000Y-82900000D02*
X167700000Y-79650000D01*
X153975000Y-71575000D02*
X152525000Y-71575000D01*
X154400000Y-72000000D02*
X153975000Y-71575000D01*
X167700000Y-77300000D02*
X162400000Y-72000000D01*
X162400000Y-72000000D02*
X154400000Y-72000000D01*
X167700000Y-79650000D02*
X167700000Y-77300000D01*
%TO.N,Col5*%
X166100000Y-76700000D02*
X162300000Y-72900000D01*
X152550000Y-72900000D02*
X151875000Y-72225000D01*
X166100000Y-81350000D02*
X166100000Y-76700000D01*
X162300000Y-72900000D02*
X152550000Y-72900000D01*
X171050000Y-86300000D02*
X166100000Y-81350000D01*
%TO.N,Col6*%
X165700000Y-76900000D02*
X165700000Y-82400000D01*
X152350000Y-73500000D02*
X162300000Y-73500000D01*
X170000000Y-86700000D02*
X170000000Y-88850000D01*
X151475000Y-72225000D02*
X151475000Y-72625000D01*
X165700000Y-82400000D02*
X170000000Y-86700000D01*
X170000000Y-88850000D02*
X171050000Y-89900000D01*
X151475000Y-72625000D02*
X152350000Y-73500000D01*
X162300000Y-73500000D02*
X165700000Y-76900000D01*
%TO.N,Col7*%
X168400000Y-99500000D02*
X169900000Y-101000000D01*
X169900000Y-101000000D02*
X191400000Y-101000000D01*
X190200000Y-64800000D02*
X173100000Y-64800000D01*
X167925000Y-69975000D02*
X152525000Y-69975000D01*
X168400000Y-96150000D02*
X168400000Y-99500000D01*
X192500000Y-99900000D02*
X192500000Y-67100000D01*
X173100000Y-64800000D02*
X167925000Y-69975000D01*
X191400000Y-101000000D02*
X192500000Y-99900000D01*
X192500000Y-67100000D02*
X190200000Y-64800000D01*
X171150000Y-93400000D02*
X168400000Y-96150000D01*
%TO.N,Col8*%
X171050000Y-97400000D02*
X171900000Y-96550000D01*
X191800000Y-64300000D02*
X172100000Y-64300000D01*
X152400000Y-68800000D02*
X151875000Y-69325000D01*
X168200000Y-102100000D02*
X191600000Y-102100000D01*
X171400000Y-91600000D02*
X170700000Y-91600000D01*
X191600000Y-102100000D02*
X193200000Y-100500000D01*
X171900000Y-96550000D02*
X171900000Y-92100000D01*
X170700000Y-91600000D02*
X166400000Y-95900000D01*
X167600000Y-68800000D02*
X152400000Y-68800000D01*
X171900000Y-92100000D02*
X171400000Y-91600000D01*
X172100000Y-64300000D02*
X167600000Y-68800000D01*
X166400000Y-100300000D02*
X168200000Y-102100000D01*
X166400000Y-95900000D02*
X166400000Y-100300000D01*
X193200000Y-65700000D02*
X191800000Y-64300000D01*
X193200000Y-100500000D02*
X193200000Y-65700000D01*
%TO.N,Row8*%
X162000000Y-74100000D02*
X152524322Y-74100000D01*
X152524322Y-74100000D02*
X151075000Y-72650678D01*
X151075000Y-72650678D02*
X151075000Y-72225000D01*
%TO.N,Row7*%
X161000000Y-74700000D02*
X152698644Y-74700000D01*
X150675000Y-72676356D02*
X150675000Y-72225000D01*
X152698644Y-74700000D02*
X150675000Y-72676356D01*
%TO.N,Row6*%
X160500000Y-75300000D02*
X152872966Y-75300000D01*
X152872966Y-75300000D02*
X150275000Y-72702034D01*
X150275000Y-72702034D02*
X150275000Y-72225000D01*
%TO.N,Row5*%
X159800000Y-76000000D02*
X153147288Y-76000000D01*
X153147288Y-76000000D02*
X149625000Y-72477712D01*
X149625000Y-72477712D02*
X149625000Y-71575000D01*
%TO.N,Row4*%
X148000000Y-70275000D02*
X148100000Y-70375000D01*
X153200000Y-76700000D02*
X148600000Y-72100000D01*
X159000000Y-76700000D02*
X153200000Y-76700000D01*
X148100000Y-70375000D02*
X149625000Y-70375000D01*
%TO.N,Row3*%
X148000000Y-63100000D02*
X184300000Y-63100000D01*
X146500000Y-64600000D02*
X148000000Y-63100000D01*
X146500000Y-66850000D02*
X146500000Y-66100000D01*
X149625000Y-69975000D02*
X146500000Y-66850000D01*
X146500000Y-66100000D02*
X146500000Y-64600000D01*
%TO.N,Row2*%
X149800000Y-68300000D02*
X150275000Y-68775000D01*
X149800000Y-65600000D02*
X149800000Y-68300000D01*
X183300000Y-63800000D02*
X151600000Y-63800000D01*
X150275000Y-68775000D02*
X150275000Y-69325000D01*
X151600000Y-63800000D02*
X149800000Y-65600000D01*
%TO.N,Row1*%
X150700000Y-69300000D02*
X150675000Y-69325000D01*
X150700000Y-67900000D02*
X150700000Y-69300000D01*
%TO.N,P1_BTN_ADC*%
X151475000Y-68925000D02*
X151475000Y-69325000D01*
X153100000Y-79200000D02*
X154400000Y-77900000D01*
X153000000Y-67400000D02*
X151475000Y-68925000D01*
X153100000Y-81000000D02*
X153100000Y-87299998D01*
X153300000Y-67400000D02*
X153000000Y-67400000D01*
X153100000Y-81000000D02*
X153100000Y-79200000D01*
%TD*%
M02*
