M48
; DRILL file {KiCad 9.0.7} date 2026-05-05T18:13:55-0700
; FORMAT={-:-/ absolute / metric / decimal}
; #@! TF.CreationDate,2026-05-05T18:13:55-07:00
; #@! TF.GenerationSoftware,Kicad,Pcbnew,9.0.7
; #@! TF.FileFunction,Plated,1,2,PTH
FMAT,2
METRIC
; #@! TA.AperFunction,Plated,PTH,ViaDrill
T1C0.300
%
G90
G05
T1
X143.5Y-75.5
X145.0Y-77.4
X148.0Y-70.275
X148.6Y-72.1
X150.7Y-67.9
X153.3Y-67.4
X154.4Y-77.9
X159.0Y-76.7
X159.8Y-76.0
X160.5Y-75.3
X161.0Y-74.7
X162.0Y-74.1
X174.4Y-67.2
X174.4Y-68.85
X174.5Y-70.8
X174.5Y-74.125
X174.5Y-77.625
X174.6Y-81.225
X174.6Y-84.625
X174.7Y-88.212
X174.7Y-91.912
X174.8Y-95.725
X176.7Y-67.15
X176.7Y-68.8
X176.7Y-70.825
X176.7Y-74.125
X176.8Y-77.625
X176.8Y-81.225
X176.8Y-84.7
X176.8Y-88.325
X176.8Y-91.925
X176.8Y-95.7
X178.9Y-70.825
X179.0Y-74.1
X179.1Y-67.075
X179.1Y-68.725
X179.1Y-77.625
X179.1Y-81.225
X179.2Y-84.8
X179.2Y-88.4
X179.2Y-92.025
X179.3Y-95.725
X181.0Y-67.05
X181.0Y-68.7
X181.0Y-70.725
X181.0Y-74.112
X181.1Y-77.725
X181.1Y-81.225
X181.2Y-84.825
X181.2Y-88.425
X181.3Y-92.125
X181.3Y-95.725
X183.3Y-63.8
X183.3Y-67.05
X183.3Y-68.7
X183.3Y-70.725
X183.4Y-74.2
X183.5Y-77.725
X183.6Y-81.2
X183.7Y-84.825
X183.8Y-88.425
X183.9Y-92.225
X183.9Y-95.725
X184.3Y-63.1
X185.6Y-67.1
X185.6Y-68.75
X185.6Y-70.725
X185.6Y-74.112
X185.6Y-77.725
X185.7Y-81.225
X185.7Y-84.825
X185.8Y-88.4
X185.9Y-92.125
X185.9Y-95.812
X188.0Y-70.825
X188.1Y-67.075
X188.1Y-68.725
X188.1Y-74.3
X188.1Y-77.8
X188.1Y-81.3
X188.1Y-84.925
X188.2Y-88.425
X188.2Y-92.225
X188.2Y-95.912
X190.5Y-67.1
X190.5Y-68.75
X190.5Y-70.825
X190.5Y-74.312
X190.5Y-77.925
X190.5Y-81.4
X190.5Y-84.925
X190.5Y-88.525
X190.5Y-92.225
X190.5Y-95.925
M30
